<svg width="23" height="23" viewBox="0 0 23 23" fill="none" xmlns="http://www.w3.org/2000/svg">
    <path fill-rule="evenodd" clip-rule="evenodd" d="M11.5 0C17.8411 0 23 5.15839 23 11.5C23 17.8416 17.8411 23 11.5 23C5.1589 23 0 17.8416 0 11.5C0 5.15839 5.1589 0 11.5 0ZM14.6508 6.98773L11.5 10.1397L8.34923 6.98773C7.97369 6.61216 7.36455 6.61126 6.98809 6.98773C6.61255 7.3633 6.61255 7.97248 6.98809 8.34808L10.1398 11.5L6.98809 14.651C6.61255 15.0275 6.61255 15.6367 6.98809 16.0123C7.36453 16.3888 7.97277 16.3879 8.34923 16.0123L11.5 12.8604L14.6508 16.0123C15.0263 16.3879 15.6364 16.3879 16.0119 16.0123C16.3884 15.6358 16.3875 15.0266 16.0119 14.651L12.8602 11.5L16.0119 8.349C16.3875 7.97343 16.3884 7.36425 16.0119 6.98775C15.6364 6.61218 15.0263 6.61216 14.6508 6.98773Z" fill="#ffffff" fill-opacity="1"/>
</svg>
