<svg xmlns="http://www.w3.org/2000/svg" xmlns:xlink="http://www.w3.org/1999/xlink" xml:space="preserve" version="1.1" style="shape-rendering:geometricPrecision;text-rendering:geometricPrecision;image-rendering:optimizeQuality;" viewBox="0 0 785 762.5" width="785px" height="762.5px" x="0px" y="0px" fill-rule="evenodd" clip-rule="evenodd"><defs><style type="text/css">
   
    .fil0 {fill:#454545;fill-rule:nonzero}
   
  </style></defs><g><path class="fil0" d="M176 453c25,24 49,49 67,74 51,-63 91,-113 126,-156 111,-139 163,-204 354,-370l62 -1c-109,92 -207,196 -285,295 -75,95 -142,195 -206,298l-84 17c-6,-31 -45,-75 -65,-98 -49,-57 -121,-124 -145,-142l76 0c14,5 86,69 100,83zm-5 5c-32,-30 -66,-58 -96,-80l-53 0c29,24 84,78 128,129 33,37 59,73 66,94l74 -15c60,-98 126,-198 204,-296 77,-96 165,-192 270,-282l-37 0c-190,165 -242,229 -352,368 -44,55 -88,109 -132,163 -22,-30 -46,-56 -72,-81z"/></g></svg>