<svg width="100" height="76" viewBox="0 0 100 76" fill="none" xmlns="http://www.w3.org/2000/svg">
<path d="M23.4987 44.3099L4.47433 33.0731C3.82602 33.9482 3.33712 34.6721 3.06079 35.6014L0.0955446 45.963C0.0955446 45.963 -0.180787 46.7734 0.191198 47.7566C0.595066 48.8587 1.24338 49.118 1.24338 49.118L20.8416 60.6898C20.8416 60.6898 21.3837 61.0571 22.1914 61.3165C23.2542 61.6514 23.6793 61.619 23.6793 61.619L23.4987 44.2991V44.3099Z" fill="url(#paint0_linear_1101_928)"/>
<path d="M23.4989 44.3099L4.47452 33.0731C3.8262 33.9482 3.33731 34.6721 3.06098 35.6014L2.97595 35.9039C3.43296 36.174 3.86871 36.4549 4.30447 36.7466C6.46198 36.7466 8.75765 37.946 10.5432 38.9292C13.5084 40.5607 16.5162 42.1814 18.4186 45.1311C21.3839 49.7447 21.5433 55.2226 20.3848 60.4197L20.8525 60.7006C20.8525 60.7006 21.3945 61.0679 22.2022 61.3273C23.265 61.6622 23.6902 61.6298 23.6902 61.6298L23.5095 44.3099H23.4989Z" fill="url(#paint1_linear_1101_928)"/>
<path d="M23.4987 44.3099L4.47433 33.0731C3.82602 33.9482 3.33712 34.6721 3.06079 35.6014L0.0955446 45.963C0.0955446 45.963 -0.180787 46.7734 0.191198 47.7566C0.414388 48.3509 0.701348 48.6966 0.924538 48.9019C0.297479 46.3952 1.09459 43.7805 1.91295 41.3818C2.51876 39.6207 2.95451 37.503 4.55936 36.3901C5.01637 36.0768 5.56903 36.0119 6.14295 36.0876C8.885 35.8823 16.1228 40.6579 18.0996 42.1922C20.4271 43.9858 21.4581 44.9258 22.2127 48.3076C22.9673 51.6895 23.6793 57.859 21.6919 61.1436C21.8407 61.2084 22.0107 61.2732 22.1914 61.3273C23.2542 61.6622 23.6793 61.6298 23.6793 61.6298L23.4987 44.3099Z" fill="url(#paint2_linear_1101_928)"/>
<path d="M73.8336 28.7188L69.1784 21.7822C68.0625 20.3452 66.734 18.9946 66.6915 18.9622L23.4988 44.3099L23.6795 61.6298C23.6795 61.6298 24.1684 61.7162 24.8911 61.5001C25.8157 61.23 26.836 60.5385 26.836 60.5385L72.4094 33.7862C72.4094 33.7862 74.7051 32.5976 74.7157 31.2363C74.7263 30.0585 73.8336 28.708 73.8336 28.708V28.7188Z" fill="url(#paint3_linear_1101_928)"/>
<path d="M49.4314 29.0862L23.4988 44.3099L23.6795 61.6298C23.6795 61.6298 24.1684 61.7162 24.8911 61.5001C25.8157 61.23 26.836 60.5385 26.836 60.5385L34.2119 56.2059C37.4748 46.3628 42.9164 37.1032 49.4314 29.0862Z" fill="url(#paint4_linear_1101_928)"/>
<g opacity="0.4">
<path d="M73.8335 28.7188L69.1784 21.7822C68.0625 20.3452 66.734 18.9946 66.6914 18.9622L64.3745 20.3235C69.5929 23.0139 71.8355 29.2374 70.6557 34.8234L72.4094 33.7862C72.4094 33.7862 74.705 32.5976 74.7157 31.2363C74.7263 30.0585 73.8335 28.708 73.8335 28.708V28.7188Z" fill="#FFC200"/>
</g>
<path d="M65.4798 19.6645L53.47 26.7091C52.3328 33.2568 51.8121 39.9124 50.7811 46.4709L57.0411 42.7973C57.6575 40.712 63.6412 25.4234 65.4798 19.6537V19.6645Z" fill="url(#paint5_linear_1101_928)"/>
<path d="M63.2586 16.4339C63.2586 16.4339 63.248 16.4231 63.2374 16.4123L50.3561 8.80579C50.3561 8.80579 48.8894 7.85498 47.5609 7.85498C46.3493 7.85498 44.9464 8.61131 44.9464 8.61131L7.09963 30.8257C6.33441 31.3227 5.33537 32.1115 4.47449 33.0731L23.4988 44.3099L66.6915 18.9622C65.5756 18.0762 64.4809 17.1794 63.2586 16.4339Z" fill="url(#paint6_linear_1101_928)"/>
<g opacity="0.44">
<path d="M27.8669 22.1928C35.3598 20.4964 42.9589 19.1999 50.6217 18.7137C55.8189 18.3895 61.0479 18.3247 66.2557 18.6272C65.2779 17.8493 64.3108 17.0822 63.2373 16.4339C63.2373 16.4339 63.2267 16.4231 63.2161 16.4123L50.3348 8.80579C50.3348 8.80579 48.8681 7.85498 47.5396 7.85498C46.328 7.85498 44.9251 8.61131 44.9251 8.61131L17.3451 24.7967C20.863 23.7702 24.4341 22.9599 27.8563 22.182L27.8669 22.1928Z" fill="url(#paint7_linear_1101_928)"/>
</g>
<path d="M37.6768 32.5977C31.5337 35.0395 23.5839 37.4165 16.92 36.2388C13.891 35.7094 8.68323 34.1751 6.40881 31.3011C5.78175 31.7657 5.09093 32.3708 4.46387 33.0731L23.4882 44.3099L66.6809 18.9622C66.3195 18.6705 65.9476 18.3787 65.5862 18.0978C65.5862 18.0978 44.0005 30.0802 37.6768 32.5977Z" fill="url(#paint8_linear_1101_928)"/>
<path opacity="0.54" d="M30.5453 38.054C24.3172 40.3014 20.8631 40.3554 16.3992 38.8211C13.3915 37.7839 8.47066 34.6181 5.23971 32.2951C4.97401 32.5436 4.71893 32.7921 4.47449 33.073L23.4988 44.3099L66.6915 18.9622C66.5959 18.8865 66.2132 18.584 66.1176 18.5084C64.3002 19.7401 36.7308 35.8282 30.5559 38.054H30.5453Z" fill="url(#paint9_linear_1101_928)"/>
<path d="M73.8336 28.7188L69.1784 21.7822C68.0625 20.3452 66.734 18.9946 66.6915 18.9622L23.4988 44.3099L23.6795 61.6298C23.6795 61.6298 24.1684 61.7162 24.8911 61.5001C25.8157 61.23 26.836 60.5385 26.836 60.5385L27.123 60.3656C24.7104 58.9934 24.9336 53.429 25.0399 51.8732C25.2205 49.2584 25.38 46.1575 27.378 44.3099C30.6196 41.3278 50.1754 30.1774 55.7126 26.936C58.731 25.164 63.418 21.7065 67.1591 23.2192C70.4113 24.5374 73.1427 28.4595 73.1215 32.079C73.1215 32.5328 73.079 32.9758 73.0152 33.4188C73.6954 32.965 74.7051 32.1438 74.7157 31.2471C74.7263 30.0694 73.8336 28.7188 73.8336 28.7188Z" fill="url(#paint10_linear_1101_928)"/>
<path d="M16.4098 40.1285L22.691 43.8453L23.4987 52.4782L24.0195 44.0074L34.1588 38.054L23.6901 43.0242L16.4098 40.1285Z" fill="white"/>
<path opacity="0.66" d="M25.5819 45.0122C22.5104 43.5212 18.0678 42.0733 16.0698 39.048C14.5181 36.6926 15.1239 34.2076 16.2823 31.8954C11.0745 35.2664 7.28031 40.0529 2.98654 44.526C2.04064 45.5092 1.07348 46.4925 0.106323 47.4541C0.138208 47.5513 0.159464 47.6594 0.201976 47.7674C0.255117 47.9079 0.308258 48.0375 0.372026 48.1564C0.393283 48.1996 0.414539 48.232 0.435795 48.2644C0.478308 48.3401 0.52082 48.4049 0.552704 48.4697C0.573961 48.5021 0.595217 48.5345 0.616473 48.567C0.658986 48.621 0.69087 48.675 0.733382 48.7182C0.754639 48.7398 0.775895 48.7614 0.786523 48.783C0.829036 48.8263 0.871548 48.8695 0.903432 48.9019C0.903432 48.9019 0.903432 48.9019 0.914061 48.9019C1.09474 49.064 1.2329 49.1288 1.2329 49.1288L20.8312 60.7006C20.8312 60.7006 21.3732 61.0679 22.1809 61.3273C23.2437 61.6622 23.6689 61.6298 23.6689 61.6298C23.6689 61.6298 24.1578 61.7162 24.8805 61.5001C25.8051 61.23 26.8254 60.5385 26.8254 60.5385L40.355 52.5971C35.753 49.6258 30.5665 47.4433 25.5713 45.0122H25.5819Z" fill="#5B3604"/>
<path d="M48.7725 58.6585L29.7481 47.4217C29.0998 48.3076 28.6109 49.0208 28.3346 49.95L25.38 60.3116C25.38 60.3116 25.1036 61.122 25.465 62.1052C25.8689 63.1965 26.5172 63.4666 26.5172 63.4666L46.1154 75.0492C46.1154 75.0492 46.6575 75.4165 47.4652 75.6759C48.528 76.0108 48.9531 75.9784 48.9531 75.9784L48.7725 58.6585Z" fill="url(#paint11_linear_1101_928)"/>
<path d="M48.7724 58.6585L29.7481 47.4217C29.0998 48.3076 28.6109 49.0208 28.3345 49.95L28.2495 50.2525C28.7065 50.5226 29.1423 50.7927 29.578 51.0952C31.7355 51.0952 34.0312 52.2946 35.8167 53.2778C38.782 54.9201 41.7897 56.53 43.6922 59.4797C46.6574 64.0933 46.8168 69.5604 45.6584 74.7683L46.1366 75.0492C46.1366 75.0492 46.6787 75.4165 47.4864 75.6759C48.5492 76.0108 48.9744 75.9784 48.9744 75.9784L48.7937 58.6585H48.7724Z" fill="url(#paint12_linear_1101_928)"/>
<path d="M48.7725 58.6585L29.7481 47.4217C29.0998 48.3076 28.6109 49.0208 28.3346 49.95L25.38 60.3116C25.38 60.3116 25.1036 61.122 25.465 62.1052C25.6882 62.6995 25.9751 63.0452 26.1983 63.2505C25.5606 60.7438 26.3684 58.1291 27.1867 55.7305C27.7925 53.9801 28.2283 51.8516 29.8331 50.7387C30.2902 50.4254 30.8428 50.3605 31.4167 50.4362C34.1588 50.2309 41.3965 55.0065 43.3734 56.5408C45.7009 58.3344 46.7319 59.2744 47.4865 62.6562C48.2411 66.0381 48.9531 72.2076 46.9657 75.4922C47.1145 75.557 47.2845 75.6218 47.4652 75.6759C48.528 76.0108 48.9531 75.9784 48.9531 75.9784L48.7725 58.6585Z" fill="url(#paint13_linear_1101_928)"/>
<path d="M99.1179 43.0566L94.4627 36.12C93.3468 34.683 92.0183 33.3324 91.9758 33.3L48.7831 58.6477L48.9638 75.9676C48.9638 75.9676 49.4527 76.054 50.1754 75.8379C51.1 75.5678 52.1203 74.8763 52.1203 74.8763L97.6937 48.124C97.6937 48.124 99.9894 46.9355 100 45.5741C100 44.3964 99.1179 43.0458 99.1179 43.0458V43.0566Z" fill="url(#paint14_linear_1101_928)"/>
<path d="M74.7157 43.4348L48.7831 58.6585L48.9638 75.9784C48.9638 75.9784 49.4527 76.0648 50.1754 75.8487C51.1 75.5786 52.1203 74.8871 52.1203 74.8871L59.4962 70.5545C62.7591 60.7114 68.2113 51.4518 74.7157 43.4348Z" fill="url(#paint15_linear_1101_928)"/>
<g opacity="0.4">
<path d="M99.1178 43.0566L94.4627 36.12C93.3468 34.683 92.0183 33.3324 91.9757 33.3L89.6588 34.6614C94.8772 37.3517 97.1198 43.5752 95.9294 49.1612L97.6937 48.124C97.6937 48.124 99.9893 46.9355 100 45.5741C100 44.3964 99.1178 43.0458 99.1178 43.0458V43.0566Z" fill="#FFC200"/>
</g>
<path d="M90.7641 34.0131L78.7543 41.0685C77.6171 47.6054 77.0964 54.261 76.0654 60.8303L82.3254 57.1567C82.9418 55.0714 88.9255 39.7828 90.7641 34.0131Z" fill="url(#paint16_linear_1101_928)"/>
<path d="M88.5323 30.7825C88.5323 30.7825 88.5217 30.7717 88.511 30.7609L75.6298 23.1544C75.6298 23.1544 74.1631 22.2036 72.8346 22.2036C71.623 22.2036 70.2201 22.9599 70.2201 22.9599L32.3839 45.1743C31.6187 45.6605 30.6197 46.4601 29.7588 47.4217L48.7831 58.6585L91.9758 33.3108C90.8599 32.4248 89.7652 31.528 88.5429 30.7825H88.5323Z" fill="url(#paint17_linear_1101_928)"/>
<path d="M40.4719 40.4203L32.3733 45.1743C31.6081 45.6605 30.609 46.4601 29.7482 47.4217L48.7725 58.6585L78.4143 41.263C65.7988 42.3111 53.045 41.8573 40.4719 40.4203Z" fill="url(#paint18_linear_1101_928)"/>
<g opacity="0.44">
<path d="M53.1512 36.5414C60.6441 34.845 68.2432 33.5485 75.906 33.0731C81.1032 32.7489 86.3322 32.6841 91.54 32.9866C90.5622 32.2087 89.5951 31.4416 88.5216 30.7933C88.5216 30.7933 88.511 30.7825 88.5004 30.7717L75.6191 23.1652C75.6191 23.1652 74.1524 22.2144 72.8239 22.2144C71.6123 22.2144 70.2094 22.9707 70.2094 22.9707L42.6294 39.1561C46.1473 38.1405 49.7184 37.3193 53.1406 36.5414H53.1512Z" fill="url(#paint19_linear_1101_928)"/>
</g>
<path d="M62.9611 46.9355C56.818 49.3773 48.8682 51.7543 42.2043 50.5874C39.1753 50.058 33.9675 48.5238 31.6931 45.6497C31.0661 46.1143 30.3752 46.7194 29.7482 47.4217L48.7725 58.6585L91.9652 33.3108C91.6038 33.0191 91.2319 32.7273 90.8705 32.4464C90.8705 32.4464 69.2954 44.4288 62.9611 46.9463V46.9355Z" fill="url(#paint20_linear_1101_928)"/>
<path opacity="0.54" d="M55.8296 52.4026C49.5909 54.65 46.1474 54.704 41.6836 53.1698C38.6758 52.1325 33.755 48.9667 30.524 46.6437C30.2583 46.8923 30.0032 47.1516 29.7482 47.4217L48.7725 58.6585L91.9652 33.3108C91.8695 33.2352 91.4869 32.9326 91.3913 32.857C89.5739 34.0887 62.0045 50.1769 55.8296 52.4026Z" fill="url(#paint21_linear_1101_928)"/>
<path d="M99.1179 43.0566L94.4627 36.12C93.3468 34.683 92.0183 33.3324 91.9758 33.3L48.7831 58.6477L48.9638 75.9676C48.9638 75.9676 49.4527 76.054 50.1754 75.8379C51.1 75.5678 52.1203 74.8763 52.1203 74.8763L52.4073 74.7035C49.9947 73.3205 50.2179 67.7669 50.3242 66.211C50.5048 63.5963 50.6536 60.4953 52.6623 58.6477C55.8933 55.6656 75.4597 44.5152 80.9969 41.2738C84.0153 39.5019 88.7023 36.0444 92.4434 37.557C95.6956 38.8752 98.427 42.7973 98.4058 46.4168C98.4058 46.8706 98.3633 47.3136 98.2995 47.7566C98.9797 47.3028 99.9894 46.4817 100 45.5849C100 44.4072 99.1179 43.0566 99.1179 43.0566Z" fill="url(#paint22_linear_1101_928)"/>
<path d="M41.6835 54.4663L47.9753 58.1831L48.7724 66.8268L49.2932 58.356L59.4324 52.4026L48.9637 57.362L41.6835 54.4663Z" fill="white"/>
<path opacity="0.66" d="M25.6244 62.4726C33.8718 58.41 41.8748 53.818 49.6652 48.8911C60.9417 41.76 71.8461 33.7646 83.9197 28.0597L75.6191 23.1544C75.6191 23.1544 74.1524 22.2036 72.8239 22.2036C71.6123 22.2036 70.2094 22.9599 70.2094 22.9599L42.6294 39.1453L32.3627 45.1743C32.1395 45.3148 31.895 45.4876 31.6399 45.6821C31.4805 45.801 31.3211 45.9198 31.1617 46.0603C31.0873 46.1251 31.0129 46.1899 30.9279 46.2548C30.7897 46.3736 30.6621 46.4925 30.524 46.6221C30.4602 46.687 30.3858 46.741 30.3221 46.8166C30.1201 47.0111 29.9182 47.2164 29.7269 47.4325C29.0786 48.3185 28.5897 49.0316 28.3133 49.9608L25.3587 60.3224C25.3587 60.3224 25.0824 61.1328 25.4437 62.116C25.4969 62.2457 25.55 62.3645 25.6032 62.4726H25.6244Z" fill="#5B3604"/>
<path d="M35.2429 36.4549L16.2186 25.2181C15.5703 26.0933 15.0814 26.8172 14.7944 27.7464L11.8398 38.108C11.8398 38.108 11.5635 38.9184 11.9355 39.9016C12.3393 40.9929 12.9876 41.263 12.9876 41.263L32.5859 52.8456C32.5859 52.8456 33.1279 53.213 33.9463 53.4723C35.0091 53.8072 35.4342 53.7748 35.4342 53.7748L35.2536 36.4549H35.2429Z" fill="url(#paint23_linear_1101_928)"/>
<path d="M16.4949 25.3693L16.2186 25.2073C15.5703 26.0825 15.0814 26.8064 14.7944 27.7356L11.8398 38.0972C11.8398 38.0972 11.5635 38.9076 11.9355 39.8908C12.3393 40.9821 12.9876 41.2522 12.9876 41.2522L32.5859 52.8348C32.5859 52.8348 33.1279 53.2022 33.9463 53.4615C35.0091 53.7964 35.4342 53.764 35.4342 53.764L35.413 51.4302C28.3878 49.6798 17.3027 44.6341 14.72 39.8692C13.7316 38.0432 13.0939 30.9337 16.4949 25.3585V25.3693Z" fill="url(#paint24_linear_1101_928)"/>
<path d="M35.2429 36.4549L16.2185 25.2181C15.5702 26.0933 15.0813 26.8172 14.7944 27.7464L14.7094 28.0489C15.1664 28.319 15.6021 28.5999 16.0379 28.8917C18.1954 28.8917 20.491 30.091 22.2766 31.0742C25.2418 32.7057 28.2496 34.3264 30.152 37.2761C33.1173 41.8897 33.2767 47.3568 32.1182 52.5647L32.5859 52.8456C32.5859 52.8456 33.1279 53.213 33.9463 53.4723C35.0091 53.8072 35.4342 53.7748 35.4342 53.7748L35.2535 36.4549H35.2429Z" fill="url(#paint25_linear_1101_928)"/>
<path d="M35.2429 36.4549L16.2186 25.2181C15.5703 26.0933 15.0814 26.8172 14.7944 27.7464L11.8398 38.108C11.8398 38.108 11.5635 38.9184 11.9355 39.9016C12.1587 40.4959 12.4456 40.8416 12.6582 41.0361C12.0311 38.5294 12.8282 35.9147 13.6466 33.5161C14.2524 31.7549 14.6881 29.6372 16.293 28.5243C16.75 28.211 17.3027 28.1461 17.8766 28.2218C20.6186 28.0165 27.8564 32.7921 29.8332 34.3264C32.1608 36.12 33.1917 37.06 33.9463 40.4419C34.7009 43.8237 35.413 49.9932 33.4255 53.2778C33.5743 53.3426 33.7444 53.4074 33.925 53.4615C34.9879 53.7964 35.413 53.764 35.413 53.764L35.2323 36.4441L35.2429 36.4549Z" fill="url(#paint26_linear_1101_928)"/>
<path d="M85.5777 20.853L80.9226 13.9164C79.8066 12.4794 78.4781 11.1288 78.4356 11.0964L35.2429 36.4441L35.4236 53.764C35.4236 53.764 35.9125 53.8504 36.6352 53.6343C37.5599 53.3534 38.5801 52.6727 38.5801 52.6727L84.1535 25.9204C84.1535 25.9204 86.4492 24.7319 86.4598 23.3705C86.4705 22.2036 85.5777 20.8422 85.5777 20.8422V20.853Z" fill="url(#paint27_linear_1101_928)"/>
<path d="M61.1755 21.2312L35.2429 36.4549L35.4236 53.7748C35.4236 53.7748 35.9125 53.8613 36.6352 53.6452C37.5599 53.3642 38.5801 52.6835 38.5801 52.6835L45.9561 48.3509C49.2189 38.5078 54.6605 29.2482 61.1755 21.2312Z" fill="url(#paint28_linear_1101_928)"/>
<g opacity="0.4">
<path d="M85.5777 20.853L80.9226 13.9164C79.8066 12.4794 78.4781 11.1288 78.4356 11.0964L76.1187 12.4578C81.3371 15.1481 83.5796 21.3716 82.3999 26.9576L84.1535 25.9204C84.1535 25.9204 86.4492 24.7319 86.4598 23.3705C86.4704 22.2036 85.5777 20.8422 85.5777 20.8422V20.853Z" fill="#FFC200"/>
</g>
<path d="M77.2347 11.8095L65.2249 18.8542C64.0877 25.4018 63.5669 32.0575 62.536 38.6159L68.796 34.9423C69.4124 32.857 75.396 17.5684 77.2347 11.8095Z" fill="url(#paint29_linear_1101_928)"/>
<path d="M75.0028 8.5789C75.0028 8.5789 74.9921 8.5681 74.9815 8.55729L62.1002 0.95081C62.1002 0.95081 60.6336 0 59.305 0C58.0934 0 56.6905 0.756326 56.6905 0.756326L18.8438 22.9707C18.0785 23.4677 17.0795 24.2565 16.2186 25.2181L35.243 36.4549L78.4357 11.1072C77.3197 10.2212 76.225 9.32442 75.0028 8.5789Z" fill="url(#paint30_linear_1101_928)"/>
<path d="M59.305 21.1447C48.018 21.9011 36.6884 21.2744 25.6139 18.9946L18.8438 22.9707C18.0785 23.4677 17.0795 24.2565 16.2186 25.2181L35.243 36.4549L61.6326 20.961C60.8567 21.0259 60.0809 21.0907 59.305 21.1447Z" fill="url(#paint31_linear_1101_928)"/>
<g opacity="0.44">
<path d="M39.6217 14.327C47.1145 12.6307 54.7136 11.3341 62.3765 10.8587C67.5736 10.5345 72.8027 10.4697 78.0105 10.7722C77.0327 9.99431 76.0655 9.22718 74.9921 8.5789C74.9921 8.5789 74.9814 8.5681 74.9708 8.55729L62.1002 0.95081C62.1002 0.95081 60.6335 0 59.305 0C58.0934 0 56.6905 0.756326 56.6905 0.756326L29.1105 16.9417C32.6284 15.9153 36.1994 15.1049 39.6217 14.327Z" fill="url(#paint32_linear_1101_928)"/>
</g>
<path d="M49.4315 24.7319C43.2885 27.1737 35.3386 29.5508 28.6748 28.3731C25.6458 27.8436 20.438 26.3094 18.1636 23.4353C17.5365 23.8999 16.8457 24.505 16.2186 25.2073L35.243 36.4441L78.4357 11.0964C78.0743 10.8047 77.7023 10.5129 77.341 10.232C77.341 10.232 55.7659 22.2144 49.4315 24.7319Z" fill="url(#paint33_linear_1101_928)"/>
<path opacity="0.54" d="M42.3 30.199C36.0613 32.4464 32.6178 32.5004 28.154 30.9662C25.1569 29.9289 20.2254 26.7632 16.9945 24.4402C16.7288 24.6887 16.4737 24.9372 16.2292 25.2181L35.2536 36.4549L78.4463 11.1072C78.3506 11.0316 77.968 10.729 77.8724 10.6534C76.0549 11.8851 48.4856 27.9733 42.3107 30.199H42.3Z" fill="url(#paint34_linear_1101_928)"/>
<path d="M85.5777 20.853L80.9226 13.9164C79.8066 12.4794 78.4781 11.1288 78.4356 11.0964L35.2429 36.4441L35.4236 53.764C35.4236 53.764 35.9125 53.8504 36.6352 53.6343C37.5599 53.3534 38.5801 52.6727 38.5801 52.6727L38.8671 52.4998C36.4545 51.1277 36.6777 45.5632 36.784 44.0074C36.9647 41.3926 37.1241 38.2917 39.1222 36.4441C42.3638 33.462 61.9195 22.3116 67.4568 19.0702C70.4752 17.3091 75.1621 13.8408 78.9032 15.3534C82.1555 16.6716 84.8869 20.5937 84.8656 24.2132C84.8656 24.667 84.8231 25.11 84.77 25.553C85.4502 25.0992 86.4598 24.2781 86.4705 23.3705C86.4811 22.2036 85.5883 20.8422 85.5883 20.8422L85.5777 20.853Z" fill="url(#paint35_linear_1101_928)"/>
<path d="M28.1539 32.2627L34.4458 35.9795L35.2429 44.6125L35.7637 36.1416L45.9029 30.199L35.4342 35.1584L28.1539 32.2627Z" fill="white"/>
<defs>
<linearGradient id="paint0_linear_1101_928" x1="19.4387" y1="40.8524" x2="7.66188" y2="54.6642" gradientUnits="userSpaceOnUse">
<stop stop-color="#FFCE00"/>
<stop offset="1" stop-color="#BF8113"/>
</linearGradient>
<linearGradient id="paint1_linear_1101_928" x1="19.9491" y1="40.9497" x2="6.97029" y2="54.642" gradientUnits="userSpaceOnUse">
<stop stop-color="#F5D600"/>
<stop offset="1" stop-color="#E5A400"/>
</linearGradient>
<linearGradient id="paint2_linear_1101_928" x1="18.2165" y1="40.8308" x2="9.2546" y2="54.4071" gradientUnits="userSpaceOnUse">
<stop stop-color="#CE9C00"/>
<stop offset="1" stop-color="#9B620C"/>
</linearGradient>
<linearGradient id="paint3_linear_1101_928" x1="23.4988" y1="40.3122" x2="74.7157" y2="40.3122" gradientUnits="userSpaceOnUse">
<stop stop-color="#FFCE00"/>
<stop offset="1" stop-color="#BF8113"/>
</linearGradient>
<linearGradient id="paint4_linear_1101_928" x1="23.4988" y1="45.3688" x2="74.7157" y2="45.3688" gradientUnits="userSpaceOnUse">
<stop stop-color="#F0B500"/>
<stop offset="1" stop-color="#B47310"/>
</linearGradient>
<linearGradient id="paint5_linear_1101_928" x1="23.4987" y1="33.0731" x2="75.8741" y2="33.0731" gradientUnits="userSpaceOnUse">
<stop stop-color="#F0B500"/>
<stop offset="1" stop-color="#B47310"/>
</linearGradient>
<linearGradient id="paint6_linear_1101_928" x1="32.5008" y1="45.7577" x2="38.8335" y2="6.41778" gradientUnits="userSpaceOnUse">
<stop stop-color="#FFEA55"/>
<stop offset="1" stop-color="#EFAB00"/>
</linearGradient>
<linearGradient id="paint7_linear_1101_928" x1="37.9318" y1="46.6437" x2="44.2644" y2="7.29295" gradientUnits="userSpaceOnUse">
<stop stop-color="#FFCE00"/>
<stop offset="1" stop-color="#BF8113"/>
</linearGradient>
<linearGradient id="paint8_linear_1101_928" x1="32.5009" y1="45.7577" x2="38.7238" y2="7.13036" gradientUnits="userSpaceOnUse">
<stop stop-color="#FFF569"/>
<stop offset="1" stop-color="#FFD400"/>
</linearGradient>
<linearGradient id="paint9_linear_1101_928" x1="32.5008" y1="45.7577" x2="38.7567" y2="6.9144" gradientUnits="userSpaceOnUse">
<stop stop-color="#CE9C00"/>
<stop offset="1" stop-color="#9B620C"/>
</linearGradient>
<linearGradient id="paint10_linear_1101_928" x1="23.4988" y1="40.3122" x2="74.7157" y2="40.3122" gradientUnits="userSpaceOnUse">
<stop stop-color="#CE9C00"/>
<stop offset="1" stop-color="#9B620C"/>
</linearGradient>
<linearGradient id="paint11_linear_1101_928" x1="44.7231" y1="55.201" x2="32.9464" y2="69.002" gradientUnits="userSpaceOnUse">
<stop stop-color="#FFCE00"/>
<stop offset="1" stop-color="#BF8113"/>
</linearGradient>
<linearGradient id="paint12_linear_1101_928" x1="45.2226" y1="55.2983" x2="32.2438" y2="68.9906" gradientUnits="userSpaceOnUse">
<stop stop-color="#F5D600"/>
<stop offset="1" stop-color="#E5A400"/>
</linearGradient>
<linearGradient id="paint13_linear_1101_928" x1="43.4903" y1="55.1794" x2="34.5284" y2="68.7557" gradientUnits="userSpaceOnUse">
<stop stop-color="#CE9C00"/>
<stop offset="1" stop-color="#9B620C"/>
</linearGradient>
<linearGradient id="paint14_linear_1101_928" x1="48.7725" y1="54.65" x2="100" y2="54.65" gradientUnits="userSpaceOnUse">
<stop stop-color="#FFCE00"/>
<stop offset="1" stop-color="#BF8113"/>
</linearGradient>
<linearGradient id="paint15_linear_1101_928" x1="48.7725" y1="59.7174" x2="100" y2="59.7174" gradientUnits="userSpaceOnUse">
<stop stop-color="#F0B500"/>
<stop offset="1" stop-color="#B47310"/>
</linearGradient>
<linearGradient id="paint16_linear_1101_928" x1="48.7724" y1="47.4217" x2="101.158" y2="47.4217" gradientUnits="userSpaceOnUse">
<stop stop-color="#F0B500"/>
<stop offset="1" stop-color="#B47310"/>
</linearGradient>
<linearGradient id="paint17_linear_1101_928" x1="57.7851" y1="60.1063" x2="64.1178" y2="20.7664" gradientUnits="userSpaceOnUse">
<stop stop-color="#FFEA55"/>
<stop offset="1" stop-color="#EFAB00"/>
</linearGradient>
<linearGradient id="paint18_linear_1101_928" x1="51.7803" y1="59.1447" x2="58.1129" y2="19.794" gradientUnits="userSpaceOnUse">
<stop stop-color="#FFF455"/>
<stop offset="1" stop-color="#EFBA00"/>
</linearGradient>
<linearGradient id="paint19_linear_1101_928" x1="63.2161" y1="60.9815" x2="69.5487" y2="21.6416" gradientUnits="userSpaceOnUse">
<stop stop-color="#FFCE00"/>
<stop offset="1" stop-color="#BF8113"/>
</linearGradient>
<linearGradient id="paint20_linear_1101_928" x1="57.7852" y1="60.1063" x2="62.9545" y2="27.9455" gradientUnits="userSpaceOnUse">
<stop stop-color="#FFFFA6"/>
<stop offset="1" stop-color="#FFE600"/>
</linearGradient>
<linearGradient id="paint21_linear_1101_928" x1="57.7852" y1="60.1064" x2="64.041" y2="21.2522" gradientUnits="userSpaceOnUse">
<stop stop-color="#CE9C00"/>
<stop offset="1" stop-color="#9B620C"/>
</linearGradient>
<linearGradient id="paint22_linear_1101_928" x1="48.7725" y1="54.65" x2="100" y2="54.65" gradientUnits="userSpaceOnUse">
<stop stop-color="#CE9C00"/>
<stop offset="1" stop-color="#9B620C"/>
</linearGradient>
<linearGradient id="paint23_linear_1101_928" x1="31.183" y1="32.9974" x2="19.4063" y2="46.7984" gradientUnits="userSpaceOnUse">
<stop stop-color="#FFCE00"/>
<stop offset="1" stop-color="#BF8113"/>
</linearGradient>
<linearGradient id="paint24_linear_1101_928" x1="31.183" y1="32.9974" x2="19.4063" y2="46.7984" gradientUnits="userSpaceOnUse">
<stop stop-color="#F5D600"/>
<stop offset="1" stop-color="#E5A400"/>
</linearGradient>
<linearGradient id="paint25_linear_1101_928" x1="31.6931" y1="33.0947" x2="18.7145" y2="46.7762" gradientUnits="userSpaceOnUse">
<stop stop-color="#F5D600"/>
<stop offset="1" stop-color="#E5A400"/>
</linearGradient>
<linearGradient id="paint26_linear_1101_928" x1="29.9608" y1="32.965" x2="20.9989" y2="46.5413" gradientUnits="userSpaceOnUse">
<stop stop-color="#CE9C00"/>
<stop offset="1" stop-color="#9B620C"/>
</linearGradient>
<linearGradient id="paint27_linear_1101_928" x1="35.2429" y1="32.4464" x2="86.4598" y2="32.4464" gradientUnits="userSpaceOnUse">
<stop stop-color="#FFCE00"/>
<stop offset="1" stop-color="#BF8113"/>
</linearGradient>
<linearGradient id="paint28_linear_1101_928" x1="35.2429" y1="37.5138" x2="86.4598" y2="37.5138" gradientUnits="userSpaceOnUse">
<stop stop-color="#F0B500"/>
<stop offset="1" stop-color="#B47310"/>
</linearGradient>
<linearGradient id="paint29_linear_1101_928" x1="35.243" y1="25.2181" x2="87.629" y2="25.2181" gradientUnits="userSpaceOnUse">
<stop stop-color="#F0B500"/>
<stop offset="1" stop-color="#B47310"/>
</linearGradient>
<linearGradient id="paint30_linear_1101_928" x1="44.2556" y1="37.9028" x2="50.5883" y2="-1.44802" gradientUnits="userSpaceOnUse">
<stop stop-color="#FFFE55"/>
<stop offset="1" stop-color="#EFC900"/>
</linearGradient>
<linearGradient id="paint31_linear_1101_928" x1="36.8053" y1="36.7034" x2="43.138" y2="-2.63652" gradientUnits="userSpaceOnUse">
<stop stop-color="#FFF455"/>
<stop offset="1" stop-color="#EFBA00"/>
</linearGradient>
<linearGradient id="paint32_linear_1101_928" x1="49.6759" y1="38.7779" x2="56.0195" y2="-0.57273" gradientUnits="userSpaceOnUse">
<stop stop-color="#FFCE00"/>
<stop offset="1" stop-color="#BF8113"/>
</linearGradient>
<linearGradient id="paint33_linear_1101_928" x1="44.2556" y1="37.9028" x2="49.4249" y2="5.74195" gradientUnits="userSpaceOnUse">
<stop stop-color="#FFFFA6"/>
<stop offset="1" stop-color="#FFE600"/>
</linearGradient>
<linearGradient id="paint34_linear_1101_928" x1="44.2556" y1="37.9028" x2="50.5114" y2="-0.951363" gradientUnits="userSpaceOnUse">
<stop stop-color="#CE9C00"/>
<stop offset="1" stop-color="#9B620C"/>
</linearGradient>
<linearGradient id="paint35_linear_1101_928" x1="35.2429" y1="32.4464" x2="86.4598" y2="32.4464" gradientUnits="userSpaceOnUse">
<stop stop-color="#CE9C00"/>
<stop offset="1" stop-color="#9B620C"/>
</linearGradient>
</defs>
</svg>
