<svg width="18" height="18" viewBox="0 0 18 18" fill="none" xmlns="http://www.w3.org/2000/svg">
    <path d="M13.68 1.98001H4.32003C4.10424 1.98594 3.89288 2.04256 3.70302 2.1453C3.51317 2.24805 3.35016 2.39403 3.22717 2.57144L0.887175 5.81144C0.713419 6.05698 0.626643 6.35351 0.640619 6.65399C0.654594 6.95446 0.76852 7.24166 0.964317 7.47001L7.98432 15.5572C8.1045 15.712 8.2585 15.8373 8.43454 15.9236C8.61058 16.0098 8.80401 16.0546 9.00003 16.0546C9.19605 16.0546 9.38948 16.0098 9.56552 15.9236C9.74156 15.8373 9.89556 15.712 10.0157 15.5572L17.0357 7.47001C17.2315 7.24166 17.3455 6.95446 17.3594 6.65399C17.3734 6.35351 17.2866 6.05698 17.1129 5.81144L14.7729 2.57144C14.6499 2.39403 14.4869 2.24805 14.297 2.1453C14.1072 2.04256 13.8958 1.98594 13.68 1.98001Z" stroke="#223241" stroke-linecap="round" stroke-linejoin="round"/>
    <path d="M8.33144 1.96715L5.19429 6.82715L9.00001 16.02L12.8314 6.82715L9.70715 1.96715M0.668579 6.82715H17.3314" stroke="#223241" stroke-linecap="round" stroke-linejoin="round"/>
</svg>
