<svg width="32" height="32" viewBox="0 0 32 32" fill="none" xmlns="http://www.w3.org/2000/svg">
<path fill-rule="evenodd" clip-rule="evenodd" d="M6.58577 5.58579C6.58577 5.58579 7.17156 5 7.99998 5H24C24 5 24.8284 5 25.4142 5.58579C25.4142 5.58579 26 6.17157 26 7V14C26 14 26 15.9982 25.2322 17.8429C25.2322 17.8429 24.4644 19.6877 23.0465 21.0957C23.0465 21.0957 21.6287 22.5037 19.7787 23.2588C19.7787 23.2588 17.9287 24.0139 15.9299 24C15.9299 24 13.8986 23.9846 12.0466 23.1744C12.0466 23.1744 10.2645 22.3947 8.89229 20.9892C8.89229 20.9892 7.52505 19.5889 6.7751 17.7832C6.7751 17.7832 5.99998 15.9168 5.99998 13.8875V7C5.99998 7 5.99998 6.17157 6.58577 5.58579ZM7.99998 7V13.8875C7.99998 13.8875 7.99998 17.2125 10.3233 19.592C10.3233 19.592 12.6501 21.9751 15.945 22C15.945 22 17.5429 22.0111 19.023 21.4071C19.023 21.4071 20.503 20.803 21.6372 19.6766C21.6372 19.6766 22.7715 18.5502 23.3858 17.0744C23.3858 17.0744 24 15.5986 24 14V7L7.99998 7Z" fill="black"/>
<path d="M12 29H20C20.5523 29 21 28.5523 21 28C21 27.4477 20.5523 27 20 27H12C11.4477 27 11 27.4477 11 28C11 28.5523 11.4477 29 12 29Z" fill="black"/>
<path d="M15 23V28C15 28.5523 15.4477 29 16 29C16.5523 29 17 28.5523 17 28V23C17 22.4477 16.5523 22 16 22C15.4477 22 15 22.4477 15 23Z" fill="black"/>
<path d="M29 8H25C24.4477 8 24 8.44772 24 9C24 9.55228 24.4477 10 25 10H29V12C29 13.2426 28.1213 14.1213 28.1213 14.1213C27.2426 15 26 15 26 15H24.775C24.2227 15 23.775 15.4477 23.775 16C23.775 16.5523 24.2227 17 24.775 17H26C28.071 17 29.5355 15.5355 29.5355 15.5355C31 14.0711 31 12 31 12V10C31 9.17157 30.4142 8.58579 30.4142 8.58579C29.8284 8 29 8 29 8Z" fill="black"/>
<path d="M2.98749 10H6.98749C7.53977 10 7.98749 9.55228 7.98749 9C7.98749 8.44772 7.53977 8 6.98749 8H2.98749C2.15906 8 1.57327 8.58579 1.57327 8.58579C0.987488 9.17157 0.987488 10 0.987488 10V12C0.987488 14.0711 2.45195 15.5355 2.45195 15.5355C3.91642 17 5.98749 17 5.98749 17H7.24999C7.80227 17 8.24999 16.5523 8.24999 16C8.24999 15.4477 7.80227 15 7.24999 15H5.98749C4.74485 15 3.86617 14.1213 3.86617 14.1213C2.98749 13.2426 2.98749 12 2.98749 12V10Z" fill="black"/>
</svg>
