<svg width="33" height="33" viewBox="0 0 33 33" fill="none" xmlns="http://www.w3.org/2000/svg">
<g filter="url(#filter0_d)">
<path d="M16.1437 1L2.13391 12.6594V28.0979C2.13391 28.9736 2.8252 29.6648 3.7008 29.6648H28.6327C29.5083 29.6648 30.1995 28.9735 30.1995 28.0979V12.6594L16.1437 1ZM26.6971 24.9642C27.0658 25.3328 27.0658 25.978 26.6971 26.3928C26.5128 26.5771 26.2362 26.6693 26.0058 26.6693C25.7754 26.6693 25.4989 26.5771 25.3145 26.3928L19.2313 20.3556L16.1435 22.9364L13.0558 20.3556L7.01859 26.3928C6.64991 26.7615 6.00472 26.7615 5.58994 26.3928C5.22126 26.0241 5.22126 25.3789 5.58994 24.9642L11.5348 19.0653L4.39159 13.1204L16.1433 3.3504L27.895 13.1204L20.7518 19.0653L26.6971 24.9642Z" fill="white"/>
<path d="M23.6093 11.9224V14.5953L16.1437 20.7709L8.6781 14.5953V11.9224H23.6093Z" fill="white"/>
</g>
<defs>
<filter id="filter0_d" x="0.133911" y="0" width="32.0656" height="32.6648" filterUnits="userSpaceOnUse" color-interpolation-filters="sRGB">
<feFlood flood-opacity="0" result="BackgroundImageFix"/>
<feColorMatrix in="SourceAlpha" type="matrix" values="0 0 0 0 0 0 0 0 0 0 0 0 0 0 0 0 0 0 127 0"/>
<feOffset dy="1"/>
<feGaussianBlur stdDeviation="1"/>
<feColorMatrix type="matrix" values="0 0 0 0 0 0 0 0 0 0 0 0 0 0 0 0 0 0 0.25 0"/>
<feBlend mode="normal" in2="BackgroundImageFix" result="effect1_dropShadow"/>
<feBlend mode="normal" in="SourceGraphic" in2="effect1_dropShadow" result="shape"/>
</filter>
</defs>
</svg>
