<svg width="33" height="32" viewBox="0 0 33 32" fill="none" xmlns="http://www.w3.org/2000/svg">
<path d="M21.02 6.94663L22.9 10.7066C23.1533 11.2266 23.8333 11.7199 24.4067 11.8266L27.8067 12.3866C29.98 12.7466 30.4867 14.3199 28.9267 15.8933L26.2733 18.5466C25.8333 18.9866 25.58 19.8533 25.7267 20.48L26.4866 23.76C27.0866 26.3466 25.7 27.36 23.42 26L20.2333 24.1066C19.66 23.76 18.7 23.76 18.1267 24.1066L14.94 26C12.66 27.3466 11.2733 26.3466 11.8733 23.76L12.6333 20.48C12.78 19.8666 12.5267 19 12.0867 18.5466L9.43334 15.8933C7.87334 14.3333 8.38001 12.7599 10.5533 12.3866L13.9533 11.8266C14.5267 11.7333 15.2067 11.2266 15.46 10.7066L17.34 6.94663C18.34 4.90663 19.9933 4.90663 21.02 6.94663Z" stroke="white" stroke-width="2" stroke-linecap="round" stroke-linejoin="round"/>
<path d="M11.1667 6.66663H3.16669" stroke="white" stroke-width="2" stroke-linecap="round" stroke-linejoin="round"/>
<path d="M7.16669 25.3334H3.16669" stroke="white" stroke-width="2" stroke-linecap="round" stroke-linejoin="round"/>
<path d="M4.50002 16H3.16669" stroke="white" stroke-width="2" stroke-linecap="round" stroke-linejoin="round"/>
</svg>
