<svg width="32" height="32" viewBox="0 0 32 32" fill="none" xmlns="http://www.w3.org/2000/svg">
<path d="M25.3334 12C25.3334 13.9333 24.76 15.7066 23.7734 17.1866C22.3334 19.32 20.0534 20.8266 17.4 21.2133C16.9467 21.2933 16.48 21.3333 16 21.3333C15.52 21.3333 15.0534 21.2933 14.6 21.2133C11.9467 20.8266 9.66669 19.32 8.22669 17.1866C7.24002 15.7066 6.66669 13.9333 6.66669 12C6.66669 6.83996 10.84 2.66663 16 2.66663C21.16 2.66663 25.3334 6.83996 25.3334 12Z" stroke="black" stroke-width="2" stroke-linecap="round" stroke-linejoin="round"/>
<path d="M21 12C21 13.0357 20.6929 13.9857 20.1643 14.7786C19.3929 15.9214 18.1714 16.7286 16.75 16.9357C16.5071 16.9786 16.2571 17 16 17C15.7429 17 15.4929 16.9786 15.25 16.9357C13.8286 16.7286 12.6071 15.9214 11.8357 14.7786C11.3071 13.9857 11 13.0357 11 12C11 9.23571 13.2357 7 16 7C18.7643 7 21 9.23571 21 12Z" stroke="black" stroke-width="2" stroke-linecap="round" stroke-linejoin="round"/>
<path d="M28.3333 24.6266L26.1333 25.1466C25.64 25.2666 25.2533 25.64 25.1467 26.1333L24.68 28.0933C24.4267 29.16 23.0667 29.48 22.36 28.64L16 21.3333L9.64 28.6533C8.93334 29.4933 7.57334 29.1733 7.32 28.1066L6.85334 26.1466C6.73334 25.6533 6.34667 25.2666 5.86667 25.16L3.66667 24.64C2.65334 24.4 2.29334 23.1333 3.02667 22.3999L8.22667 17.2C9.66667 19.3333 11.9467 20.84 14.6 21.2266C15.0533 21.3066 15.52 21.3466 16 21.3466C16.48 21.3466 16.9467 21.3066 17.4 21.2266C20.0533 20.84 22.3333 19.3333 23.7733 17.2L28.9733 22.3999C29.7067 23.1199 29.3467 24.3866 28.3333 24.6266Z" stroke="black" stroke-width="2" stroke-linecap="round" stroke-linejoin="round"/>
</svg>
