<svg width="26" height="26" viewBox="0 0 26 26" fill="none" xmlns="http://www.w3.org/2000/svg">
<path fill-rule="evenodd" clip-rule="evenodd" d="M17.9487 24.8938C17.9487 24.8938 15.5797 25.875 13.0156 25.875L2.1625 25.8749C2.1625 25.8749 1.75561 25.8803 1.37863 25.7271C1.37863 25.7271 1.00165 25.5738 0.713913 25.2861C0.713913 25.2861 0.426173 24.9983 0.272945 24.6214C0.272945 24.6214 0.119713 24.2444 0.125012 23.8512L0.125013 12.9844C0.125013 12.9844 0.125013 10.4203 1.10625 8.05135C1.10625 8.05135 2.08749 5.68242 3.90059 3.86933C3.90059 3.86933 5.71368 2.05623 8.08261 1.07499C8.08261 1.07499 10.4515 0.09375 13.0156 0.09375C13.0156 0.09375 15.5797 0.09375 17.9487 1.07499C17.9487 1.07499 20.3176 2.05623 22.1307 3.86933C22.1307 3.86933 23.9438 5.68243 24.925 8.05135C24.925 8.05135 25.9063 10.4203 25.9063 12.9844V12.9872C25.9063 12.9872 25.9057 15.5498 24.925 17.9174C24.925 17.9174 23.9438 20.2863 22.1307 22.0994C22.1307 22.0994 20.3176 23.9125 17.9487 24.8938ZM13.0156 2.15625C13.0156 2.15625 10.8618 2.15625 8.87189 2.98049C8.87189 2.98049 6.882 3.80473 5.359 5.32773C5.359 5.32773 3.836 6.85073 3.01175 8.84063C3.01175 8.84063 2.18751 10.8305 2.18751 12.9844L2.18751 23.8126L13.0156 23.8125C13.0156 23.8125 15.1695 23.8125 17.1594 22.9883C17.1594 22.9883 19.1493 22.164 20.6723 20.641C20.6723 20.641 22.1953 19.118 23.0195 17.1281C23.0195 17.1281 23.8438 15.1382 23.8438 12.9844C23.8438 12.9844 23.8438 10.8305 23.0195 8.84063C23.0195 8.84063 22.1953 6.85074 20.6723 5.32773C20.6723 5.32773 19.1493 3.80474 17.1594 2.98049C17.1594 2.98049 15.1693 2.15632 13.0156 2.15625Z" fill="white"/>
<path d="M14.5625 13.5C14.5625 14.3543 13.8699 15.0469 13.0156 15.0469C12.1614 15.0469 11.4688 14.3543 11.4688 13.5C11.4688 12.6457 12.1614 11.9531 13.0156 11.9531C13.8699 11.9531 14.5625 12.6457 14.5625 13.5Z" fill="white"/>
<path d="M8.37502 13.5C8.37502 14.3543 7.6824 15.0469 6.82815 15.0469C5.97389 15.0469 5.28127 14.3543 5.28127 13.5C5.28127 12.6457 5.97389 11.9531 6.82815 11.9531C7.6824 11.9531 8.37502 12.6457 8.37502 13.5Z" fill="white"/>
<path d="M20.75 13.5C20.75 14.3543 20.0574 15.0469 19.2031 15.0469C18.3489 15.0469 17.6563 14.3543 17.6563 13.5C17.6563 12.6457 18.3489 11.9531 19.2031 11.9531C20.0574 11.9531 20.75 12.6457 20.75 13.5Z" fill="white"/>
</svg>
