<svg width="36" height="36" viewBox="0 0 36 36" fill="none" xmlns="http://www.w3.org/2000/svg">
<g filter="url(#filter0_d)">
<path d="M8.69791 15.4872H9.524C10.7419 18.17 13.1579 20.117 16.0384 20.7399V23.7999H13.7567C13.0528 23.7999 12.4817 24.371 12.4817 25.0749V26.7483H11.3435C11.123 26.7443 10.9105 26.832 10.7551 26.9874C10.5997 27.1441 10.5161 27.3566 10.52 27.5771V31.9254C10.52 32.3743 10.8839 32.7382 11.3328 32.7382H24.654C24.8718 32.7421 25.0817 32.6585 25.2371 32.5057C25.3925 32.353 25.4801 32.1432 25.4801 31.9254V27.5771C25.4801 27.1282 25.1162 26.7643 24.6673 26.7643H23.5185V25.0922C23.5185 24.7535 23.3843 24.4294 23.1453 24.1904C22.9062 23.9513 22.5808 23.8172 22.2435 23.8172H19.9618V20.7399C22.8425 20.117 25.2583 18.17 26.4762 15.4872H27.3023C28.9903 15.4872 30.6093 14.8165 31.8018 13.6225C32.9945 12.4286 33.6652 10.8096 33.6639 9.12162V5.25684C33.6639 4.69373 33.207 4.23684 32.6439 4.23684H27.3021V2.28184C27.3021 1.71873 26.8452 1.26184 26.2821 1.26184H9.71394C9.15083 1.26184 8.69394 1.71873 8.69394 2.28184V4.24082L3.35356 4.23949C2.78909 4.23949 2.33356 4.69638 2.33356 5.25949V9.12155C2.33223 10.8109 3.00295 12.4299 4.1956 13.6238C5.38958 14.8178 7.00988 15.4872 8.69788 15.4872L8.69791 15.4872ZM27.3024 11.6554V7.45983H30.4447V9.12263V9.1213C30.4421 10.8558 29.0369 12.2623 27.3024 12.2636H27.2824C27.2917 12.0631 27.3024 11.8586 27.3024 11.6554V11.6554ZM14.0223 8.81323L16.3173 8.47323C16.4461 8.45331 16.5577 8.37229 16.6161 8.25542L17.6361 6.17822C17.7025 6.04143 17.842 5.9551 17.9934 5.9551C18.1448 5.9551 18.2829 6.04143 18.3507 6.17822L19.3707 8.25542C19.4278 8.37229 19.5393 8.45331 19.6695 8.47323L21.9645 8.81323C22.1146 8.83315 22.2408 8.9394 22.2872 9.08417C22.3337 9.22761 22.2952 9.38698 22.185 9.49322L20.5262 11.1122V11.1109C20.4358 11.1999 20.3933 11.326 20.4106 11.4509L20.8011 13.7353C20.8263 13.8853 20.7652 14.0354 20.643 14.1244C20.5195 14.2134 20.3575 14.2253 20.2233 14.1536L18.1833 13.0752V13.0765C18.0678 13.0154 17.9296 13.0154 17.8128 13.0765L15.7728 14.1549V14.1536C15.6386 14.2253 15.4766 14.2134 15.3544 14.1244C15.2309 14.0354 15.1698 13.8853 15.195 13.7353L15.5855 11.4509C15.6041 11.326 15.5603 11.1999 15.47 11.1109L13.8111 9.4919V9.49322C13.7022 9.3883 13.661 9.23158 13.7062 9.08682C13.7514 8.94339 13.8736 8.83714 14.0223 8.81323L14.0223 8.81323ZM5.55699 7.45323H8.69801V11.6553C8.69801 11.8598 8.69801 12.063 8.71793 12.2636H8.69801C6.96346 12.2623 5.55831 10.8558 5.55566 9.12124L5.55699 7.45323Z" fill="white"/>
</g>
<defs>
<filter id="filter0_d" x="-1" y="-1" width="38" height="38" filterUnits="userSpaceOnUse" color-interpolation-filters="sRGB">
<feFlood flood-opacity="0" result="BackgroundImageFix"/>
<feColorMatrix in="SourceAlpha" type="matrix" values="0 0 0 0 0 0 0 0 0 0 0 0 0 0 0 0 0 0 127 0"/>
<feOffset dy="1"/>
<feGaussianBlur stdDeviation="1"/>
<feColorMatrix type="matrix" values="0 0 0 0 0 0 0 0 0 0 0 0 0 0 0 0 0 0 0.25 0"/>
<feBlend mode="normal" in2="BackgroundImageFix" result="effect1_dropShadow"/>
<feBlend mode="normal" in="SourceGraphic" in2="effect1_dropShadow" result="shape"/>
</filter>
</defs>
</svg>
