<svg width="16" height="16" viewBox="0 0 16 16" fill="none" xmlns="http://www.w3.org/2000/svg">
<path d="M7.99998 1.33337C4.32665 1.33337 1.33331 4.32671 1.33331 8.00004C1.33331 11.6734 4.32665 14.6667 7.99998 14.6667C11.6733 14.6667 14.6666 11.6734 14.6666 8.00004C14.6666 4.32671 11.6733 1.33337 7.99998 1.33337ZM10.9 10.38C10.8066 10.54 10.64 10.6267 10.4666 10.6267C10.38 10.6267 10.2933 10.6067 10.2133 10.5534L8.14665 9.32004C7.63331 9.01337 7.25331 8.34004 7.25331 7.74671V5.01337C7.25331 4.74004 7.47998 4.51337 7.75331 4.51337C8.02665 4.51337 8.25331 4.74004 8.25331 5.01337V7.74671C8.25331 7.98671 8.45331 8.34004 8.65998 8.46004L10.7266 9.69337C10.9666 9.83337 11.0466 10.14 10.9 10.38Z" fill="#406A8C"/>
</svg>
