<?xml version="1.0" encoding="utf-8"?>
<!-- Generator: Adobe Illustrator 16.0.0, SVG Export Plug-In . SVG Version: 6.00 Build 0)  -->
<!DOCTYPE svg PUBLIC "-//W3C//DTD SVG 1.1//EN" "http://www.w3.org/Graphics/SVG/1.1/DTD/svg11.dtd">
<svg version="1.1" id="Layer_1" xmlns="http://www.w3.org/2000/svg" xmlns:xlink="http://www.w3.org/1999/xlink" x="0px" y="0px"
	 width="38px" height="38px" viewBox="0 0 38 38" enable-background="new 0 0 38 38" xml:space="preserve">
<circle fill="#C4C4C4" cx="19" cy="19" r="17.667"/>
<path fill="#828282" d="M19,0c10.477,0,19,8.522,19,19s-8.523,19-19,19S0,29.478,0,19S8.523,0,19,0z M24.205,11.545L19,16.752
	l-5.206-5.208c-0.621-0.621-1.627-0.622-2.249,0c-0.62,0.621-0.62,1.627,0,2.248L16.753,19l-5.208,5.206
	c-0.62,0.622-0.62,1.628,0,2.249c0.622,0.622,1.627,0.621,2.249,0L19,21.248l5.205,5.207c0.621,0.621,1.629,0.621,2.25,0
	c0.621-0.622,0.619-1.629,0-2.249L21.247,19l5.208-5.206c0.619-0.621,0.621-1.627,0-2.249
	C25.834,10.924,24.826,10.924,24.205,11.545z"/>
</svg>
