<svg width="64" height="79" viewBox="0 0 64 79" fill="none" xmlns="http://www.w3.org/2000/svg">
<g filter="url(#filter0_d_585_59619)">
<path d="M53.774 42.0749C47.9904 59.7295 33.1773 70.7768 20.6958 66.7596C8.21428 62.7424 2.78888 45.1785 8.57242 27.5315C14.3636 9.87689 29.1692 -1.17797 41.643 2.83923C54.1245 6.85644 59.5575 24.4204 53.7664 42.0749H53.774Z" fill="#BB8226"/>
<path d="M47.5105 40.0586C41.727 57.7132 26.9214 68.7605 14.4399 64.7433C1.95843 60.7261 -3.46698 43.1621 2.31656 25.5076C8.10011 7.86055 22.9057 -3.19431 35.3948 0.822896C47.8763 4.8401 53.3017 22.404 47.5181 40.0511L47.5105 40.0586Z" fill="#FFD400"/>
<path d="M17.145 56.4825C7.88679 53.4998 3.86345 40.4741 8.15349 27.388C12.4435 14.3018 23.4239 6.10131 32.6821 9.08401C41.9327 12.0592 45.9637 25.0924 41.666 38.1785C37.376 51.2647 26.3957 59.4652 17.145 56.4825Z" fill="#EEA62C"/>
<path d="M7.64289 29.6156C11.8796 16.6956 23.0352 8.36666 32.1639 11.3116C40.3325 13.9394 44.4701 24.813 42.2222 36.3285C45.5674 23.8842 41.4983 11.9232 32.6821 9.08401C23.4238 6.10131 12.4435 14.3018 8.15343 27.388C7.68861 28.8076 7.33047 30.2196 7.05615 31.6242C7.23141 30.9521 7.42191 30.2876 7.64289 29.6156Z" fill="#BB8226"/>
</g>
<defs>
<filter id="filter0_d_585_59619" x="0.00146484" y="-0.00143433" width="65.0835" height="81.5858" filterUnits="userSpaceOnUse" color-interpolation-filters="sRGB">
<feFlood flood-opacity="0" result="BackgroundImageFix"/>
<feColorMatrix in="SourceAlpha" type="matrix" values="0 0 0 0 0 0 0 0 0 0 0 0 0 0 0 0 0 0 127 0" result="hardAlpha"/>
<feOffset dx="7" dy="12"/>
<feGaussianBlur stdDeviation="1"/>
<feColorMatrix type="matrix" values="0 0 0 0 0 0 0 0 0 0 0 0 0 0 0 0 0 0 0.09 0"/>
<feBlend mode="normal" in2="BackgroundImageFix" result="effect1_dropShadow_585_59619"/>
<feBlend mode="normal" in="SourceGraphic" in2="effect1_dropShadow_585_59619" result="shape"/>
</filter>
</defs>
</svg>
