<svg width="29" height="19" viewBox="0 0 29 19" fill="none" xmlns="http://www.w3.org/2000/svg">
<g clip-path="url(#clip0_204_12265)">
<path fill-rule="evenodd" clip-rule="evenodd" d="M22.6557 11.6843C20.7973 11.2603 17.294 11.1997 16.7386 12.0176C16.2559 12.7792 15.7304 13.4456 15.1622 13.9389C17.0804 13.4499 17.6572 12.6191 19.1524 12.4373C20.4512 12.2815 21.7286 12.1431 22.6557 11.6843Z" fill="url(#paint0_radial_204_12265)"/>
<path opacity="0.75" fill-rule="evenodd" clip-rule="evenodd" d="M16.9352 12.5109C18.157 11.8272 21.2501 11.8748 22.66 11.6801C20.8015 11.256 17.2983 11.1954 16.7429 12.0133C16.2601 12.7749 15.7347 13.4413 15.1664 13.9347C15.7261 13.5019 16.3669 12.8312 16.9352 12.5109Z" fill="url(#paint1_radial_204_12265)"/>
<path fill-rule="evenodd" clip-rule="evenodd" d="M16.5464 12.3162C16.8668 11.8272 20.2547 11.5503 21.0023 11.494C22.5403 11.3772 24.0826 11.256 25.4412 10.1698C25.7232 9.93614 25.988 9.68082 26.2358 9.39954C25.548 9.4731 24.8559 9.52936 24.1681 9.61591C22.6941 9.80199 21.1006 10.0054 19.6395 10.2607C18.3621 10.4857 17.529 10.6978 17.1146 11.3902C16.9864 11.6109 16.6788 12.1042 16.5464 12.3119V12.3162Z" fill="url(#paint2_radial_204_12265)"/>
<path opacity="0.75" fill-rule="evenodd" clip-rule="evenodd" d="M18.2766 11.1305C21.028 10.6026 23.6426 10.9704 26.2358 9.39954C25.548 9.4731 24.8559 9.52936 24.1681 9.61591C22.6941 9.80199 21.1006 10.0054 19.6395 10.2607C18.3621 10.4857 17.529 10.6978 17.1146 11.3902C16.9864 11.6109 16.6788 12.1042 16.5464 12.3119C16.5549 12.2946 16.572 12.2816 16.5848 12.2643C17.1103 11.6585 17.4222 11.2906 18.2766 11.1262V11.1305Z" fill="url(#paint3_radial_204_12265)"/>
<path fill-rule="evenodd" clip-rule="evenodd" d="M17.0804 11.4507C17.4393 10.8535 18.4347 10.5506 19.6138 10.3472C20.9553 10.1135 22.3993 9.98805 23.7237 9.74139C26.2102 9.27835 27.0176 8.69848 27.9105 6.50879C26.8382 7.03241 25.6847 7.3613 24.4927 7.65123C22.7924 8.06234 18.5671 8.6076 17.7938 10.1135C17.5674 10.5766 17.3324 11.0266 17.0847 11.4551L17.0804 11.4507Z" fill="url(#paint4_radial_204_12265)"/>
<path fill-rule="evenodd" clip-rule="evenodd" d="M18.3962 10.0097C19.7334 9.32163 22.4805 9.04467 24.0399 8.73309C25.8727 8.36093 26.8809 7.86328 27.9063 6.50879C26.8339 7.03241 25.6804 7.3613 24.4885 7.65123C22.7881 8.06234 18.5629 8.6076 17.7896 10.1135C17.5631 10.5766 17.3282 11.0266 17.0804 11.4551C17.0975 11.4248 17.1188 11.3945 17.1402 11.3685C17.4606 10.8968 17.9177 10.2607 18.3962 10.0183V10.0097Z" fill="url(#paint5_radial_204_12265)"/>
<path fill-rule="evenodd" clip-rule="evenodd" d="M17.6486 10.3948C18.2254 9.30433 20.2974 8.78937 23.4546 8.14458C26.1119 7.59932 27.8935 6.6819 28.4788 4.16333C26.5007 5.23654 24.3432 5.81641 22.2327 6.31407C20.0454 6.82904 18.9773 7.64259 18.298 9.03603C18.2467 9.1572 18.1912 9.27404 18.1357 9.39088C17.9819 9.72842 17.8195 10.066 17.6529 10.3948H17.6486Z" fill="url(#paint6_radial_204_12265)"/>
<path fill-rule="evenodd" clip-rule="evenodd" d="M21.1519 7.6123C24.1296 6.76412 26.7784 6.86798 28.4788 4.16333C26.5007 5.23654 24.3432 5.81641 22.2327 6.31407C20.0454 6.82904 18.9773 7.64259 18.298 9.03603C18.2467 9.1572 18.1912 9.27404 18.1357 9.39088C17.9819 9.72842 17.8195 10.066 17.6529 10.3948C17.6657 10.3689 17.6785 10.3472 17.6956 10.3213C18.5202 8.88457 19.5498 8.07101 21.1561 7.6123H21.1519Z" fill="url(#paint7_radial_204_12265)"/>
<path fill-rule="evenodd" clip-rule="evenodd" d="M18.157 9.32591C19.1824 7.32663 21.2117 6.67752 23.3948 6.13226C24.3475 5.89425 25.296 5.63893 26.1718 5.23648C27.4577 4.64362 28.2951 3.76082 28.624 1.93896C27.4663 2.53182 25.4284 3.09872 23.7921 3.48386C20.6905 4.21953 20.0454 4.81671 19.1268 7.06699C18.8235 7.80265 18.5031 8.57294 18.1613 9.32591H18.157Z" fill="url(#paint8_radial_204_12265)"/>
<path fill-rule="evenodd" clip-rule="evenodd" d="M18.6397 8.39118C19.8958 6.33132 20.6178 5.72981 22.9633 5.10233C25.7787 4.34935 27.4021 4.17193 28.624 1.93896C27.4662 2.53182 25.4283 3.09872 23.7921 3.48386C20.6904 4.21953 20.0453 4.81671 19.1268 7.06699C18.8235 7.80265 18.503 8.57294 18.1613 9.32591C18.3236 9.01001 18.4603 8.68978 18.644 8.39118H18.6397Z" fill="url(#paint9_radial_204_12265)"/>
<path fill-rule="evenodd" clip-rule="evenodd" d="M6.3443 11.6843C8.20273 11.2603 11.706 11.1997 12.2614 12.0176C12.7441 12.7792 13.2696 13.4456 13.8378 13.9389C11.9196 13.4499 11.3428 12.6191 9.84754 12.4373C8.54878 12.2815 7.27138 12.1431 6.3443 11.6843Z" fill="url(#paint10_radial_204_12265)"/>
<path opacity="0.75" fill-rule="evenodd" clip-rule="evenodd" d="M12.0691 12.5109C10.8472 11.8272 7.75414 11.8748 6.3443 11.6801C8.20273 11.256 11.706 11.1954 12.2614 12.0133C12.7441 12.7749 13.2696 13.4413 13.8378 13.9347C13.2782 13.5019 12.6373 12.8312 12.0691 12.5109Z" fill="url(#paint11_radial_204_12265)"/>
<path fill-rule="evenodd" clip-rule="evenodd" d="M12.4579 12.3162C12.1375 11.8272 8.74958 11.5503 8.00193 11.494C6.46392 11.3772 4.92164 11.256 3.56307 10.1698C3.2811 9.93614 3.01622 9.68082 2.76843 9.39954C3.45626 9.4731 4.14837 9.52936 4.8362 9.61591C6.31012 9.80199 7.90367 10.0054 9.36478 10.2607C10.6422 10.4857 11.4753 10.6978 11.8897 11.3902C12.0178 11.6109 12.3254 12.1042 12.4579 12.3119V12.3162Z" fill="url(#paint12_radial_204_12265)"/>
<path opacity="0.75" fill-rule="evenodd" clip-rule="evenodd" d="M10.7234 11.1305C7.97203 10.6026 5.35741 10.9704 2.76416 9.39954C3.45199 9.4731 4.1441 9.52936 4.83193 9.61591C6.30585 9.80199 7.8994 10.0054 9.36051 10.2607C10.6379 10.4857 11.471 10.6978 11.8854 11.3902C12.0136 11.6109 12.3212 12.1042 12.4536 12.3119C12.4451 12.2946 12.428 12.2816 12.4152 12.2643C11.8897 11.6585 11.5778 11.2906 10.7234 11.1262V11.1305Z" fill="url(#paint13_radial_204_12265)"/>
<path fill-rule="evenodd" clip-rule="evenodd" d="M11.9196 11.4507C11.5607 10.8535 10.5653 10.5506 9.39039 10.3472C8.0489 10.1135 6.60488 9.98805 5.28049 9.74139C2.79404 9.27835 1.98659 8.69848 1.09369 6.50879C2.16602 7.03241 3.31953 7.3613 4.51149 7.65123C6.21184 8.06234 10.4371 8.6076 11.2104 10.1135C11.4368 10.5766 11.6718 11.0266 11.9196 11.4551V11.4507Z" fill="url(#paint14_radial_204_12265)"/>
<path fill-rule="evenodd" clip-rule="evenodd" d="M10.6037 10.0097C9.26649 9.32163 6.51944 9.04467 4.96007 8.73309C3.12728 8.36093 2.11903 7.86328 1.09369 6.50879C2.16602 7.03241 3.31953 7.3613 4.51149 7.65123C6.21184 8.06234 10.4371 8.6076 11.2104 10.1135C11.4368 10.5766 11.6718 11.0266 11.9196 11.4551C11.9025 11.4248 11.8811 11.3945 11.8597 11.3685C11.5393 10.8968 11.0822 10.2607 10.6037 10.0183V10.0097Z" fill="url(#paint15_radial_204_12265)"/>
<path fill-rule="evenodd" clip-rule="evenodd" d="M11.3514 10.3948C10.7746 9.30433 8.70259 8.78937 5.5454 8.14458C2.89234 7.59932 1.11081 6.6819 0.525513 4.16333C2.50356 5.23654 4.66105 5.81641 6.77154 6.31407C8.95892 6.82904 10.027 7.64259 10.7063 9.03603C10.7575 9.1572 10.8131 9.27404 10.8686 9.39088C11.0224 9.72842 11.1848 10.066 11.3514 10.3948Z" fill="url(#paint16_radial_204_12265)"/>
<path fill-rule="evenodd" clip-rule="evenodd" d="M7.85241 7.6123C4.87466 6.76412 2.22587 6.86798 0.525513 4.16333C2.50356 5.23654 4.66105 5.81641 6.77154 6.31407C8.95892 6.82904 10.027 7.64259 10.7063 9.03603C10.7575 9.1572 10.8131 9.27404 10.8686 9.39088C11.0224 9.72842 11.1848 10.066 11.3514 10.3948C11.3386 10.3689 11.3257 10.3472 11.3087 10.3213C10.4841 8.88457 9.45451 8.07101 7.84814 7.6123H7.85241Z" fill="url(#paint17_radial_204_12265)"/>
<path fill-rule="evenodd" clip-rule="evenodd" d="M10.843 9.32591C9.81764 7.32663 7.78832 6.67752 5.6052 6.13226C4.65249 5.89425 3.70406 5.63893 2.82825 5.23648C1.5423 4.64362 0.704939 3.76082 0.375977 1.93896C1.53376 2.53182 3.57162 3.09872 5.20789 3.48386C8.30954 4.21953 8.95465 4.81671 9.87318 7.06699C10.1765 7.80265 10.4969 8.57294 10.8387 9.32591H10.843Z" fill="url(#paint18_radial_204_12265)"/>
<path fill-rule="evenodd" clip-rule="evenodd" d="M10.3645 8.39118C9.10845 6.33132 8.38644 5.72981 6.04097 5.10233C3.22129 4.35368 1.60211 4.17193 0.375977 1.93896C1.53376 2.53182 3.57162 3.09872 5.20789 3.48386C8.30954 4.21953 8.95465 4.81671 9.87318 7.06699C10.1765 7.80265 10.4969 8.57294 10.8387 9.32591C10.6764 9.01001 10.5396 8.68978 10.3559 8.39118H10.3645Z" fill="url(#paint19_radial_204_12265)"/>
</g>
<path d="M20.0385 18.5012C19.7023 18.5012 19.3461 18.4045 18.977 18.2147L16.295 16.8325C15.9296 16.6445 15.4053 16.537 14.8553 16.537C14.3054 16.537 13.7811 16.6445 13.4157 16.8325L10.7337 18.2147C10.3646 18.4045 10.0065 18.5012 9.6722 18.5012C9.22824 18.5012 8.83544 18.3293 8.56505 18.016C8.33485 17.7492 8.09004 17.2568 8.23437 16.435L8.74592 13.5093C8.89208 12.6731 8.47736 11.4198 7.85618 10.8271L5.68573 8.75374C4.88551 7.9892 4.95494 7.30523 5.06821 6.96503C5.18149 6.62484 5.53592 6.03039 6.63942 5.87462L9.63749 5.44848C10.4943 5.32673 11.5814 4.55144 11.9651 3.79048L13.3061 1.12801C13.7993 0.146821 14.4863 0 14.8517 0C15.2171 0 15.9022 0.146821 16.3973 1.12801L17.7383 3.79048C18.122 4.55144 19.209 5.32673 20.0659 5.44848L23.064 5.87462C24.1693 6.03218 24.5237 6.62663 24.6352 6.96503C24.7484 7.30523 24.8179 7.9892 24.0176 8.75374L21.849 10.8271C21.2297 11.4198 20.8131 12.6731 20.9593 13.5093L21.4708 16.435C21.6152 17.2568 21.3703 17.7474 21.1401 18.016C20.8716 18.3293 20.4788 18.5012 20.033 18.5012H20.0385Z" fill="url(#paint20_radial_204_12265)"/>
<path d="M24.2918 7.07614C24.2059 6.81473 23.9245 6.35815 23.0147 6.22923L20.0166 5.8031C19.041 5.66344 17.8498 4.81474 17.4132 3.94993L16.0722 1.28746C15.6648 0.479949 15.1349 0.359985 14.8554 0.359985C14.5759 0.359985 14.0442 0.479949 13.6386 1.28746L12.2976 3.94993C11.861 4.81653 10.6698 5.66523 9.69419 5.8031L6.69612 6.22923C5.78628 6.35815 5.50675 6.81652 5.41906 7.07614C5.33319 7.33755 5.28569 7.86933 5.9434 8.49779L8.11385 10.5712C8.81907 11.2444 9.27399 12.6177 9.10773 13.5703L8.59618 16.4959C8.4756 17.1817 8.6656 17.5756 8.84647 17.7851C9.04744 18.0197 9.33428 18.1432 9.67409 18.1432C9.94997 18.1432 10.2496 18.0608 10.5657 17.8979L13.2477 16.5156C13.6642 16.3008 14.2489 16.179 14.8572 16.179C15.4656 16.179 16.0503 16.3026 16.465 16.5156L19.147 17.8979C19.463 18.0608 19.7627 18.1432 20.0385 18.1432C20.3784 18.1432 20.6634 18.0197 20.8662 17.7851C21.047 17.5756 21.237 17.1817 21.1165 16.4959L20.6049 13.5703C20.4387 12.6177 20.8936 11.2444 21.5988 10.5712L23.7674 8.49779C24.4251 7.86933 24.3776 7.33755 24.2918 7.07614Z" fill="url(#paint21_radial_204_12265)"/>
<path d="M14.0679 1.69028C14.0679 1.69028 13.0795 3.77978 12.641 5.12982C12.2025 6.47985 15.2006 3.12267 15.2207 1.96064C15.2426 0.798608 14.5137 0.710873 14.0679 1.69207V1.69028Z" fill="white"/>
<path d="M12.285 6.35822C12.285 6.54443 12.1315 6.69483 11.9415 6.69483C11.7515 6.69483 11.598 6.54443 11.598 6.35822C11.598 6.17201 11.7515 6.02161 11.9415 6.02161C12.1315 6.02161 12.285 6.17201 12.285 6.35822Z" fill="white"/>
<path d="M13.1655 15.7529C13.2569 15.9319 12.0748 16.607 11.936 16.6768C11.4244 16.9328 10.3063 17.4897 10.0231 17.1889C9.73992 16.8881 13.0742 15.5738 13.1655 15.7529Z" fill="#FFE000"/>
<path d="M23.2303 7.51651C22.9873 8.11275 21.734 9.37505 21.3431 9.90324C20.9521 10.4314 23.4934 8.68033 23.7327 7.99637C23.9721 7.3124 23.4751 6.91849 23.2303 7.51472V7.51651Z" fill="#FFED1D"/>
<path d="M13.9859 15.5882C13.9859 15.7028 13.8909 15.7959 13.7739 15.7959C13.657 15.7959 13.562 15.7028 13.562 15.5882C13.562 15.4736 13.657 15.3805 13.7739 15.3805C13.8909 15.3805 13.9859 15.4736 13.9859 15.5882Z" fill="#FFE000"/>
<path d="M17.7585 16.1233C17.9394 16.1967 18.1568 16.3292 18.2153 16.3579C18.809 16.6551 19.3864 16.7894 20.0185 16.9881C20.2706 17.0687 20.6415 17.3892 20.3035 17.6041C19.8413 17.8977 19.2146 17.5271 18.7999 17.3176C18.4345 17.1349 18.1897 16.972 17.7805 16.6372C17.3712 16.3024 17.2853 15.9317 17.7604 16.1215L17.7585 16.1233Z" fill="#FFE000"/>
<defs>
<radialGradient id="paint0_radial_204_12265" cx="0" cy="0" r="1" gradientUnits="userSpaceOnUse" gradientTransform="translate(20.2205 8.20076) scale(7.7114 7.81103)">
<stop stop-color="#A6C9E6"/>
<stop offset="1" stop-color="#79ADF2"/>
</radialGradient>
<radialGradient id="paint1_radial_204_12265" cx="0" cy="0" r="1" gradientUnits="userSpaceOnUse" gradientTransform="translate(24.0741 8.46046) scale(9.78344 9.90984)">
<stop stop-color="#EBF6FF"/>
<stop offset="1" stop-color="#9BC6FF"/>
</radialGradient>
<radialGradient id="paint2_radial_204_12265" cx="0" cy="0" r="1" gradientUnits="userSpaceOnUse" gradientTransform="translate(23.6084 6.11068) scale(9.04862 9.16552)">
<stop stop-color="#A6C9E6"/>
<stop offset="1" stop-color="#79ADF2"/>
</radialGradient>
<radialGradient id="paint3_radial_204_12265" cx="0" cy="0" r="1" gradientUnits="userSpaceOnUse" gradientTransform="translate(23.6084 5.14999) scale(9.01017 9.12658)">
<stop stop-color="#EBF6FF"/>
<stop offset="1" stop-color="#9BC6FF"/>
</radialGradient>
<radialGradient id="paint4_radial_204_12265" cx="0" cy="0" r="1" gradientUnits="userSpaceOnUse" gradientTransform="translate(24.9669 4.44893) scale(9.14688 9.26505)">
<stop stop-color="#A6C9E6"/>
<stop offset="1" stop-color="#79ADF2"/>
</radialGradient>
<radialGradient id="paint5_radial_204_12265" cx="0" cy="0" r="1" gradientUnits="userSpaceOnUse" gradientTransform="translate(24.057 4.11571) scale(8.70684 8.81933)">
<stop stop-color="#EBF6FF"/>
<stop offset="1" stop-color="#9BC6FF"/>
</radialGradient>
<radialGradient id="paint6_radial_204_12265" cx="0" cy="0" r="1" gradientUnits="userSpaceOnUse" gradientTransform="translate(25.5694 2.12078) scale(10.9028 11.0436)">
<stop stop-color="#A6C9E6"/>
<stop offset="1" stop-color="#79ADF2"/>
</radialGradient>
<radialGradient id="paint7_radial_204_12265" cx="0" cy="0" r="1" gradientUnits="userSpaceOnUse" gradientTransform="translate(25.8257 2.38042) scale(8.54022 8.65056)">
<stop stop-color="#EBF6FF"/>
<stop offset="1" stop-color="#9BC6FF"/>
</radialGradient>
<radialGradient id="paint8_radial_204_12265" cx="0" cy="0" r="1" gradientUnits="userSpaceOnUse" gradientTransform="translate(26.2273 1.98657) scale(9.62537 9.74973)">
<stop stop-color="#A6C9E6"/>
<stop offset="1" stop-color="#79ADF2"/>
</radialGradient>
<radialGradient id="paint9_radial_204_12265" cx="0" cy="0" r="1" gradientUnits="userSpaceOnUse" gradientTransform="translate(25.2105 1.6923) scale(8.90336 9.01839)">
<stop stop-color="#EBF6FF"/>
<stop offset="1" stop-color="#9BC6FF"/>
</radialGradient>
<radialGradient id="paint10_radial_204_12265" cx="0" cy="0" r="1" gradientUnits="userSpaceOnUse" gradientTransform="translate(11.4026 2.15532) scale(7.7114 7.81103)">
<stop stop-color="#A6C9E6"/>
<stop offset="1" stop-color="#79ADF2"/>
</radialGradient>
<radialGradient id="paint11_radial_204_12265" cx="0" cy="0" r="1" gradientUnits="userSpaceOnUse" gradientTransform="translate(4.93019 2.15538) rotate(180) scale(9.78344 9.90984)">
<stop stop-color="#EBF6FF"/>
<stop offset="1" stop-color="#9BC6FF"/>
</radialGradient>
<radialGradient id="paint12_radial_204_12265" cx="0" cy="0" r="1" gradientUnits="userSpaceOnUse" gradientTransform="translate(9.83045 6.11068) scale(9.04862 9.16552)">
<stop stop-color="#A6C9E6"/>
<stop offset="1" stop-color="#79ADF2"/>
</radialGradient>
<radialGradient id="paint13_radial_204_12265" cx="0" cy="0" r="1" gradientUnits="userSpaceOnUse" gradientTransform="translate(5.39159 5.14999) rotate(180) scale(9.01017 9.12658)">
<stop stop-color="#EBF6FF"/>
<stop offset="1" stop-color="#9BC6FF"/>
</radialGradient>
<radialGradient id="paint14_radial_204_12265" cx="0" cy="0" r="1" gradientUnits="userSpaceOnUse" gradientTransform="translate(8.98025 4.44893) scale(9.14688 9.26505)">
<stop stop-color="#A6C9E6"/>
<stop offset="1" stop-color="#79ADF2"/>
</radialGradient>
<radialGradient id="paint15_radial_204_12265" cx="0" cy="0" r="1" gradientUnits="userSpaceOnUse" gradientTransform="translate(4.94298 4.11571) rotate(180) scale(8.70684 8.81933)">
<stop stop-color="#EBF6FF"/>
<stop offset="1" stop-color="#9BC6FF"/>
</radialGradient>
<radialGradient id="paint16_radial_204_12265" cx="0" cy="0" r="1" gradientUnits="userSpaceOnUse" gradientTransform="translate(8.44626 2.12078) scale(10.9028 11.0436)">
<stop stop-color="#A6C9E6"/>
<stop offset="1" stop-color="#79ADF2"/>
</radialGradient>
<radialGradient id="paint17_radial_204_12265" cx="0" cy="0" r="1" gradientUnits="userSpaceOnUse" gradientTransform="translate(3.1743 2.38042) rotate(180) scale(8.54022 8.65056)">
<stop stop-color="#EBF6FF"/>
<stop offset="1" stop-color="#9BC6FF"/>
</radialGradient>
<radialGradient id="paint18_radial_204_12265" cx="0" cy="0" r="1" gradientUnits="userSpaceOnUse" gradientTransform="translate(8.44625 1.98657) scale(9.62537 9.74973)">
<stop stop-color="#A6C9E6"/>
<stop offset="1" stop-color="#79ADF2"/>
</radialGradient>
<radialGradient id="paint19_radial_204_12265" cx="0" cy="0" r="1" gradientUnits="userSpaceOnUse" gradientTransform="translate(3.79377 1.6923) rotate(180) scale(8.90336 9.01839)">
<stop stop-color="#EBF6FF"/>
<stop offset="1" stop-color="#9BC6FF"/>
</radialGradient>
<radialGradient id="paint20_radial_204_12265" cx="0" cy="0" r="1" gradientUnits="userSpaceOnUse" gradientTransform="translate(14.7238 8.08588) scale(9.55875 9.36788)">
<stop stop-color="#978704"/>
<stop offset="0.28" stop-color="#968304"/>
<stop offset="0.54" stop-color="#AA8900"/>
<stop offset="0.79" stop-color="#705007"/>
<stop offset="1" stop-color="#603906"/>
</radialGradient>
<radialGradient id="paint21_radial_204_12265" cx="0" cy="0" r="1" gradientUnits="userSpaceOnUse" gradientTransform="translate(14.7293 8.13074) scale(9.19518 9.01157)">
<stop stop-color="#FFE400"/>
<stop offset="0.23" stop-color="#FFE000"/>
<stop offset="0.45" stop-color="#FFD400"/>
<stop offset="0.66" stop-color="#FFC200"/>
<stop offset="0.86" stop-color="#FFA700"/>
<stop offset="1" stop-color="#FF9200"/>
</radialGradient>
<clipPath id="clip0_204_12265">
<rect width="29" height="12" fill="white" transform="translate(0 1.93896)"/>
</clipPath>
</defs>
</svg>
