<?xml version="1.0" encoding="utf-8"?>
<!-- Generator: Adobe Illustrator 16.0.0, SVG Export Plug-In . SVG Version: 6.00 Build 0)  -->
<!DOCTYPE svg PUBLIC "-//W3C//DTD SVG 1.1//EN" "http://www.w3.org/Graphics/SVG/1.1/DTD/svg11.dtd">
<svg version="1.1" id="Layer_1" xmlns="http://www.w3.org/2000/svg" xmlns:xlink="http://www.w3.org/1999/xlink" x="0px" y="0px"
	 width="24px" height="24px" viewBox="0 0 24 24" enable-background="new 0 0 24 24" xml:space="preserve">
<path fill="#3A3A3A" d="M14.936,17.112c-0.506,1.958-5.655,2.103-5.292-0.507c0.217-1.74,0.58-3.408,0.87-5.148
	c0.146-1.087-0.58-0.725-1.16-0.942c-0.435-0.217-0.435-0.725,0.072-0.798c0.653-0.146,2.901-0.072,3.698-0.072
	c0.436,0,0.652,0.218,0.652,0.581c0.072,0.363,0,0.725-0.072,1.015c-0.289,1.667-0.725,3.408-0.87,5.003
	c-0.071,0.363,0,1.016,0.507,1.016c0.508-0.072,0.725-0.29,1.16-0.436c0.29-0.145,0.436,0.072,0.436,0.29V17.112z"/>
<path fill="#3A3A3A" d="M12.398,5.365c1.016,0,1.74,0.798,1.74,1.74c0,1.015-0.799,1.813-1.74,1.74c-0.942,0-1.74-0.798-1.74-1.74
	C10.658,6.163,11.456,5.365,12.398,5.365z"/>
<path fill="#3A3A3A" d="M11.963,0C18.634,0,24,5.365,24,11.963C24,18.634,18.635,24,11.963,24C5.365,24,0,18.635,0,11.963
	C0,5.365,5.365,0,11.963,0z M11.963,1.813c-5.583,0-10.151,4.568-10.151,10.151c0,5.656,4.569,10.151,10.151,10.151
	c5.656,0,10.152-4.494,10.152-10.151C22.115,6.381,17.619,1.813,11.963,1.813z"/>
</svg>
