<svg width="24" height="24" viewBox="0 0 24 24" fill="none" xmlns="http://www.w3.org/2000/svg">
<path fill-rule="evenodd" clip-rule="evenodd" d="M14.9361 17.1122C14.429 19.0697 9.28031 19.2151 9.64295 16.6051C9.86045 14.8651 10.2233 13.1973 10.5129 11.4573C10.6583 10.3698 9.93263 10.7326 9.35327 10.5151C8.91827 10.2976 8.91827 9.79042 9.42546 9.7173C10.078 9.57198 12.3261 9.64511 13.1229 9.64511C13.5579 9.64511 13.7754 9.86261 13.7754 10.2254C13.8476 10.5882 13.7754 10.9501 13.7032 11.2407C13.4135 12.9086 12.9785 14.6485 12.8332 16.2443C12.761 16.6071 12.8332 17.2596 13.3404 17.2596C13.8476 17.1874 14.0651 16.9699 14.5001 16.8246C14.7898 16.6793 14.9351 16.8968 14.9351 17.1143L14.9361 17.1122Z" fill="#F7F7F7"/>
<path fill-rule="evenodd" clip-rule="evenodd" d="M12.3983 5.36523C13.4136 5.36523 14.1383 6.16304 14.1383 7.10523C14.1383 8.12055 13.3405 8.91836 12.3983 8.84523C11.4561 8.84523 10.6583 8.04743 10.6583 7.10523C10.6583 6.16304 11.4561 5.36523 12.3983 5.36523Z" fill="#F7F7F7"/>
<path d="M11.9635 0C18.6338 0 24 5.3652 24 11.9635C24 18.6338 18.6348 24 11.9635 24C5.36544 24 0 18.6348 0 11.9635C0 5.36544 5.3652 0 11.9635 0ZM11.9635 1.81313C6.38064 1.81313 1.81224 6.38153 1.81224 11.9644C1.81224 17.6202 6.38064 22.1157 11.9635 22.1157C17.6194 22.1157 22.1148 17.6205 22.1148 11.9644C22.1148 6.38153 17.6196 1.81313 11.9635 1.81313Z" fill="#F7F7F7"/>
</svg>
