<svg width="26" height="20" viewBox="0 0 26 20" fill="none" xmlns="http://www.w3.org/2000/svg">
<path fill-rule="evenodd" clip-rule="evenodd" d="M2.47423 0C3.84056 0 4.94846 1.10512 4.94846 2.46858C4.94846 3.83151 3.84056 4.93663 2.47423 4.93663C1.10791 4.93663 0 3.83151 0 2.46858C0 1.10512 1.10791 0 2.47423 0Z" fill="#057D07"/>
<path fill-rule="evenodd" clip-rule="evenodd" d="M8.64851 0.929688C13.5874 0.929688 18.5257 0.929688 23.4646 0.929688C25.5159 0.929688 25.5159 4.01754 23.4646 4.01754C18.5257 4.01754 13.5874 4.01754 8.64851 4.01754C6.59714 4.01754 6.59714 0.929688 8.64851 0.929688Z" fill="#057D07"/>
<path fill-rule="evenodd" clip-rule="evenodd" d="M2.47423 7.0332C3.84056 7.0332 4.94846 8.13832 4.94846 9.50178C4.94846 10.8647 3.84056 11.9698 2.47423 11.9698C1.10791 11.9698 0 10.8647 0 9.50178C0 8.13832 1.10791 7.0332 2.47423 7.0332Z" fill="#057D07"/>
<path fill-rule="evenodd" clip-rule="evenodd" d="M8.64851 7.96143C13.5874 7.96143 18.5257 7.96143 23.4646 7.96143C25.5159 7.96143 25.5159 11.0493 23.4646 11.0493C18.5257 11.0493 13.5874 11.0493 8.64851 11.0493C6.59714 11.0493 6.59714 7.96143 8.64851 7.96143Z" fill="#057D07"/>
<path fill-rule="evenodd" clip-rule="evenodd" d="M2.47423 14.0649C3.84056 14.0649 4.94846 15.1701 4.94846 16.5335C4.94846 17.8964 3.84056 19.0016 2.47423 19.0016C1.10791 19.0016 0 17.8964 0 16.5335C0 15.1701 1.10791 14.0649 2.47423 14.0649Z" fill="#057D07"/>
<path fill-rule="evenodd" clip-rule="evenodd" d="M8.64851 14.9946C13.5874 14.9946 18.5257 14.9946 23.4646 14.9946C25.5159 14.9946 25.5159 18.0825 23.4646 18.0825C18.5257 18.0825 13.5874 18.0825 8.64851 18.0825C6.59714 18.0825 6.59714 14.9946 8.64851 14.9946Z" fill="#057D07"/>
</svg>
