<svg width="50" height="50" viewBox="0 0 50 50" fill="none" xmlns="http://www.w3.org/2000/svg">
<rect x="0.5" y="0.5" width="49" height="49" rx="4.5" stroke="#999999"/>
<path d="M23 32C22.7167 32 22.479 31.904 22.287 31.712C22.095 31.52 21.9993 31.2827 22 31C22 30.7167 22.096 30.479 22.288 30.287C22.48 30.095 22.7173 29.9993 23 30H33C33.2833 30 33.521 30.096 33.713 30.288C33.905 30.48 34.0007 30.7173 34 31C34 31.2833 33.904 31.521 33.712 31.713C33.52 31.905 33.2827 32.0007 33 32H23ZM23 26C22.7167 26 22.479 25.904 22.287 25.712C22.095 25.52 21.9993 25.2827 22 25C22 24.7167 22.096 24.479 22.288 24.287C22.48 24.095 22.7173 23.9993 23 24H33C33.2833 24 33.521 24.096 33.713 24.288C33.905 24.48 34.0007 24.7173 34 25C34 25.2833 33.904 25.521 33.712 25.713C33.52 25.905 33.2827 26.0007 33 26H23ZM23 20C22.7167 20 22.479 19.904 22.287 19.712C22.095 19.52 21.9993 19.2827 22 19C22 18.7167 22.096 18.479 22.288 18.287C22.48 18.095 22.7173 17.9993 23 18H33C33.2833 18 33.521 18.096 33.713 18.288C33.905 18.48 34.0007 18.7173 34 19C34 19.2833 33.904 19.521 33.712 19.713C33.52 19.905 33.2827 20.0007 33 20H23ZM18 33C17.45 33 16.979 32.804 16.587 32.412C16.195 32.02 15.9993 31.5493 16 31C16 30.45 16.196 29.979 16.588 29.587C16.98 29.195 17.4507 28.9993 18 29C18.55 29 19.021 29.196 19.413 29.588C19.805 29.98 20.0007 30.4507 20 31C20 31.55 19.804 32.021 19.412 32.413C19.02 32.805 18.5493 33.0007 18 33ZM18 27C17.45 27 16.979 26.804 16.587 26.412C16.195 26.02 15.9993 25.5493 16 25C16 24.45 16.196 23.979 16.588 23.587C16.98 23.195 17.4507 22.9993 18 23C18.55 23 19.021 23.196 19.413 23.588C19.805 23.98 20.0007 24.4507 20 25C20 25.55 19.804 26.021 19.412 26.413C19.02 26.805 18.5493 27.0007 18 27ZM18 21C17.45 21 16.979 20.804 16.587 20.412C16.195 20.02 15.9993 19.5493 16 19C16 18.45 16.196 17.979 16.588 17.587C16.98 17.195 17.4507 16.9993 18 17C18.55 17 19.021 17.196 19.413 17.588C19.805 17.98 20.0007 18.4507 20 19C20 19.55 19.804 20.021 19.412 20.413C19.02 20.805 18.5493 21.0007 18 21Z" fill="white"/>
</svg>
