<svg width="72" height="146" viewBox="0 60 72 27" fill="none" xmlns="http://www.w3.org/2000/svg">
<g id="rate">
<g id="Group">
<path id="Vector" d="M14.8433 25.7524C14.5115 25.6984 14.1754 25.5457 13.8416 25.2991L11.4165 23.504C11.086 23.2597 10.5858 23.0695 10.043 22.9811C9.50019 22.8928 8.9654 22.9146 8.57455 23.0415L5.70534 23.975C5.3106 24.103 4.94163 24.141 4.61164 24.0873C4.17344 24.0159 3.81335 23.7832 3.5968 23.4305C3.41245 23.1302 3.2499 22.6049 3.52437 21.8169L4.49923 19.0114C4.7778 18.2096 4.56978 16.9059 4.05187 16.2211L2.24265 13.826C1.57563 12.9429 1.75402 12.2789 1.92047 11.9614C2.08692 11.6438 2.53223 11.114 3.64642 11.1375L6.67401 11.1985C7.5393 11.2159 8.73677 10.6253 9.23768 9.93585L10.9889 7.52336C11.6334 6.63415 12.335 6.59957 12.6957 6.65827C13.0563 6.71696 13.709 6.97192 14.04 8.0199L14.936 10.8632C15.1924 11.6759 16.1408 12.6157 16.967 12.8735L19.8577 13.7757C20.9233 14.1088 21.1777 14.7525 21.2333 15.1044C21.2905 15.4583 21.2492 16.1446 20.3365 16.7707L17.863 18.4688C17.1565 18.9543 16.544 20.1244 16.554 20.9732L16.589 23.9431C16.5994 24.7774 16.279 25.2223 16.0086 25.4504C15.6932 25.7165 15.2779 25.8231 14.8379 25.7515L14.8433 25.7524Z" fill="url(#paint0_radial_310_14710)"/>
<g id="Vector_2">
<path d="M20.8764 15.1588C20.8337 14.887 20.6293 14.3912 19.752 14.1178L16.8613 13.2156C15.9208 12.921 14.8814 11.892 14.5893 10.9683L13.6934 8.12501C13.421 7.26254 12.9173 7.05903 12.6414 7.01413C12.3655 6.96923 11.8215 7.00224 11.2915 7.73412L9.54021 10.1466C8.97004 10.9318 7.65799 11.5782 6.6729 11.5575L3.64531 11.4966C2.72658 11.4777 2.37706 11.8852 2.2488 12.1273C2.12205 12.3716 1.98975 12.8888 2.53797 13.6147L4.3472 16.0099C4.93511 16.7876 5.16353 18.2162 4.84643 19.1296L3.87157 21.9352C3.6424 22.5926 3.76667 23.012 3.91154 23.2478C4.07222 23.5116 4.33549 23.6796 4.6709 23.7342C4.94319 23.7785 5.25215 23.7453 5.59029 23.6353L8.4595 22.7018C8.90515 22.5566 9.50175 22.5303 10.1022 22.6281C10.7027 22.7258 11.2599 22.9416 11.635 23.2185L14.0602 25.0137C14.346 25.2253 14.6285 25.3547 14.9008 25.399C15.2362 25.4536 15.5373 25.3774 15.7752 25.1785C15.9873 25.0008 16.2381 24.6425 16.2293 23.9463L16.1943 20.9764C16.1832 20.0095 16.8528 18.7271 17.657 18.1759L20.1305 16.4778C20.8807 15.9631 20.9192 15.4306 20.8764 15.1588Z" fill="url(#paint1_radial_310_14710)"/>
<path d="M20.8764 15.1588C20.8337 14.887 20.6293 14.3912 19.752 14.1178L16.8613 13.2156C15.9208 12.921 14.8814 11.892 14.5893 10.9683L13.6934 8.12501C13.421 7.26254 12.9173 7.05903 12.6414 7.01413C12.3655 6.96923 11.8215 7.00224 11.2915 7.73412L9.54021 10.1466C8.97004 10.9318 7.65799 11.5782 6.6729 11.5575L3.64531 11.4966C2.72658 11.4777 2.37706 11.8852 2.2488 12.1273C2.12205 12.3716 1.98975 12.8888 2.53797 13.6147L4.3472 16.0099C4.93511 16.7876 5.16353 18.2162 4.84643 19.1296L3.87157 21.9352C3.6424 22.5926 3.76667 23.012 3.91154 23.2478C4.07222 23.5116 4.33549 23.6796 4.6709 23.7342C4.94319 23.7785 5.25215 23.7453 5.59029 23.6353L8.4595 22.7018C8.90515 22.5566 9.50175 22.5303 10.1022 22.6281C10.7027 22.7258 11.2599 22.9416 11.635 23.2185L14.0602 25.0137C14.346 25.2253 14.6285 25.3547 14.9008 25.399C15.2362 25.4536 15.5373 25.3774 15.7752 25.1785C15.9873 25.0008 16.2381 24.6425 16.2293 23.9463L16.1943 20.9764C16.1832 20.0095 16.8528 18.7271 17.657 18.1759L20.1305 16.4778C20.8807 15.9631 20.9192 15.4306 20.8764 15.1588Z" fill="black" fill-opacity="0.3"/>
</g>
<path id="Vector_3" d="M11.6506 8.20068C11.6506 8.20068 10.3394 10.1043 9.68973 11.3664C9.0401 12.6284 12.5385 9.79642 12.745 8.65271C12.9533 7.50929 12.2479 7.3056 11.6503 8.20245L11.6506 8.20068Z" fill="#D7A321"/>
<path id="Vector_4" d="M9.14104 12.5216C9.11113 12.7054 8.9355 12.8292 8.74796 12.7987C8.56042 12.7681 8.43311 12.595 8.46302 12.4113C8.49293 12.2275 8.66856 12.1037 8.8561 12.1342C9.04364 12.1647 9.17096 12.3378 9.14104 12.5216Z" fill="#D7A321"/>
<path id="Vector_5" d="M8.50101 21.9357C8.56242 22.1271 7.28728 22.6035 7.13902 22.6501C6.59298 22.8206 5.39994 23.1907 5.16876 22.8483C4.93757 22.5059 8.43961 21.7443 8.50101 21.9357Z" fill="#BA8D1B"/>
<path id="Vector_6" d="M19.7581 15.423C19.4225 15.9725 17.9827 17.0171 17.512 17.4756C17.0413 17.9341 19.8309 16.614 20.177 15.9773C20.5231 15.3407 20.0958 14.8721 19.7584 15.4212L19.7581 15.423Z" fill="#BA9A1B"/>
<path id="Vector_7" d="M9.33714 21.9049C9.31873 22.018 9.21001 22.0947 9.0946 22.0759C8.97919 22.0571 8.90038 21.9499 8.91879 21.8368C8.93719 21.7237 9.04592 21.6471 9.16133 21.6659C9.27674 21.6847 9.35555 21.7918 9.33714 21.9049Z" fill="#BA8D1B"/>
<path id="Vector_8" d="M12.9749 23.0392C13.1416 23.1407 13.3349 23.3064 13.3881 23.3441C13.9264 23.7328 14.4746 23.9581 15.0666 24.2558C15.3025 24.3758 15.6171 24.7517 15.249 24.9095C14.7456 25.1251 14.1866 24.6586 13.8109 24.3852C13.4796 24.1463 13.2642 23.9461 12.914 23.5499C12.5639 23.1537 12.5386 22.7741 12.977 23.0377L12.9749 23.0392Z" fill="#BA961B"/>
</g>
</g>
<defs>
<radialGradient id="paint0_radial_310_14710" cx="0" cy="0" r="1" gradientUnits="userSpaceOnUse" gradientTransform="translate(11.2706 14.6186) rotate(9.24338) scale(9.55876 9.36788)">
<stop stop-color="#978704"/>
<stop offset="0.28" stop-color="#968304"/>
<stop offset="0.54" stop-color="#AA8900"/>
<stop offset="0.79" stop-color="#705007"/>
<stop offset="1" stop-color="#603906"/>
</radialGradient>
<radialGradient id="paint1_radial_310_14710" cx="0" cy="0" r="1" gradientUnits="userSpaceOnUse" gradientTransform="translate(11.2688 14.6637) rotate(9.24338) scale(9.19518 9.01157)">
<stop stop-color="#FFE400"/>
<stop offset="0.23" stop-color="#FFE000"/>
<stop offset="0.45" stop-color="#FFD400"/>
<stop offset="0.66" stop-color="#FFC200"/>
<stop offset="0.86" stop-color="#FFA700"/>
<stop offset="1" stop-color="#FF9200"/>
</radialGradient>
<radialGradient id="paint2_radial_310_14710" cx="0" cy="0" r="1" gradientUnits="userSpaceOnUse" gradientTransform="translate(36.4401 8.08588) scale(9.55875 9.36788)">
<stop stop-color="#978704"/>
<stop offset="0.28" stop-color="#968304"/>
<stop offset="0.54" stop-color="#AA8900"/>
<stop offset="0.79" stop-color="#705007"/>
<stop offset="1" stop-color="#603906"/>
</radialGradient>
<radialGradient id="paint3_radial_310_14710" cx="0" cy="0" r="1" gradientUnits="userSpaceOnUse" gradientTransform="translate(36.4457 8.1307) scale(9.19518 9.01157)">
<stop stop-color="#FFE400"/>
<stop offset="0.23" stop-color="#FFE000"/>
<stop offset="0.45" stop-color="#FFD400"/>
<stop offset="0.66" stop-color="#FFC200"/>
<stop offset="0.86" stop-color="#FFA700"/>
<stop offset="1" stop-color="#FF9200"/>
</radialGradient>
<radialGradient id="paint4_radial_310_14710" cx="0" cy="0" r="1" gradientUnits="userSpaceOnUse" gradientTransform="translate(59.8967 14.6592) rotate(-9.24) scale(9.55876 9.36788)">
<stop stop-color="#978704"/>
<stop offset="0.28" stop-color="#968304"/>
<stop offset="0.54" stop-color="#AA8900"/>
<stop offset="0.79" stop-color="#705007"/>
<stop offset="1" stop-color="#603906"/>
</radialGradient>
<radialGradient id="paint5_radial_310_14710" cx="0" cy="0" r="1" gradientUnits="userSpaceOnUse" gradientTransform="translate(59.9094 14.7025) rotate(-9.24) scale(9.19518 9.01157)">
<stop stop-color="#FFE400"/>
<stop offset="0.23" stop-color="#FFE000"/>
<stop offset="0.45" stop-color="#FFD400"/>
<stop offset="0.66" stop-color="#FFC200"/>
<stop offset="0.86" stop-color="#FFA700"/>
<stop offset="1" stop-color="#FF9200"/>
</radialGradient>
</defs>
</svg>
