<svg width="72" height="146" viewBox="0 60 72 27" fill="none" xmlns="http://www.w3.org/2000/svg">
<g id="rate">
<g id="Group">
<path id="Vector" d="M14.8433 25.7524C14.5115 25.6984 14.1754 25.5457 13.8416 25.2991L11.4165 23.504C11.086 23.2597 10.5858 23.0695 10.043 22.9811C9.50019 22.8928 8.9654 22.9146 8.57455 23.0415L5.70534 23.975C5.3106 24.103 4.94163 24.141 4.61164 24.0873C4.17344 24.0159 3.81335 23.7832 3.5968 23.4305C3.41245 23.1302 3.2499 22.6049 3.52437 21.8169L4.49923 19.0114C4.7778 18.2096 4.56978 16.9059 4.05187 16.2211L2.24265 13.826C1.57563 12.9429 1.75402 12.2789 1.92047 11.9614C2.08692 11.6438 2.53223 11.114 3.64642 11.1375L6.67401 11.1985C7.5393 11.2159 8.73677 10.6253 9.23768 9.93585L10.9889 7.52336C11.6334 6.63415 12.335 6.59957 12.6957 6.65827C13.0563 6.71696 13.709 6.97192 14.04 8.0199L14.936 10.8632C15.1924 11.6759 16.1408 12.6157 16.967 12.8735L19.8577 13.7757C20.9233 14.1088 21.1777 14.7525 21.2333 15.1044C21.2905 15.4583 21.2492 16.1446 20.3365 16.7707L17.863 18.4688C17.1565 18.9543 16.544 20.1244 16.554 20.9732L16.589 23.9431C16.5994 24.7774 16.279 25.2223 16.0086 25.4504C15.6932 25.7165 15.2779 25.8231 14.8379 25.7515L14.8433 25.7524Z" fill="url(#paint0_radial_310_14710)"/>
<g id="Vector_2">
<path d="M20.8764 15.1588C20.8337 14.887 20.6293 14.3912 19.752 14.1178L16.8613 13.2156C15.9208 12.921 14.8814 11.892 14.5893 10.9683L13.6934 8.12501C13.421 7.26254 12.9173 7.05903 12.6414 7.01413C12.3655 6.96923 11.8215 7.00224 11.2915 7.73412L9.54021 10.1466C8.97004 10.9318 7.65799 11.5782 6.6729 11.5575L3.64531 11.4966C2.72658 11.4777 2.37706 11.8852 2.2488 12.1273C2.12205 12.3716 1.98975 12.8888 2.53797 13.6147L4.3472 16.0099C4.93511 16.7876 5.16353 18.2162 4.84643 19.1296L3.87157 21.9352C3.6424 22.5926 3.76667 23.012 3.91154 23.2478C4.07222 23.5116 4.33549 23.6796 4.6709 23.7342C4.94319 23.7785 5.25215 23.7453 5.59029 23.6353L8.4595 22.7018C8.90515 22.5566 9.50175 22.5303 10.1022 22.6281C10.7027 22.7258 11.2599 22.9416 11.635 23.2185L14.0602 25.0137C14.346 25.2253 14.6285 25.3547 14.9008 25.399C15.2362 25.4536 15.5373 25.3774 15.7752 25.1785C15.9873 25.0008 16.2381 24.6425 16.2293 23.9463L16.1943 20.9764C16.1832 20.0095 16.8528 18.7271 17.657 18.1759L20.1305 16.4778C20.8807 15.9631 20.9192 15.4306 20.8764 15.1588Z" fill="url(#paint1_radial_310_14710)"/>
<path d="M20.8764 15.1588C20.8337 14.887 20.6293 14.3912 19.752 14.1178L16.8613 13.2156C15.9208 12.921 14.8814 11.892 14.5893 10.9683L13.6934 8.12501C13.421 7.26254 12.9173 7.05903 12.6414 7.01413C12.3655 6.96923 11.8215 7.00224 11.2915 7.73412L9.54021 10.1466C8.97004 10.9318 7.65799 11.5782 6.6729 11.5575L3.64531 11.4966C2.72658 11.4777 2.37706 11.8852 2.2488 12.1273C2.12205 12.3716 1.98975 12.8888 2.53797 13.6147L4.3472 16.0099C4.93511 16.7876 5.16353 18.2162 4.84643 19.1296L3.87157 21.9352C3.6424 22.5926 3.76667 23.012 3.91154 23.2478C4.07222 23.5116 4.33549 23.6796 4.6709 23.7342C4.94319 23.7785 5.25215 23.7453 5.59029 23.6353L8.4595 22.7018C8.90515 22.5566 9.50175 22.5303 10.1022 22.6281C10.7027 22.7258 11.2599 22.9416 11.635 23.2185L14.0602 25.0137C14.346 25.2253 14.6285 25.3547 14.9008 25.399C15.2362 25.4536 15.5373 25.3774 15.7752 25.1785C15.9873 25.0008 16.2381 24.6425 16.2293 23.9463L16.1943 20.9764C16.1832 20.0095 16.8528 18.7271 17.657 18.1759L20.1305 16.4778C20.8807 15.9631 20.9192 15.4306 20.8764 15.1588Z" fill="black" fill-opacity="0.3"/>
</g>
<path id="Vector_3" d="M11.6506 8.20068C11.6506 8.20068 10.3394 10.1043 9.68973 11.3664C9.0401 12.6284 12.5385 9.79642 12.745 8.65271C12.9533 7.50929 12.2479 7.3056 11.6503 8.20245L11.6506 8.20068Z" fill="#D7A321"/>
<path id="Vector_4" d="M9.14104 12.5216C9.11113 12.7054 8.9355 12.8292 8.74796 12.7987C8.56042 12.7681 8.43311 12.595 8.46302 12.4113C8.49293 12.2275 8.66856 12.1037 8.8561 12.1342C9.04364 12.1647 9.17096 12.3378 9.14104 12.5216Z" fill="#D7A321"/>
<path id="Vector_5" d="M8.50101 21.9357C8.56242 22.1271 7.28728 22.6035 7.13902 22.6501C6.59298 22.8206 5.39994 23.1907 5.16876 22.8483C4.93757 22.5059 8.43961 21.7443 8.50101 21.9357Z" fill="#BA8D1B"/>
<path id="Vector_6" d="M19.7581 15.423C19.4225 15.9725 17.9827 17.0171 17.512 17.4756C17.0413 17.9341 19.8309 16.614 20.177 15.9773C20.5231 15.3407 20.0958 14.8721 19.7584 15.4212L19.7581 15.423Z" fill="#BA9A1B"/>
<path id="Vector_7" d="M9.33714 21.9049C9.31873 22.018 9.21001 22.0947 9.0946 22.0759C8.97919 22.0571 8.90038 21.9499 8.91879 21.8368C8.93719 21.7237 9.04592 21.6471 9.16133 21.6659C9.27674 21.6847 9.35555 21.7918 9.33714 21.9049Z" fill="#BA8D1B"/>
<path id="Vector_8" d="M12.9749 23.0392C13.1416 23.1407 13.3349 23.3064 13.3881 23.3441C13.9264 23.7328 14.4746 23.9581 15.0666 24.2558C15.3025 24.3758 15.6171 24.7517 15.249 24.9095C14.7456 25.1251 14.1866 24.6586 13.8109 24.3852C13.4796 24.1463 13.2642 23.9461 12.914 23.5499C12.5639 23.1537 12.5386 22.7741 12.977 23.0377L12.9749 23.0392Z" fill="#BA961B"/>
</g>
<g id="Group_2">
<path id="Vector_9" d="M41.7548 18.5012C41.4186 18.5012 41.0624 18.4045 40.6933 18.2147L38.0113 16.8325C37.6459 16.6445 37.1216 16.537 36.5716 16.537C36.0217 16.537 35.4974 16.6445 35.132 16.8325L32.45 18.2147C32.0809 18.4045 31.7228 18.5012 31.3885 18.5012C30.9446 18.5012 30.5518 18.3293 30.2814 18.016C30.0512 17.7492 29.8063 17.2568 29.9507 16.435L30.4622 13.5093C30.6084 12.6731 30.1937 11.4198 29.5725 10.8271L27.402 8.75374C26.6018 7.9892 26.6712 7.30523 26.7845 6.96503C26.8978 6.62484 27.2522 6.03039 28.3557 5.87462L31.3538 5.44848C32.2107 5.32673 33.2977 4.55144 33.6814 3.79048L35.0224 1.12801C35.5157 0.146821 36.2026 0 36.568 0C36.9334 0 37.6185 0.146821 38.1136 1.12801L39.4546 3.79048C39.8383 4.55144 40.9253 5.32673 41.7822 5.44848L44.7803 5.87462C45.8856 6.03218 46.24 6.62663 46.3515 6.96503C46.4647 7.30523 46.5342 7.9892 45.7339 8.75374L43.5653 10.8271C42.946 11.4198 42.5294 12.6731 42.6756 13.5093L43.1871 16.435C43.3315 17.2568 43.0867 17.7474 42.8565 18.016C42.5879 18.3293 42.1951 18.5012 41.7493 18.5012H41.7548Z" fill="url(#paint2_radial_310_14710)"/>
<g id="Vector_10">
<path d="M46.0081 7.07609C45.9222 6.81468 45.6408 6.3581 44.731 6.22919L41.7329 5.80305C40.7573 5.66339 39.5661 4.8147 39.1295 3.94989L37.7885 1.28742C37.3811 0.479903 36.8512 0.35994 36.5717 0.35994C36.2922 0.35994 35.7605 0.479903 35.3549 1.28742L34.0139 3.94989C33.5773 4.81649 32.3861 5.66518 31.4105 5.80305L28.4124 6.22919C27.5026 6.3581 27.2231 6.81647 27.1354 7.07609C27.0495 7.33751 27.002 7.86928 27.6597 8.49775L29.8302 10.5711C30.5354 11.2444 30.9903 12.6177 30.824 13.5702L30.3125 16.4959C30.1919 17.1817 30.3819 17.5756 30.5628 17.7851C30.7637 18.0196 31.0506 18.1432 31.3904 18.1432C31.6663 18.1432 31.9659 18.0608 32.282 17.8979L34.964 16.5156C35.3805 16.3007 35.9652 16.179 36.5735 16.179C37.1819 16.179 37.7666 16.3025 38.1813 16.5156L40.8633 17.8979C41.1794 18.0608 41.479 18.1432 41.7549 18.1432C42.0947 18.1432 42.3797 18.0196 42.5825 17.7851C42.7633 17.5756 42.9534 17.1817 42.8328 16.4959L42.3212 13.5702C42.155 12.6177 42.6099 11.2444 43.3151 10.5711L45.4837 8.49775C46.1414 7.86928 46.0939 7.33751 46.0081 7.07609Z" fill="url(#paint3_radial_310_14710)"/>
<path d="M46.0081 7.07609C45.9222 6.81468 45.6408 6.3581 44.731 6.22919L41.7329 5.80305C40.7573 5.66339 39.5661 4.8147 39.1295 3.94989L37.7885 1.28742C37.3811 0.479903 36.8512 0.35994 36.5717 0.35994C36.2922 0.35994 35.7605 0.479903 35.3549 1.28742L34.0139 3.94989C33.5773 4.81649 32.3861 5.66518 31.4105 5.80305L28.4124 6.22919C27.5026 6.3581 27.2231 6.81647 27.1354 7.07609C27.0495 7.33751 27.002 7.86928 27.6597 8.49775L29.8302 10.5711C30.5354 11.2444 30.9903 12.6177 30.824 13.5702L30.3125 16.4959C30.1919 17.1817 30.3819 17.5756 30.5628 17.7851C30.7637 18.0196 31.0506 18.1432 31.3904 18.1432C31.6663 18.1432 31.9659 18.0608 32.282 17.8979L34.964 16.5156C35.3805 16.3007 35.9652 16.179 36.5735 16.179C37.1819 16.179 37.7666 16.3025 38.1813 16.5156L40.8633 17.8979C41.1794 18.0608 41.479 18.1432 41.7549 18.1432C42.0947 18.1432 42.3797 18.0196 42.5825 17.7851C42.7633 17.5756 42.9534 17.1817 42.8328 16.4959L42.3212 13.5702C42.155 12.6177 42.6099 11.2444 43.3151 10.5711L45.4837 8.49775C46.1414 7.86928 46.0939 7.33751 46.0081 7.07609Z" fill="black" fill-opacity="0.3"/>
</g>
<path id="Vector_11" d="M35.7841 1.69026C35.7841 1.69026 34.7957 3.77977 34.3573 5.1298C33.9188 6.47984 36.9169 3.12266 36.937 1.96062C36.9589 0.798592 36.2299 0.710858 35.7841 1.69205V1.69026Z" fill="#D7A321"/>
<path id="Vector_12" d="M34.0014 6.35816C34.0014 6.54437 33.8479 6.69477 33.6579 6.69477C33.4679 6.69477 33.3145 6.54437 33.3145 6.35816C33.3145 6.17195 33.4679 6.02155 33.6579 6.02155C33.8479 6.02155 34.0014 6.17195 34.0014 6.35816Z" fill="#D7A321"/>
<path id="Vector_13" d="M34.8819 15.7528C34.9732 15.9319 33.7912 16.6069 33.6523 16.6767C33.1408 16.9328 32.0227 17.4896 31.7395 17.1888C31.4563 16.888 34.7905 15.5738 34.8819 15.7528Z" fill="#BA8D1B"/>
<path id="Vector_14" d="M44.9466 7.5165C44.7036 8.11273 43.4503 9.37503 43.0594 9.90323C42.6684 10.4314 45.2097 8.68032 45.449 7.99635C45.6884 7.31238 45.1914 6.91847 44.9466 7.51471V7.5165Z" fill="#BA9A1B"/>
<path id="Vector_15" d="M35.7022 15.5881C35.7022 15.7027 35.6072 15.7958 35.4903 15.7958C35.3733 15.7958 35.2783 15.7027 35.2783 15.5881C35.2783 15.4736 35.3733 15.3804 35.4903 15.3804C35.6072 15.3804 35.7022 15.4736 35.7022 15.5881Z" fill="#BA8D1B"/>
<path id="Vector_16" d="M39.475 16.1234C39.6558 16.1968 39.8732 16.3293 39.9317 16.3579C40.5255 16.6551 41.1028 16.7894 41.7349 16.9882C41.9871 17.0687 42.3579 17.3892 42.0199 17.6041C41.5577 17.8977 40.9311 17.5271 40.5163 17.3176C40.1509 17.135 39.9061 16.9721 39.4969 16.6372C39.0876 16.3024 39.0018 15.9318 39.4768 16.1216L39.475 16.1234Z" fill="#BA961B"/>
</g>
<g id="Group_3">
<path id="Vector_17" d="M63.0064 22.5644L63.0067 22.5645L65.8754 23.4981L63.0064 22.5644ZM63.0064 22.5644C62.5185 22.406 61.899 22.3891 61.3033 22.486C60.7076 22.5829 60.1253 22.7954 59.7128 23.1002L59.7126 23.1004M63.0064 22.5644L59.7126 23.1004M59.7126 23.1004L57.2877 24.8951C57.0026 25.1057 56.7375 25.2188 56.5028 25.257C56.1959 25.3069 55.9302 25.231 55.7335 25.0662C55.5776 24.9354 55.3235 24.6313 55.3321 23.9482L55.3321 23.9479M59.7126 23.1004L55.3321 23.9479M55.3321 23.9479L55.3672 20.978L55.3672 20.978M55.3321 23.9479L55.3672 20.978M55.3672 20.978C55.3735 20.4453 55.1895 19.8578 54.9253 19.352C54.661 18.846 54.2833 18.3583 53.8412 18.0553C53.8411 18.0552 53.841 18.0552 53.841 18.0551L51.366 16.3573L55.3672 20.978ZM51.7111 14.252L51.7106 14.2522C51.2588 14.3927 51.0161 14.5867 50.8821 14.7489C50.7463 14.9132 50.6976 15.0744 50.68 15.183C50.6626 15.291 50.6587 15.4565 50.7356 15.6492C50.8113 15.8392 50.98 16.0925 51.366 16.3573L51.7111 14.252ZM51.7111 14.252L54.6018 13.35C54.6018 13.35 54.6018 13.35 54.6018 13.35C55.1147 13.19 55.625 12.8359 56.0339 12.431C56.4424 12.0266 56.8004 11.5213 56.9609 11.013L56.9609 11.0128M51.7111 14.252L56.9609 11.0128M56.9609 11.0128L57.857 8.16954L57.8571 8.16919M56.9609 11.0128L57.8571 8.16919M57.8571 8.16919C57.9956 7.72859 58.1899 7.48992 58.3551 7.35635C58.5231 7.22045 58.6903 7.16984 58.8049 7.1512C58.9193 7.13258 59.0935 7.12761 59.2957 7.20324C59.4946 7.27763 59.7547 7.44258 60.0269 7.81689L61.7778 10.2292L61.7779 10.2294M57.8571 8.16919L61.7779 10.2294M61.7779 10.2294C62.0912 10.6606 62.5909 11.0263 63.1065 11.2804C63.6227 11.5348 64.2189 11.7089 64.756 11.6981C64.756 11.6981 64.756 11.6981 64.7561 11.6981L67.7834 11.6373L61.7779 10.2294ZM69.0566 12.1935L69.0559 12.192C69.0063 12.0967 68.9099 11.9597 68.729 11.8469C68.5503 11.7355 68.2579 11.628 67.7836 11.6373L69.0566 12.1935ZM69.0566 12.1935C69.1074 12.2904 69.1635 12.4461 69.1517 12.6532C69.1401 12.8575 69.0604 13.1511 68.7782 13.5247L68.7781 13.5248M69.0566 12.1935L68.7781 13.5248M68.7781 13.5248L66.9706 15.9195L66.9704 15.9197M68.7781 13.5248L66.9704 15.9197M66.9704 15.9197C66.6484 16.3468 66.4447 16.9289 66.3542 17.4926C66.2638 18.0558 66.2749 18.6715 66.4498 19.1751L66.4498 19.1751M66.9704 15.9197L66.4498 19.1751M66.4498 19.1751L67.4245 21.9807L67.4246 21.981M66.4498 19.1751L67.4246 21.981M67.4246 21.981C67.649 22.6253 67.505 22.9933 67.3973 23.1699C67.2657 23.3859 67.0398 23.5421 66.7318 23.5929C66.4961 23.6307 66.2117 23.6071 65.8758 23.4982L67.4246 21.981Z" stroke="url(#paint4_radial_310_14710)"/>
<g id="Vector_18">
<path d="M69.1784 12.1262C69.0516 11.8819 68.7006 11.4765 67.7819 11.4953L64.7543 11.5561C63.7689 11.5749 62.4569 10.9285 61.8871 10.145L60.1359 7.73243C59.6042 7.00081 59.0619 6.96748 58.786 7.01236C58.5101 7.05724 58.0046 7.26102 57.734 8.12318L56.8379 10.9664C56.5461 11.8919 55.5066 12.9208 54.5658 13.2136L51.6751 14.1156C50.7977 14.3889 50.5954 14.8862 50.5506 15.1566C50.5078 15.4284 50.5463 15.9609 51.2964 16.4756L53.7716 18.1736C54.5757 18.7248 55.2453 20.0073 55.2341 20.9741L55.199 23.944C55.1901 24.6402 55.4409 24.9985 55.653 25.1762C55.8891 25.3755 56.192 25.4514 56.5274 25.3968C56.7997 25.3525 57.0822 25.2231 57.368 25.0115L59.7933 23.2165C60.1699 22.9376 60.7274 22.7235 61.3279 22.6258C61.9284 22.5282 62.5253 22.5562 62.9688 22.6999L65.838 23.6336C66.1761 23.7437 66.4851 23.7769 66.7574 23.7326C67.0928 23.678 67.3543 23.5103 67.5168 23.2462C67.6617 23.0104 67.7859 22.5911 67.5568 21.9336L66.5821 19.128C66.2651 18.2145 66.4936 16.786 67.0815 16.0083L68.8891 13.6136C69.4374 12.8877 69.3051 12.3704 69.1784 12.1262Z" fill="url(#paint5_radial_310_14710)"/>
<path d="M69.1784 12.1262C69.0516 11.8819 68.7006 11.4765 67.7819 11.4953L64.7543 11.5561C63.7689 11.5749 62.4569 10.9285 61.8871 10.145L60.1359 7.73243C59.6042 7.00081 59.0619 6.96748 58.786 7.01236C58.5101 7.05724 58.0046 7.26102 57.734 8.12318L56.8379 10.9664C56.5461 11.8919 55.5066 12.9208 54.5658 13.2136L51.6751 14.1156C50.7977 14.3889 50.5954 14.8862 50.5506 15.1566C50.5078 15.4284 50.5463 15.9609 51.2964 16.4756L53.7716 18.1736C54.5757 18.7248 55.2453 20.0073 55.2341 20.9741L55.199 23.944C55.1901 24.6402 55.4409 24.9985 55.653 25.1762C55.8891 25.3755 56.192 25.4514 56.5274 25.3968C56.7997 25.3525 57.0822 25.2231 57.368 25.0115L59.7933 23.2165C60.1699 22.9376 60.7274 22.7235 61.3279 22.6258C61.9284 22.5282 62.5253 22.5562 62.9688 22.6999L65.838 23.6336C66.1761 23.7437 66.4851 23.7769 66.7574 23.7326C67.0928 23.678 67.3543 23.5103 67.5168 23.2462C67.6617 23.0104 67.7859 22.5911 67.5568 21.9336L66.5821 19.128C66.2651 18.2145 66.4936 16.786 67.0815 16.0083L68.8891 13.6136C69.4374 12.8877 69.3051 12.3704 69.1784 12.1262Z" fill="black" fill-opacity="0.3"/>
</g>
</g>
</g>
<defs>
<radialGradient id="paint0_radial_310_14710" cx="0" cy="0" r="1" gradientUnits="userSpaceOnUse" gradientTransform="translate(11.2706 14.6186) rotate(9.24338) scale(9.55876 9.36788)">
<stop stop-color="#978704"/>
<stop offset="0.28" stop-color="#968304"/>
<stop offset="0.54" stop-color="#AA8900"/>
<stop offset="0.79" stop-color="#705007"/>
<stop offset="1" stop-color="#603906"/>
</radialGradient>
<radialGradient id="paint1_radial_310_14710" cx="0" cy="0" r="1" gradientUnits="userSpaceOnUse" gradientTransform="translate(11.2688 14.6637) rotate(9.24338) scale(9.19518 9.01157)">
<stop stop-color="#FFE400"/>
<stop offset="0.23" stop-color="#FFE000"/>
<stop offset="0.45" stop-color="#FFD400"/>
<stop offset="0.66" stop-color="#FFC200"/>
<stop offset="0.86" stop-color="#FFA700"/>
<stop offset="1" stop-color="#FF9200"/>
</radialGradient>
<radialGradient id="paint2_radial_310_14710" cx="0" cy="0" r="1" gradientUnits="userSpaceOnUse" gradientTransform="translate(36.4401 8.08588) scale(9.55875 9.36788)">
<stop stop-color="#978704"/>
<stop offset="0.28" stop-color="#968304"/>
<stop offset="0.54" stop-color="#AA8900"/>
<stop offset="0.79" stop-color="#705007"/>
<stop offset="1" stop-color="#603906"/>
</radialGradient>
<radialGradient id="paint3_radial_310_14710" cx="0" cy="0" r="1" gradientUnits="userSpaceOnUse" gradientTransform="translate(36.4457 8.1307) scale(9.19518 9.01157)">
<stop stop-color="#FFE400"/>
<stop offset="0.23" stop-color="#FFE000"/>
<stop offset="0.45" stop-color="#FFD400"/>
<stop offset="0.66" stop-color="#FFC200"/>
<stop offset="0.86" stop-color="#FFA700"/>
<stop offset="1" stop-color="#FF9200"/>
</radialGradient>
<radialGradient id="paint4_radial_310_14710" cx="0" cy="0" r="1" gradientUnits="userSpaceOnUse" gradientTransform="translate(59.8967 14.6592) rotate(-9.24) scale(9.55876 9.36788)">
<stop stop-color="#978704"/>
<stop offset="0.28" stop-color="#968304"/>
<stop offset="0.54" stop-color="#AA8900"/>
<stop offset="0.79" stop-color="#705007"/>
<stop offset="1" stop-color="#603906"/>
</radialGradient>
<radialGradient id="paint5_radial_310_14710" cx="0" cy="0" r="1" gradientUnits="userSpaceOnUse" gradientTransform="translate(59.9094 14.7025) rotate(-9.24) scale(9.19518 9.01157)">
<stop stop-color="#FFE400"/>
<stop offset="0.23" stop-color="#FFE000"/>
<stop offset="0.45" stop-color="#FFD400"/>
<stop offset="0.66" stop-color="#FFC200"/>
<stop offset="0.86" stop-color="#FFA700"/>
<stop offset="1" stop-color="#FF9200"/>
</radialGradient>
</defs>
</svg>
