<svg width="33" height="32" viewBox="0 0 33 32" fill="none" xmlns="http://www.w3.org/2000/svg">
<path d="M29.2067 4.70747C29.3943 4.51993 29.5 4.26521 29.5 3.99999C29.5 3.73477 29.3946 3.48042 29.2071 3.29288L29.1985 3.28435C29.0117 3.10239 28.7607 2.99999 28.5 2.99999C28.47 2.99999 28.44 3.00134 28.4101 3.00403C28.1769 3.02508 27.9585 3.1273 27.7929 3.29288L15.7933 15.2925C15.6057 15.48 15.5 15.7348 15.5 16C15.5 16.016 15.5004 16.032 15.5011 16.048C15.5131 16.2963 15.6171 16.5313 15.7929 16.7071C15.9804 16.8946 16.2348 17 16.5 17C16.7652 17 17.0196 16.8946 17.2071 16.7071L29.2067 4.70747Z" fill="black"/>
<path d="M28.2275 10.3944C28.0616 10.0465 27.7104 9.82494 27.325 9.82494L27.3067 9.8251C27.1639 9.82771 27.0233 9.86089 26.8944 9.92238C26.655 10.0366 26.4708 10.2412 26.3823 10.4912C26.3444 10.5984 26.325 10.7112 26.325 10.8249L26.325 10.8277C26.3254 10.9757 26.3587 11.1219 26.4224 11.2555C27.3143 13.1253 27.4669 15.1919 27.4669 15.1919C27.6193 17.2582 27.0111 19.2388 27.0111 19.2388C26.4029 21.2195 25.1172 22.8442 25.1172 22.8442C23.8314 24.4689 22.0436 25.5161 22.0436 25.5161C20.2557 26.5632 18.2097 26.8898 18.2097 26.8898C16.1637 27.2164 14.1387 26.7779 14.1387 26.7779C12.1137 26.3395 10.386 25.1958 10.386 25.1958C8.65835 24.0521 7.46375 22.3592 7.46375 22.3592C6.26916 20.6664 5.77064 18.6553 5.77064 18.6553C5.27213 16.6442 5.53772 14.5894 5.53772 14.5894C5.80331 12.5346 6.79676 10.7163 6.79676 10.7163C7.79021 8.89812 9.37596 7.5646 9.37596 7.5646C10.9617 6.23109 12.9234 5.56425 12.9234 5.56425C14.8851 4.89741 16.955 4.98822 16.955 4.98822C19.025 5.07904 20.9207 5.91513 20.9207 5.91513C22.8145 6.75037 24.2764 8.21553 24.2764 8.21553C24.2772 8.21639 24.2781 8.21725 24.2781 8.21725L24.2793 8.21848C24.4666 8.4063 24.7208 8.51204 24.986 8.51244L24.9875 8.51244C25.003 8.51244 25.0185 8.51208 25.034 8.51135C25.2823 8.49978 25.5175 8.39613 25.6935 8.2206C25.8813 8.03335 25.9871 7.77915 25.9875 7.51394L25.9875 7.51244C25.9875 7.49692 25.9871 7.4814 25.9864 7.4659C25.9748 7.21757 25.8712 6.98244 25.6956 6.80639L25.6946 6.80533C23.9667 5.07265 21.7278 4.08519 21.7278 4.08519C19.4881 3.09744 17.0427 2.99014 17.0427 2.99014C14.5972 2.88285 12.2797 3.67067 12.2797 3.67067C9.96216 4.45848 8.08874 6.0339 8.08874 6.0339C6.21532 7.60932 5.04165 9.75738 5.04165 9.75738C3.86798 11.9054 3.55422 14.333 3.55422 14.333C3.24045 16.7606 3.8294 19.1365 3.8294 19.1365C4.41835 21.5124 5.82965 23.5123 5.82965 23.5123C7.24094 25.5123 9.28203 26.8635 9.28203 26.8635C11.3231 28.2147 13.7155 28.7326 13.7155 28.7326C16.1078 29.2506 18.525 28.8648 18.525 28.8648C20.9422 28.4789 23.0544 27.2418 23.0544 27.2418C25.1665 26.0048 26.6855 24.0853 26.6855 24.0853C28.2045 22.1658 28.923 19.8259 28.923 19.8259C29.6415 17.4859 29.4615 15.0448 29.4615 15.0448C29.2816 12.6045 28.2283 10.396 28.2283 10.396L28.2275 10.3944Z" fill="black"/>
<path d="M22.1252 20.1604C23.6293 18.1291 23.4859 15.6057 23.4859 15.6057C23.4558 15.0763 23.0177 14.6625 22.4875 14.6625C22.4689 14.6625 22.4493 14.663 22.4307 14.6641C22.166 14.6791 21.918 14.7987 21.7414 14.9966C21.5779 15.1798 21.4875 15.4169 21.4875 15.6625L21.4875 15.6651C21.4875 15.6832 21.4881 15.7012 21.4891 15.7192C21.5915 17.5203 20.5179 18.9702 20.5179 18.9702C19.4443 20.42 17.6917 20.8476 17.6917 20.8476C15.939 21.2752 14.3184 20.4826 14.3184 20.4826C12.6978 19.69 11.9592 18.044 11.9592 18.044C11.2207 16.3981 11.706 14.6605 11.706 14.6605C12.1913 12.923 13.6758 11.898 13.6758 11.898C15.1604 10.8729 16.9572 11.0348 16.9572 11.0348C18.7532 11.1966 20.0304 12.4696 20.0304 12.4696L20.0314 12.4706C20.2188 12.6575 20.4728 12.7625 20.7375 12.7625L20.7389 12.7625C21.0041 12.7621 21.2583 12.6564 21.4456 12.4686C21.6325 12.2811 21.7375 12.0272 21.7375 11.7625L21.7375 11.7611C21.7371 11.4958 21.6314 11.2416 21.4436 11.0544C19.6539 9.26967 17.1366 9.04288 17.1366 9.04288C14.6193 8.81609 12.5395 10.2522 12.5395 10.2522C10.4596 11.6882 9.7797 14.1225 9.7797 14.1225C9.0998 16.5569 10.1345 18.8628 10.1345 18.8628C11.1693 21.1688 13.4397 22.2792 13.4397 22.2792C15.7102 23.3896 18.1657 22.7906 18.1657 22.7906C20.6212 22.1916 22.1252 20.1604 22.1252 20.1604Z" fill="black"/>
</svg>
