<svg width="20" height="20" viewBox="0 0 20 20" fill="none" xmlns="http://www.w3.org/2000/svg">
<path d="M9.99998 15.4166C12.9915 15.4166 15.4166 12.9915 15.4166 9.99992C15.4166 7.00838 12.9915 4.58325 9.99998 4.58325C7.00844 4.58325 4.58331 7.00838 4.58331 9.99992C4.58331 12.9915 7.00844 15.4166 9.99998 15.4166Z" stroke="white" stroke-opacity="0.5" stroke-width="1.5" stroke-linecap="round" stroke-linejoin="round"/>
<path d="M15.95 15.9501L15.8417 15.8417M15.8417 4.15841L15.95 4.05008L15.8417 4.15841ZM4.05002 15.9501L4.15835 15.8417L4.05002 15.9501ZM10 1.73341V1.66675V1.73341ZM10 18.3334V18.2667V18.3334ZM1.73335 10.0001H1.66669H1.73335ZM18.3334 10.0001H18.2667H18.3334ZM4.15835 4.15841L4.05002 4.05008L4.15835 4.15841Z" stroke="white" stroke-opacity="0.5" stroke-width="2" stroke-linecap="round" stroke-linejoin="round"/>
</svg>
