<svg width="20" height="20" viewBox="0 0 20 20" fill="none" xmlns="http://www.w3.org/2000/svg">
<path d="M9.99998 15.4168C12.9915 15.4168 15.4166 12.9917 15.4166 10.0002C15.4166 7.00862 12.9915 4.5835 9.99998 4.5835C7.00844 4.5835 4.58331 7.00862 4.58331 10.0002C4.58331 12.9917 7.00844 15.4168 9.99998 15.4168Z" fill="white" stroke="white" stroke-width="1.5" stroke-linecap="round" stroke-linejoin="round"/>
<path d="M15.95 15.9498L15.8417 15.8415M15.8417 4.15817L15.95 4.04984L15.8417 4.15817ZM4.05002 15.9498L4.15835 15.8415L4.05002 15.9498ZM10 1.73317V1.6665V1.73317ZM10 18.3332V18.2665V18.3332ZM1.73335 9.99984H1.66669H1.73335ZM18.3334 9.99984H18.2667H18.3334ZM4.15835 4.15817L4.05002 4.04984L4.15835 4.15817Z" stroke="white" stroke-width="2" stroke-linecap="round" stroke-linejoin="round"/>
</svg>
