<svg width="50" height="50" viewBox="0 0 50 50" fill="none" xmlns="http://www.w3.org/2000/svg">
<circle cx="25" cy="25" r="25" fill="#223241"/>
<g clip-path="url(#clip0_476_18426)">
<path d="M17.9203 24.3693C17.6893 24.3212 17.4686 24.4691 17.4204 24.6997C17.3204 25.1815 17.5755 25.7321 18.0376 26.0349C18.2513 26.176 18.4858 26.2483 18.7203 26.2483C18.9547 26.2483 19.1961 26.1726 19.4133 26.0246C20.096 25.5531 20.1926 24.9957 20.1581 24.6137C20.0305 23.3438 18.2203 21.7953 17.1169 21.0313C15.3067 19.7821 14.986 17.9238 14.6481 16.4406C14.5964 16.2135 14.1447 16.2307 13.9102 16.2307C13.6758 16.2307 13.0724 16.6471 13.093 16.8811C13.2965 19.61 15.0515 21.7023 16.7825 22.4285C18.0479 22.9584 19.2409 23.9598 19.3168 24.6997C19.3306 24.8477 19.3064 25.0714 18.934 25.3295C18.8823 25.3639 18.7272 25.474 18.5099 25.3295C18.3272 25.209 18.2306 24.9957 18.2582 24.8683C18.3031 24.6412 18.1548 24.4175 17.9272 24.3693H17.9203Z" fill="url(#paint0_linear_476_18426)"/>
<path d="M17.4031 24.8511C17.379 25.2916 17.6238 25.7596 18.0376 26.0314C18.2513 26.1725 18.4858 26.2448 18.7203 26.2448C18.9547 26.2448 19.1961 26.1691 19.4133 26.0211C20.096 25.5497 20.1926 24.9922 20.1581 24.6102C20.0305 23.3404 18.2203 21.7918 17.1169 21.0278C15.3067 19.7786 14.986 17.9203 14.6481 16.4371C14.5964 16.21 14.1447 16.2272 13.9102 16.2272C13.6758 16.2272 13.0724 16.6436 13.093 16.8776C13.1448 17.5728 13.2965 18.2232 13.5241 18.8254C13.8895 18.3643 14.593 18.2782 15.0343 18.8254C15.3274 19.1867 15.7308 20.6975 17.9031 22.1497C18.6375 22.6418 19.4271 23.1821 19.6306 24.094C19.7271 24.5173 19.6754 24.9612 19.3995 25.3363C19.0478 25.8112 17.9651 26.2379 17.4066 24.8545L17.4031 24.8511Z" fill="#BA7D02"/>
<path d="M18.0824 17.6106C18.2306 16.6092 17.8376 15.4495 17.872 14.4137L17.7962 14.338C17.0583 12.8135 14.9343 12.8995 13.8551 13.9078C13.3068 14.4206 12.9379 15.1157 12.8655 15.8281C12.8172 16.2961 13.0068 16.7366 12.9448 17.1736C12.8896 17.5453 12.5827 17.9307 12.5034 18.2783C13.2723 18.3953 14.1068 17.9513 14.2068 17.1254C14.5171 17.325 14.9377 17.4283 15.2481 17.153C15.0136 16.5989 14.6619 16.1515 14.8688 15.5149C15.0653 14.8989 15.7136 14.5582 16.3032 14.8783C16.6997 15.0951 17.1479 15.7489 17.2617 16.1447C17.4307 16.7434 16.9686 17.9066 18.0893 17.6072L18.0824 17.6106Z" fill="url(#paint1_linear_476_18426)"/>
<path opacity="0.64" d="M14.4549 18.9355C14.2515 18.6912 13.8998 18.7325 13.9342 19.0043C13.9067 19.462 14.779 20.6768 15.5238 21.4029C15.8583 21.7298 17.7547 22.8414 18.0133 22.573C18.1995 22.3837 17.303 22.2701 15.9962 21.1724C15.0721 20.3946 14.7204 19.259 14.4515 18.9355H14.4549Z" fill="#FBE600"/>
<path d="M17.772 24.5036C17.2272 24.5139 17.8306 25.3019 18.003 25.5222C17.8961 25.326 17.8134 24.9957 17.9237 24.8305C18.0341 24.6687 18.0651 24.4967 17.772 24.5036Z" fill="#FBE600"/>
<path d="M16.6963 13.9181C16.1135 13.192 14.1033 13.2505 13.5068 14.6133C13.2655 15.1707 13.2241 15.6801 13.1586 16.3029C13.0999 16.8879 13.2206 17.6106 12.8655 18.0855C13.5896 18.0167 13.8964 17.3147 14.0137 16.709C14.255 16.8019 14.5378 16.8879 14.8102 16.9017C14.5964 16.8191 14.1516 16.4027 14.0447 16.1137C13.9413 16.2754 13.8033 16.4922 13.6034 16.5851C13.6275 15.6766 13.6275 15.0331 14.3412 14.4033C14.9343 13.8837 15.9411 13.5499 16.6928 13.9181H16.6963Z" fill="url(#paint2_linear_476_18426)"/>
<path d="M14.2619 19.2349C14.0206 19.4896 14.5447 20.2983 14.7998 20.2329C15.0515 20.1641 14.4688 19.1661 14.2619 19.2349Z" fill="white"/>
<path d="M15.0514 20.4187C15.0032 20.4738 15.0239 20.5736 15.1032 20.6424C15.179 20.7112 15.2825 20.725 15.3307 20.6734C15.379 20.6183 15.3583 20.5185 15.279 20.4497C15.2032 20.3774 15.0997 20.3637 15.048 20.4187H15.0514Z" fill="white"/>
<path d="M14.2654 14.1281C14.3102 14.3862 15.3584 13.901 15.3101 13.6876C15.0791 13.4226 14.224 13.87 14.2654 14.1281Z" fill="white"/>
<path d="M13.8274 14.3896C13.7516 14.4585 13.7274 14.5583 13.7757 14.6133C13.824 14.6684 13.9274 14.6546 14.0067 14.5858C14.0826 14.517 14.1067 14.4172 14.0584 14.3621C14.0102 14.307 13.9067 14.3208 13.8309 14.3896H13.8274Z" fill="white"/>
<path d="M32.7711 22.4216C34.5021 21.6955 36.2606 19.6032 36.464 16.8742C36.4812 16.6402 35.8778 16.2238 35.6434 16.2238C35.4089 16.2238 34.9572 16.2066 34.9055 16.4337C34.5676 17.9204 34.2435 19.7787 32.4367 21.0244C31.3333 21.7884 29.5231 23.3335 29.3955 24.6068C29.3576 24.9888 29.4541 25.5428 30.1368 26.0177C30.3506 26.1657 30.5885 26.2414 30.8299 26.2414C31.0712 26.2414 31.2954 26.1691 31.5126 26.028C31.9746 25.7252 32.2263 25.1746 32.1298 24.6928C32.085 24.4657 31.8609 24.3177 31.6298 24.3624C31.3988 24.4106 31.254 24.6309 31.2988 24.8614C31.323 24.9888 31.2264 25.2021 31.0471 25.3226C30.8264 25.4671 30.6713 25.3604 30.6196 25.3226C30.2472 25.0645 30.223 24.8373 30.2368 24.6928C30.3127 23.9529 31.5057 22.9515 32.7711 22.4216Z" fill="url(#paint3_linear_476_18426)"/>
<path d="M31.6506 22.1463C33.8228 20.6906 34.2297 19.1799 34.5193 18.822C34.9607 18.2748 35.6641 18.3608 36.0296 18.822C36.2571 18.2198 36.4089 17.5694 36.4606 16.8742C36.4778 16.6402 35.8744 16.2238 35.6399 16.2238C35.4055 16.2238 34.9538 16.2066 34.9021 16.4337C34.5642 17.9204 34.24 19.7787 32.4333 21.0244C31.3299 21.7884 29.5197 23.3335 29.3921 24.6068C29.3541 24.9888 29.4507 25.5428 30.1334 26.0177C30.3472 26.1657 30.5851 26.2414 30.8265 26.2414C31.0678 26.2414 31.292 26.1691 31.5092 26.028C31.9195 25.7562 32.1678 25.2882 32.1436 24.8477C31.585 26.2311 30.4989 25.8043 30.1472 25.3294C29.8714 24.9578 29.8196 24.5139 29.9127 24.0871C30.1162 23.1752 30.9058 22.6349 31.6437 22.1428L31.6506 22.1463Z" fill="#BA7D02"/>
<path d="M35.3504 17.1254C35.447 17.9548 36.2848 18.3987 37.0537 18.2783C36.9744 17.9307 36.6676 17.5453 36.6158 17.1736C36.5503 16.7366 36.7434 16.2961 36.6951 15.8281C36.6193 15.1157 36.2538 14.4206 35.7056 13.9078C34.6229 12.8995 32.4989 12.8135 31.761 14.338L31.6886 14.4137C31.7231 15.4495 31.33 16.6092 31.4748 17.6107C32.5954 17.9066 32.1334 16.7434 32.3023 16.1481C32.4161 15.7524 32.8609 15.0985 33.2609 14.8817C33.8471 14.5617 34.4953 14.9024 34.6953 15.5183C34.8987 16.155 34.5505 16.6024 34.316 17.1564C34.6229 17.4351 35.047 17.3285 35.3573 17.1289L35.3504 17.1254Z" fill="url(#paint4_linear_476_18426)"/>
<path d="M33.3158 13.2058C32.6676 13.3125 32.0814 13.6704 31.7573 14.338L31.6849 14.4137C31.7194 15.4495 31.3263 16.6092 31.4711 17.6107C32.0539 17.7655 32.209 17.5246 32.2469 17.1702C31.6056 15.9313 32.0608 13.8769 33.3158 13.2058Z" fill="#996202"/>
<path opacity="0.64" d="M35.0986 18.9355C34.8296 19.259 34.4779 20.3947 33.5538 21.1724C32.247 22.2736 31.354 22.3837 31.5402 22.573C31.8022 22.838 33.6952 21.7299 34.0297 21.4029C34.7744 20.6768 35.6468 19.4621 35.6192 19.0044C35.6502 18.736 35.302 18.6912 35.0986 18.9355Z" fill="#FBE600"/>
<path d="M31.7816 24.5036C31.4885 24.4967 31.5195 24.6687 31.6298 24.8305C31.7402 24.9922 31.6574 25.326 31.5505 25.5222C31.7229 25.3019 32.3263 24.5173 31.7816 24.5036Z" fill="#FBE600"/>
<path d="M35.5056 16.1102C35.3987 16.3993 34.9504 16.8157 34.7401 16.8983C35.0125 16.8845 35.2952 16.7985 35.5366 16.7056C35.6573 17.3113 35.9607 18.0133 36.6848 18.0821C36.3296 17.6072 36.4503 16.8845 36.3917 16.2995C36.3262 15.6766 36.2883 15.1639 36.0435 14.6098C35.4469 13.2471 33.4367 13.1886 32.854 13.9147C33.6091 13.543 34.616 13.8768 35.209 14.3999C35.9228 15.0297 35.9262 15.6732 35.9469 16.5817C35.7469 16.4888 35.609 16.272 35.5056 16.1102Z" fill="url(#paint5_linear_476_18426)"/>
<path d="M34.7537 20.2295C35.0054 20.2983 35.5295 19.4896 35.2881 19.2315C35.0812 19.1627 34.502 20.1606 34.7537 20.2295Z" fill="white"/>
<path d="M34.2744 20.4497C34.1986 20.5185 34.1744 20.6218 34.2227 20.6734C34.271 20.725 34.3744 20.7113 34.4503 20.6424C34.5261 20.5736 34.5503 20.4704 34.4986 20.4187C34.4503 20.3671 34.3468 20.3809 34.271 20.4497H34.2744Z" fill="white"/>
<path d="M34.2436 13.6876C34.1953 13.901 35.2435 14.3862 35.2883 14.1281C35.3331 13.87 34.478 13.4226 34.2436 13.6876Z" fill="white"/>
<path d="M35.4986 14.3621C35.4503 14.4172 35.4745 14.517 35.5503 14.5858C35.6262 14.6546 35.7296 14.6684 35.7779 14.6133C35.8262 14.5583 35.802 14.4585 35.7262 14.3896C35.6469 14.3208 35.5469 14.307 35.4986 14.3621Z" fill="white"/>
<path d="M20.3892 38.8399C20.3892 39.5798 22.3408 40.1786 24.7475 40.1786C27.1542 40.1786 29.1024 39.5798 29.1024 38.8399C29.1024 38.1001 27.1508 37.5013 24.7475 37.5013C22.3442 37.5013 20.3892 38.1001 20.3892 38.8399Z" fill="url(#paint6_linear_476_18426)"/>
<path d="M26.3233 39.3768C25.5199 39.862 24.582 39.862 23.5269 39.7416C22.489 39.6246 21.2029 39.3699 20.6512 38.4683C20.6374 38.4476 20.6305 38.4304 20.6202 38.4098C20.4719 38.544 20.3892 38.6885 20.3892 38.8399C20.3892 39.5798 22.3408 40.1786 24.7475 40.1786C27.1542 40.1786 29.1024 39.5798 29.1024 38.8399C29.1024 38.1001 27.1508 37.5013 24.7475 37.5013C24.5854 37.5013 24.4303 37.5013 24.2717 37.5082C25.1785 37.5701 25.544 37.7043 26.2302 38.2859C26.4784 38.4958 26.8405 39.0636 26.3233 39.3768Z" fill="url(#paint7_linear_476_18426)"/>
<path opacity="0.48" d="M28.7335 39.3768C28.568 38.7298 28.0025 38.2033 27.2784 37.9349C27.2577 37.928 27.237 37.9177 27.2129 37.9073C27.1715 37.9521 27.1198 37.9899 27.0543 38.0244C26.875 38.1173 26.6647 38.1827 26.4336 38.2205C26.413 38.2274 26.3923 38.2377 26.3716 38.248C26.975 38.4098 27.4543 38.7918 27.5681 39.4146C27.5956 39.5626 27.5991 39.7071 27.5922 39.8517C28.0784 39.7209 28.4714 39.5592 28.7335 39.3768Z" fill="#996202"/>
<path d="M22.4373 39.3458C22.5028 39.0808 22.6097 38.8055 22.7752 38.5853C22.489 38.4648 22.2235 38.3031 21.9856 38.0794C21.5857 38.1723 21.327 38.2618 21.0029 38.5165C21.3408 38.9776 21.8408 39.2013 22.4373 39.3492V39.3458Z" fill="#FFED6C"/>
<path opacity="0.55" d="M28.6955 39.4043C28.9575 39.2323 29.1023 39.043 29.1023 38.8399C29.1023 38.1001 27.1508 37.5013 24.7475 37.5013C23.0096 37.5013 21.5132 37.8144 20.8132 38.2652C21.1546 38.1655 21.3166 38.2171 21.6028 38.3375C22.3235 38.6472 23.1855 38.9019 23.9889 38.9157C24.9337 38.9294 26.2922 38.9157 27.1852 38.6266C27.6369 38.482 27.8059 38.3926 28.1955 38.4889C28.4989 38.5646 28.8196 38.9466 28.6989 39.3802C28.6989 39.3871 28.6989 39.394 28.6989 39.4009L28.6955 39.4043Z" fill="#845306"/>
<path d="M21.0271 37.5803C21.0271 38.2754 22.6925 38.8398 24.7441 38.8398C26.7957 38.8398 28.4611 38.2754 28.4611 37.5803C28.4611 36.8852 26.7957 36.3208 24.7441 36.3208C22.6925 36.3208 21.0271 36.8852 21.0271 37.5803Z" fill="url(#paint8_linear_476_18426)"/>
<path d="M26.0923 38.0828C25.4061 38.5405 24.6062 38.5405 23.7062 38.427C22.8235 38.3169 21.7236 38.076 21.2512 37.226C21.2409 37.2088 21.234 37.1916 21.2236 37.1709C21.0961 37.2982 21.0271 37.4324 21.0271 37.5735C21.0271 38.2687 22.6925 38.833 24.7441 38.833C26.7957 38.833 28.4611 38.2687 28.4611 37.5735C28.4611 36.8784 26.7957 36.314 24.7441 36.314C24.6062 36.314 24.4717 36.314 24.3407 36.3209C25.1165 36.3794 25.4268 36.5067 26.013 37.0505C26.2233 37.2466 26.5336 37.78 26.0888 38.076L26.0923 38.0828Z" fill="url(#paint9_linear_476_18426)"/>
<path opacity="0.48" d="M28.1509 38.0863C28.0095 37.4772 27.5302 36.9816 26.9096 36.727C26.8889 36.7201 26.8716 36.7098 26.8544 36.7029C26.8165 36.7442 26.7716 36.782 26.7199 36.813C26.5682 36.899 26.3855 36.961 26.1889 36.9988C26.1717 37.0057 26.1544 37.016 26.1372 37.0229C26.6544 37.1743 27.0613 37.5322 27.1578 38.1207C27.182 38.2583 27.1854 38.396 27.1785 38.5336C27.5957 38.4132 27.9302 38.2583 28.1543 38.0863H28.1509Z" fill="#996202"/>
<path d="M22.8581 38.076C22.965 37.8385 23.1236 37.6286 23.3029 37.4359C22.965 37.3223 22.6547 37.14 22.3892 36.8612C22.0513 36.9472 21.8271 37.0333 21.5479 37.2742C21.8513 37.7284 22.3099 37.9383 22.8547 38.076H22.8581Z" fill="#FFED6C"/>
<path opacity="0.55" d="M28.1163 38.1104C28.3405 37.9486 28.4611 37.7697 28.4611 37.5804C28.4611 36.8853 26.7957 36.3209 24.7441 36.3209C23.2615 36.3209 21.9823 36.6134 21.3857 37.0402C21.6788 36.9472 21.8167 36.992 22.0581 37.109C22.6719 37.4015 23.4097 37.6424 24.0959 37.6527C24.9028 37.6665 26.0613 37.6527 26.8233 37.3808C27.2061 37.2432 27.3543 37.1606 27.6853 37.2535C27.9439 37.3258 28.2163 37.6837 28.1163 38.0932C28.1163 38.1001 28.1163 38.1069 28.1163 38.1138V38.1104Z" fill="#845306"/>
<path d="M21.7754 36.5721C21.7754 37.1262 23.1063 37.5804 24.7476 37.5804C26.3889 37.5804 27.7198 37.1296 27.7198 36.5721C27.7198 36.0147 26.3889 35.5638 24.7476 35.5638C23.1063 35.5638 21.7754 36.0147 21.7754 36.5721Z" fill="url(#paint10_linear_476_18426)"/>
<path d="M25.8234 36.9748C25.2786 37.3395 24.6373 37.3395 23.9166 37.2501C23.2098 37.1606 22.3305 36.9713 21.9547 36.2934C21.9478 36.2796 21.9409 36.2659 21.934 36.2487C21.8306 36.3485 21.7754 36.4586 21.7754 36.5721C21.7754 37.1262 23.1063 37.5804 24.7476 37.5804C26.3889 37.5804 27.7198 37.1296 27.7198 36.5721C27.7198 36.0147 26.3889 35.5638 24.7476 35.5638C24.6373 35.5638 24.5304 35.5638 24.4235 35.5707C25.0441 35.6189 25.289 35.7187 25.7613 36.1557C25.9303 36.314 26.1786 36.7408 25.8234 36.9748Z" fill="url(#paint11_linear_476_18426)"/>
<path opacity="0.48" d="M27.4681 36.9782C27.3544 36.493 26.9716 36.0938 26.4751 35.8942C26.4613 35.8873 26.4475 35.8804 26.4337 35.8735C26.4027 35.9045 26.3682 35.9355 26.3234 35.9596C26.2027 36.0284 26.0579 36.0766 25.8993 36.1075C25.8855 36.1144 25.8717 36.1213 25.8579 36.1282C26.2717 36.2486 26.5992 36.5343 26.6751 37.0057C26.6923 37.1158 26.6992 37.226 26.6923 37.3361C27.0234 37.2397 27.2923 37.1158 27.4716 36.9782H27.4681Z" fill="#996202"/>
<path d="M23.4408 37.0161C23.5408 36.8302 23.6753 36.6719 23.8408 36.548C23.8477 36.5412 23.8511 36.5343 23.8546 36.5274C23.4822 36.4482 23.1408 36.2899 22.865 35.9974C22.5926 36.0663 22.4168 36.1351 22.1926 36.3244C22.4719 36.7442 22.9167 36.9025 23.4408 37.0126V37.0161Z" fill="#FFED6C"/>
<path d="M22.4304 36.1799C22.3753 36.5274 23.2649 36.8991 23.4373 36.6995C23.6062 36.4999 22.5615 36.0043 22.4304 36.1799Z" fill="white"/>
<path d="M23.42 36.6547C23.4097 36.7167 23.4752 36.7752 23.5648 36.7889C23.651 36.8027 23.7303 36.7614 23.7407 36.7029C23.751 36.641 23.6855 36.5825 23.5959 36.5687C23.5062 36.5549 23.4304 36.5962 23.42 36.6582V36.6547Z" fill="white"/>
<path d="M22.6786 39.129C22.6717 39.1772 22.72 39.222 22.789 39.2323C22.8579 39.2426 22.92 39.2116 22.9269 39.1635C22.9338 39.1153 22.8855 39.0705 22.8166 39.0602C22.7476 39.0499 22.689 39.0809 22.6821 39.129H22.6786Z" fill="white"/>
<path d="M21.7788 37.25C21.7237 37.5976 22.6133 37.9693 22.7822 37.7697C22.9512 37.5701 21.9099 37.0745 21.7788 37.25Z" fill="white"/>
<path d="M22.9096 37.7835C22.8993 37.8557 22.9751 37.9246 23.0786 37.9418C23.182 37.9555 23.2751 37.9108 23.2855 37.8385C23.2958 37.7663 23.22 37.6974 23.1165 37.6837C23.0131 37.6665 22.9234 37.7146 22.9096 37.7869V37.7835Z" fill="white"/>
<path d="M21.1856 38.3822C21.1304 38.7298 22.02 39.1015 22.1924 38.9019C22.3614 38.7023 21.3166 38.2067 21.1856 38.3822Z" fill="white"/>
<path d="M22.2407 38.9845C22.2303 39.0568 22.3062 39.1256 22.4096 39.1428C22.5131 39.1566 22.6062 39.1118 22.6165 39.0396C22.6269 38.9673 22.551 38.8985 22.4476 38.8813C22.3441 38.8675 22.2545 38.9122 22.2407 38.9845Z" fill="white"/>
<path d="M24.7476 36.4448C24.7476 36.4448 24.7614 36.4448 24.7682 36.4448C26.0475 36.431 26.4268 35.8839 26.4268 35.8839C25.2751 33.3029 26.2164 28.6675 26.2164 28.6675L24.7476 28.9187L23.2787 28.6675C23.2787 28.6675 24.22 33.3029 23.0684 35.8839C23.0684 35.8839 23.4511 36.4345 24.7303 36.4448C24.7303 36.4448 24.7441 36.4448 24.751 36.4448H24.7476Z" fill="url(#paint12_linear_476_18426)"/>
<path opacity="0.55" d="M24.7476 36.4448C24.7476 36.4448 24.7614 36.4448 24.7682 36.4448C26.0475 36.431 26.4268 35.8839 26.4268 35.8839C25.2751 33.3029 26.2164 28.6675 26.2164 28.6675L24.7476 28.9187L23.2787 28.6675C23.2787 28.6675 23.3442 28.9806 23.4166 29.4899C23.6442 29.2766 23.9338 29.2663 24.2062 29.3902C24.8579 29.6895 25.2303 30.5464 25.2303 32.2258C25.2303 33.7916 24.8027 35.3918 24.2993 35.6877C23.9959 35.8667 23.4649 35.9596 23.1408 35.7152C23.1166 35.7737 23.0925 35.8322 23.0684 35.8873C23.0684 35.8873 23.4511 36.4379 24.7303 36.4482C24.7303 36.4482 24.7441 36.4482 24.751 36.4482L24.7476 36.4448Z" fill="#A56A02"/>
<path d="M24.7477 36.4448C24.7477 36.4448 24.7615 36.4448 24.7684 36.4448C25.4994 36.4379 25.9373 36.2555 26.1786 36.1007C25.8062 35.2025 25.7786 34.1082 25.7993 33.1377C25.8131 32.4391 25.8442 31.744 25.858 31.0489C25.8752 30.2505 25.9235 29.459 26.1028 28.6881L24.7477 28.9187L23.2788 28.6675C23.2788 28.6675 23.3064 28.8017 23.3443 29.0357C24.1512 29.1561 25.1028 29.0426 25.5373 30.0302C25.7649 30.5499 25.72 31.1796 25.6924 31.7405C25.6649 32.3806 25.6718 33.0207 25.5993 33.6573C25.5373 34.2079 25.5028 34.8756 25.2201 35.347C24.989 35.7324 24.6753 35.9768 24.2925 36.1247C24.1132 36.1936 23.9236 36.2486 23.7236 36.2865C23.9684 36.3725 24.2994 36.4345 24.727 36.4379C24.727 36.4379 24.7408 36.4379 24.7477 36.4379V36.4448Z" fill="#A56A02"/>
<path d="M23.6511 35.0201C23.6097 35.3574 23.7856 35.6877 23.9993 35.378C24.5717 34.5383 24.5235 33.0964 24.5614 32.1776C24.5959 31.393 24.5476 29.6311 23.9856 29.8754C23.7821 30.309 24.1407 31.0179 24.0442 32.711C23.9649 34.1219 23.7166 34.4523 23.6511 35.0201Z" fill="#FBE600"/>
<path d="M24.7474 26.5683H21.9166C21.9166 26.5683 21.6614 28.9978 24.7199 28.9978H24.775C27.8334 28.9978 27.5783 26.5683 27.5783 26.5683H24.775H24.7474Z" fill="url(#paint13_linear_476_18426)"/>
<path d="M24.6923 28.4782C23.5199 28.6193 22.0511 27.7934 21.9856 26.5683H21.9166C21.9166 26.5683 21.6614 28.9978 24.7199 28.9978H24.775C27.8334 28.9978 27.5783 26.5683 27.5783 26.5683H25.7681C25.8508 26.6647 25.9163 26.7713 25.9612 26.8883C26.2922 27.7211 25.4336 28.3887 24.6923 28.4782Z" fill="url(#paint14_linear_476_18426)"/>
<path d="M22.5752 27.3976C22.7614 27.8588 23.1407 28.0446 23.6131 28.1306C23.8268 28.1719 24.7406 28.1685 24.7751 27.8588C24.8026 27.6213 23.7924 27.5663 23.582 27.5009C23.4407 27.4561 22.3787 26.9572 22.5752 27.4011V27.3976Z" fill="#FFED6C"/>
<path d="M22.5545 27.2497C22.4993 27.5972 23.3889 27.9689 23.5578 27.7693C23.7268 27.5697 22.682 27.0742 22.5545 27.2497Z" fill="white"/>
<path d="M23.875 27.7865C23.8646 27.8588 23.9405 27.9276 24.0439 27.9448C24.1474 27.9586 24.2405 27.9138 24.2508 27.8416C24.2611 27.7693 24.1853 27.7005 24.0819 27.6833C23.9784 27.6695 23.8853 27.7142 23.875 27.7865Z" fill="white"/>
<path d="M17.7168 13.2299C17.7168 13.2299 17.5927 18.8839 19.3305 23.0926C21.2338 27.7005 24.7508 27.4699 24.7508 27.4699C24.7508 27.4699 28.2644 27.7005 30.1677 23.0926C31.9055 18.8839 31.7814 13.2299 31.7814 13.2299H17.7168Z" fill="url(#paint15_linear_476_18426)"/>
<path opacity="0.27" d="M19.1477 13.2299H17.7168C17.7168 13.2299 17.5927 18.8839 19.3305 23.0926C20.5269 25.9833 22.3544 26.9675 23.5509 27.3013C22.913 26.8573 22.282 26.3928 21.7303 25.8456C21.0097 25.1298 20.458 24.2901 19.9994 23.3885C19.5029 22.4112 19.0926 21.3754 18.8546 20.3051C18.6822 19.5343 18.596 18.7428 18.496 17.9582C18.3443 16.7469 18.2443 15.4185 18.6236 14.2382C18.7478 13.8527 18.9236 13.5155 19.1477 13.2333V13.2299Z" fill="#BA7D02"/>
<path d="M18.5649 13.2299C18.7132 14.6786 18.7098 16.1412 18.8201 17.6003C18.9649 19.4483 19.3201 24.6102 23.144 27.1739C23.9025 27.4527 24.4956 27.4733 24.6818 27.4733C23.8094 25.5325 23.337 23.4057 23.1026 21.3031C22.806 18.6224 22.8853 15.8969 23.3233 13.2333H18.5649V13.2299Z" fill="url(#paint16_linear_476_18426)"/>
<path d="M26.1506 27.2394C26.9196 26.9881 27.8988 26.4719 28.7987 25.3983C29.2194 24.6309 29.5711 23.8256 29.8504 22.9928C30.3952 21.3616 30.9193 19.0697 30.9124 17.3457C30.9089 15.7627 30.74 13.2264 30.74 13.2264H27.1678C27.7161 14.658 27.985 16.1825 28.0402 17.7208C28.1091 19.6513 27.9402 21.6576 27.5299 23.5469C27.2506 24.8305 26.8609 26.1313 26.1506 27.2359V27.2394Z" fill="url(#paint17_linear_476_18426)"/>
<path d="M18.5789 12.9442C18.5789 13.8768 21.3407 14.6339 24.7474 14.6339C28.1541 14.6339 30.916 13.8768 30.916 12.9442C30.916 12.0117 28.1506 11.2546 24.7474 11.2546C21.3442 11.2546 18.5789 12.0117 18.5789 12.9442Z" fill="url(#paint18_linear_476_18426)"/>
<path opacity="0.81" d="M27.9954 14.3793C29.747 14.0799 30.9124 13.5499 30.9124 12.9443C30.9124 12.3799 29.9056 11.8844 28.3609 11.5746C28.316 12.5176 28.2022 13.4639 27.9954 14.3793Z" fill="#FFD400"/>
<path d="M18.5789 12.9443C18.5789 13.5706 19.8236 14.1177 21.6752 14.4068C21.3614 13.4777 21.2925 12.4384 21.4683 11.5127C19.734 11.8121 18.5789 12.3386 18.5789 12.9443Z" fill="#BA7D02"/>
<path d="M17.7168 13.2299C17.7168 14.6202 20.8649 15.7455 24.7474 15.7455C28.6299 15.7455 31.7779 14.6202 31.7779 13.2299C31.7779 11.5436 28.6299 10.7143 24.7474 10.7143C20.8649 10.7143 17.7168 11.5436 17.7168 13.2299ZM30.9159 12.9442C30.9159 13.8768 28.154 14.6339 24.7474 14.6339C21.3407 14.6339 18.5788 13.8768 18.5788 12.9442C18.5788 12.0117 21.3407 11.2546 24.7474 11.2546C28.154 11.2546 30.9159 12.0117 30.9159 12.9442Z" fill="#FBE600"/>
<path opacity="0.66" d="M23.582 14.603C21.0201 14.4688 19.0237 13.9009 18.6444 13.1886C18.341 13.2574 17.9858 13.3538 17.7927 13.5912C18.2237 14.6511 20.5063 15.4977 23.4268 15.6973C23.3993 15.3979 23.4406 15.0847 23.5096 14.8335C23.5303 14.7544 23.5579 14.6752 23.5855 14.603H23.582Z" fill="#FFFDAE"/>
<path opacity="0.61" d="M25.1405 10.8072C31.378 10.9414 31.6504 12.9374 31.7193 13.5465C31.7573 13.4432 31.7745 13.3366 31.7745 13.2299C31.7745 11.5436 28.6264 10.7143 24.7439 10.7143C20.8614 10.7143 17.7168 11.5436 17.7168 13.2299C17.7168 13.4742 17.8168 13.7082 17.9961 13.9319C16.9444 11.3131 22.9613 10.759 25.1405 10.8072Z" fill="#BA7D02"/>
<path d="M24.7474 14.6339C22.7441 14.6339 20.9683 14.3724 19.8408 13.9663C20.7959 14.6201 22.0372 14.8473 23.1613 14.9608C26.1508 15.2602 28.4954 14.7612 29.2402 14.5651C29.8195 14.4137 31.2366 13.8837 31.2366 13.1094C31.2401 11.7363 28.1679 11.2959 27.4127 11.2339C26.1576 11.1341 24.906 11.1341 23.6751 11.2786C24.0233 11.2614 24.3819 11.2511 24.7474 11.2511C28.1541 11.2511 30.916 12.0082 30.916 12.9408C30.916 13.8734 28.1541 14.6305 24.7474 14.6305V14.6339Z" fill="#FFFDAE"/>
<path d="M18.1547 13.3365C18.0064 13.3538 17.803 13.6222 17.803 13.6222C18.234 14.6029 20.2408 15.3944 22.8682 15.6525C22.8923 15.5493 22.9233 15.4461 22.9578 15.3428C22.4544 15.3084 21.951 15.243 21.4579 15.1535C20.4752 14.978 18.6478 14.3896 18.1512 13.3365H18.1547Z" fill="white"/>
<path d="M22.5889 21.3238C23.113 24.1319 23.9888 27.1258 24.6749 27.1051C25.3611 27.0845 26.3472 24.1628 26.7196 21.3238C27.0886 18.5054 27.092 16.1481 24.6749 16.1481C22.2441 16.1481 22.0579 18.4813 22.5889 21.3238Z" fill="#FFFDAE"/>
<mask id="mask0_476_18426" style="mask-type:luminance" maskUnits="userSpaceOnUse" x="22" y="16" width="6" height="12">
<path d="M22.8406 21.3685C23.3647 24.1766 24.2405 27.1705 24.9266 27.1499C25.6128 27.1292 26.5989 24.2076 26.9713 21.3685C27.3403 18.5501 27.3437 16.1928 24.9266 16.1928C22.4958 16.1928 22.3096 18.526 22.8406 21.3685Z" fill="white"/>
</mask>
<g mask="url(#mask0_476_18426)">
<path d="M27.3403 16.1893H22.3062V27.167H27.3403V16.1893Z" fill="#D79E01"/>
<path d="M26.9335 21.6748C26.9266 24.9646 25.9991 27.6282 24.8612 27.6247C23.7233 27.6247 22.8027 24.9543 22.8096 21.6679C22.8165 18.378 23.744 15.7145 24.8819 15.7179C26.0197 15.7179 26.9404 18.3883 26.9335 21.6748Z" fill="#D79E01"/>
<path d="M26.9024 21.6748C26.8955 24.9096 25.9852 27.5319 24.8611 27.5284C23.7405 27.5284 22.8371 24.9027 22.8406 21.6679C22.8475 18.4331 23.7578 15.8108 24.8818 15.8143C26.0024 15.8143 26.9058 18.44 26.9024 21.6748Z" fill="#D79E01"/>
<path d="M26.8679 21.6748C26.861 24.8579 25.9645 27.4355 24.8611 27.4355C23.7577 27.4355 22.8681 24.8511 22.875 21.6679C22.8819 18.4847 23.7784 15.9072 24.8818 15.9072C25.9852 15.9072 26.8748 18.4916 26.8679 21.6748Z" fill="#D89F01"/>
<path d="M26.8333 21.6748C26.8265 24.8029 25.9437 27.3391 24.8611 27.3391C23.7749 27.3391 22.9026 24.7995 22.906 21.6679C22.9129 18.5398 23.7956 16.0035 24.8783 16.0035C25.9644 16.0035 26.8368 18.5432 26.8333 21.6748Z" fill="#D89F01"/>
<path d="M26.8025 21.6747C26.7956 24.7512 25.9267 27.2427 24.8612 27.2427C23.7958 27.2427 22.9372 24.7444 22.9407 21.6679C22.9476 18.5913 23.8165 16.0999 24.8819 16.0999C25.9474 16.0999 26.8059 18.5982 26.8025 21.6747Z" fill="#D8A001"/>
<path d="M26.768 21.6748C26.7611 24.6996 25.9094 27.1464 24.8612 27.1464C23.813 27.1464 22.9682 24.6928 22.9751 21.6679C22.982 18.643 23.8337 16.1962 24.8819 16.1962C25.9301 16.1962 26.7749 18.6499 26.768 21.6748Z" fill="#D9A101"/>
<path d="M26.7335 21.6748C26.73 24.6446 25.8887 27.0501 24.8612 27.0501C23.8302 27.0501 23.0027 24.6377 23.0061 21.6679C23.0096 18.6981 23.8509 16.2926 24.8784 16.2926C25.9094 16.2926 26.7369 18.7049 26.7335 21.6748Z" fill="#D9A101"/>
<path d="M26.7024 21.6747C26.6989 24.5929 25.8748 26.9571 24.8646 26.9537C23.8543 26.9537 23.0371 24.5861 23.044 21.6679C23.0474 18.7496 23.8715 16.3855 24.8818 16.3889C25.8921 16.3889 26.7093 18.7565 26.7024 21.6747Z" fill="#DAA201"/>
<path d="M26.6679 21.6748C26.6644 24.5379 25.8541 26.8608 24.8611 26.8573C23.868 26.8573 23.0681 24.531 23.0715 21.6679C23.075 18.8047 23.8853 16.4819 24.8783 16.4853C25.8714 16.4853 26.6713 18.8116 26.6679 21.6748Z" fill="#DAA301"/>
<path d="M26.6336 21.6748C26.6301 24.4863 25.8336 26.7644 24.8613 26.761C23.8855 26.761 23.1028 24.4794 23.1062 21.6679C23.1097 18.8564 23.9062 16.5782 24.8785 16.5817C25.8509 16.5851 26.637 18.8632 26.6336 21.6748Z" fill="#DAA301"/>
<path d="M26.6025 21.6748C26.599 24.4347 25.8198 26.6681 24.8647 26.6647C23.9096 26.6647 23.1372 24.4244 23.1441 21.6679C23.1475 18.908 23.9268 16.6746 24.8819 16.678C25.837 16.678 26.6094 18.9183 26.6025 21.6748Z" fill="#DBA401"/>
<path d="M26.568 21.6747C26.5645 24.3796 25.7991 26.5717 24.8612 26.5717C23.9233 26.5717 23.1682 24.3762 23.1716 21.6713C23.1751 18.9665 23.9406 16.7744 24.8784 16.7744C25.8163 16.7744 26.5714 18.9699 26.568 21.6747Z" fill="#DBA501"/>
<path d="M26.5335 21.6748C26.53 24.328 25.7818 26.4754 24.8612 26.4754C23.944 26.4754 23.1992 24.3211 23.2061 21.6713C23.2096 19.0181 23.9578 16.8707 24.8784 16.8707C25.7956 16.8707 26.5404 19.025 26.5335 21.6748Z" fill="#DCA601"/>
<path d="M26.5023 21.6748C26.4989 24.273 25.7645 26.379 24.8645 26.379C23.9646 26.379 23.237 24.2695 23.2405 21.6713C23.2439 19.0732 23.9784 16.9671 24.8783 16.9671C25.7783 16.9671 26.5058 19.0766 26.5023 21.6748Z" fill="#DDA701"/>
<path d="M26.4678 21.6713C26.4644 24.2179 25.7437 26.2792 24.861 26.2792C23.9783 26.2792 23.268 24.211 23.2715 21.6679C23.2749 19.1213 23.9956 17.06 24.8783 17.06C25.761 17.06 26.4713 19.1282 26.4678 21.6713Z" fill="#DDA701"/>
<path d="M26.4336 21.6713C26.4301 24.1628 25.7267 26.1829 24.8613 26.1829C23.9958 26.1829 23.2993 24.1594 23.3062 21.6679C23.3097 19.1764 24.0131 17.1564 24.8785 17.1564C25.744 17.1564 26.4405 19.1798 26.4336 21.6713Z" fill="#DEA801"/>
<path d="M26.4025 21.6713C26.399 24.1112 25.7094 26.0865 24.8646 26.0865C24.0199 26.0865 23.3371 24.1043 23.3406 21.6644C23.344 19.2246 24.0336 17.2493 24.8784 17.2493C25.7232 17.2493 26.4059 19.2314 26.4025 21.6713Z" fill="#DEA901"/>
<path d="M26.368 21.6713C26.3645 24.0596 25.6887 25.9936 24.8612 25.9902C24.0336 25.9902 23.3681 24.0527 23.3716 21.6645C23.375 19.2762 24.0509 17.3422 24.8784 17.3456C25.7059 17.3456 26.3714 19.2831 26.368 21.6713Z" fill="#DFAA01"/>
<path d="M26.3334 21.6713C26.33 24.0045 25.6714 25.8972 24.8611 25.8938C24.0508 25.8938 23.3992 24.001 23.4026 21.6644C23.406 19.3312 24.0646 17.4385 24.8749 17.442C25.6852 17.442 26.3369 19.3347 26.3334 21.6713Z" fill="#DFAB01"/>
<path d="M26.3023 21.6713C26.2989 23.9529 25.6541 25.8009 24.8645 25.7974C24.0749 25.7974 23.437 23.946 23.4404 21.6644C23.4439 19.3829 24.0887 17.5349 24.8783 17.5383C25.6679 17.5383 26.3058 19.3897 26.3023 21.6713Z" fill="#E0AC01"/>
<path d="M26.268 21.6713C26.2646 23.8978 25.637 25.7045 24.8647 25.7011C24.0923 25.7011 23.4717 23.8944 23.4751 21.6645C23.4786 19.4379 24.1061 17.6313 24.8785 17.6347C25.6508 17.6347 26.2715 19.4414 26.268 21.6713Z" fill="#E1AD01"/>
<path d="M26.2336 21.6714C26.2301 23.8462 25.6164 25.6082 24.8612 25.6082C24.1061 25.6082 23.4993 23.8428 23.5027 21.6679C23.5061 19.493 24.1199 17.7311 24.875 17.7311C25.6301 17.7311 26.237 19.4965 26.2336 21.6714Z" fill="#E1AE01"/>
<path d="M26.2024 21.6713C26.199 23.7946 25.599 25.5118 24.8646 25.5118C24.1302 25.5118 23.5371 23.7911 23.5405 21.6679C23.544 19.5446 24.144 17.8274 24.8784 17.8274C25.6128 17.8274 26.2059 19.548 26.2024 21.6713Z" fill="#E2AF01"/>
<path d="M26.1679 21.6713C26.1645 23.7395 25.5818 25.4154 24.8646 25.4154C24.1474 25.4154 23.5681 23.7361 23.5715 21.6679C23.575 19.5997 24.1577 17.9238 24.8749 17.9238C25.5921 17.9238 26.1714 19.6031 26.1679 21.6713Z" fill="#E2B001"/>
<path d="M26.1368 21.6713C26.1334 23.6879 25.5645 25.3191 24.8645 25.3191C24.1646 25.3191 23.6025 23.6845 23.606 21.6679C23.6094 19.6513 24.1784 18.0201 24.8783 18.0201C25.5783 18.0201 26.1403 19.6548 26.1368 21.6713Z" fill="#E3B101"/>
<path d="M26.1025 21.6713C26.1025 23.6328 25.544 25.2227 24.8647 25.2227C24.1854 25.2227 23.6372 23.6294 23.6406 21.6679C23.6406 19.7063 24.1992 18.1165 24.8785 18.1165C25.5578 18.1165 26.106 19.7098 26.1025 21.6713Z" fill="#E4B201"/>
<path d="M26.068 21.6713C26.068 23.5812 25.5267 25.1264 24.8647 25.1264C24.2026 25.1264 23.6682 23.5778 23.6716 21.6679C23.6716 19.758 24.213 18.2094 24.875 18.2128C25.537 18.2128 26.0715 19.7614 26.068 21.6713Z" fill="#E4B301"/>
<path d="M26.0369 21.6713C26.0369 23.5296 25.5094 25.0335 24.868 25.03C24.2232 25.03 23.706 23.5228 23.7095 21.6679C23.7095 19.8096 24.237 18.3058 24.8784 18.3092C25.5232 18.3092 26.0404 19.8165 26.0369 21.6713Z" fill="#E5B401"/>
<path d="M26.0024 21.6713C26.0024 23.4746 25.4887 24.9371 24.8646 24.9337C24.2405 24.9337 23.7371 23.4711 23.7371 21.6644C23.7371 19.8612 24.2508 18.3987 24.8749 18.4021C25.499 18.4021 26.0024 19.8647 26.0024 21.6713Z" fill="#E6B501"/>
<path d="M25.9679 21.6713C25.9679 23.423 25.4714 24.8408 24.8645 24.8373C24.2577 24.8373 23.7681 23.4161 23.7715 21.6645C23.7715 19.9128 24.268 18.495 24.8749 18.4985C25.4817 18.4985 25.9714 19.9197 25.9679 21.6713Z" fill="#E6B601"/>
<path d="M25.937 21.6713C25.937 23.3679 25.4543 24.7444 24.8681 24.7444C24.2785 24.7444 23.8061 23.3679 23.8096 21.6679C23.8096 19.9713 24.2923 18.5948 24.8785 18.5948C25.4681 18.5948 25.9405 19.9713 25.937 21.6713Z" fill="#E7B701"/>
<path d="M25.9026 21.6713C25.9026 23.3162 25.4371 24.648 24.8647 24.648C24.2958 24.648 23.8337 23.3128 23.8372 21.6679C23.8372 20.0229 24.3027 18.6912 24.875 18.6912C25.444 18.6912 25.906 20.0264 25.9026 21.6713Z" fill="#E8B801"/>
<path d="M25.868 21.6713C25.868 23.2612 25.4163 24.5517 24.8646 24.5517C24.313 24.5517 23.8682 23.2612 23.8716 21.6679C23.8716 20.078 24.3233 18.7875 24.875 18.7875C25.4267 18.7875 25.8715 20.078 25.868 21.6713Z" fill="#E9B901"/>
<path d="M25.8369 21.6714C25.8369 23.2096 25.399 24.4554 24.868 24.4554C24.3336 24.4554 23.906 23.2062 23.906 21.6679C23.906 20.1297 24.3439 18.8839 24.8749 18.8839C25.4094 18.8839 25.8369 20.1331 25.8369 21.6714Z" fill="#E9BA01"/>
<path d="M25.8024 21.6713C25.8024 23.1579 25.3818 24.359 24.8646 24.359C24.3508 24.359 23.9336 23.1545 23.937 21.6679C23.937 20.1812 24.3577 18.9802 24.8749 18.9802C25.3887 18.9802 25.8059 20.1847 25.8024 21.6713Z" fill="#EABB01"/>
<path d="M25.7679 21.6713C25.7679 23.1029 25.361 24.2626 24.8645 24.2626C24.368 24.2626 23.968 23.0995 23.9715 21.6679C23.9715 20.2363 24.3783 19.0766 24.8748 19.0766C25.3714 19.0766 25.7713 20.2398 25.7679 21.6713Z" fill="#EBBC01"/>
<path d="M25.737 21.6713C25.737 23.0513 25.3439 24.1663 24.8681 24.1663C24.3888 24.1663 24.0061 23.0479 24.0061 21.6679C24.0061 20.2879 24.3992 19.173 24.875 19.173C25.3543 19.173 25.737 20.2914 25.737 21.6713Z" fill="#EBBE00"/>
<path d="M25.7025 21.6713C25.7025 22.9962 25.3267 24.0733 24.8681 24.0699C24.4095 24.0699 24.0371 22.9928 24.0406 21.6679C24.0406 20.343 24.4164 19.2659 24.875 19.2693C25.3336 19.2693 25.706 20.3464 25.7025 21.6713Z" fill="#ECBF00"/>
<path d="M25.668 21.6713C25.668 22.9446 25.306 23.977 24.8646 23.9736C24.4233 23.9736 24.0681 22.9412 24.0716 21.6679C24.0716 20.3946 24.4336 19.3622 24.875 19.3657C25.3163 19.3657 25.6715 20.3981 25.668 21.6713Z" fill="#EDC000"/>
<path d="M25.6369 21.6713C25.6369 22.893 25.2921 23.8806 24.868 23.8806C24.4439 23.8806 24.1025 22.8895 24.106 21.6713C24.106 20.4531 24.4508 19.462 24.8749 19.4655C25.299 19.4655 25.6404 20.4566 25.6369 21.6748V21.6713Z" fill="#EEC100"/>
<path d="M25.6024 21.6713C25.6024 22.8379 25.2714 23.7842 24.8679 23.7842C24.4645 23.7842 24.137 22.8379 24.1404 21.6713C24.1404 20.5047 24.4714 19.5583 24.8748 19.5583C25.2783 19.5583 25.6058 20.5047 25.6024 21.6713Z" fill="#EEC200"/>
<path d="M25.5715 21.6713C25.5715 22.7863 25.2543 23.6879 24.8681 23.6879C24.482 23.6879 24.1716 22.7829 24.1716 21.6713C24.1716 20.5563 24.4889 19.6547 24.875 19.6547C25.2612 19.6547 25.5715 20.5598 25.5715 21.6713Z" fill="#EFC300"/>
<path d="M25.537 21.6713C25.537 22.7312 25.2371 23.5915 24.8681 23.5915C24.4992 23.5915 24.2026 22.7312 24.2061 21.6679C24.2061 20.6079 24.5061 19.7476 24.875 19.7476C25.2439 19.7476 25.5405 20.6079 25.537 21.6713Z" fill="#F0C400"/>
<path d="M25.5025 21.6713C25.5025 22.6796 25.2163 23.4952 24.8681 23.4952C24.5198 23.4952 24.2371 22.6762 24.2371 21.6679C24.2371 20.6596 24.5232 19.844 24.8715 19.844C25.2198 19.844 25.5025 20.663 25.5025 21.6713Z" fill="#F1C600"/>
<path d="M25.4714 21.6713C25.4714 22.6246 25.199 23.3989 24.868 23.3989C24.537 23.3989 24.2715 22.6246 24.2715 21.6679C24.2715 20.7147 24.5439 19.9404 24.8749 19.9404C25.2059 19.9404 25.4714 20.7147 25.4714 21.6713Z" fill="#F1C700"/>
<path d="M25.4369 21.6713C25.4369 22.5729 25.1817 23.3025 24.868 23.3025C24.5542 23.3025 24.3025 22.5695 24.3059 21.6679C24.3059 20.7662 24.5611 20.0367 24.8749 20.0367C25.1886 20.0367 25.4404 20.7697 25.4369 21.6713Z" fill="#F2C800"/>
<path d="M25.4026 21.6713C25.4026 22.5213 25.1612 23.2061 24.8682 23.2061C24.5751 23.2061 24.3372 22.5179 24.3372 21.6679C24.3372 20.8179 24.5785 20.1331 24.8716 20.1331C25.1647 20.1331 25.4026 20.8213 25.4026 21.6713Z" fill="#F3C900"/>
<path d="M25.3716 21.6713C25.3716 22.4663 25.144 23.1098 24.8681 23.1098C24.5923 23.1098 24.3682 22.4628 24.3716 21.6679C24.3716 20.873 24.5992 20.226 24.875 20.2294C25.1509 20.2294 25.375 20.8764 25.3716 21.6713Z" fill="#F4CA00"/>
<path d="M25.337 21.6713C25.337 22.4146 25.1267 23.0168 24.8681 23.0134C24.6095 23.0134 24.4026 22.4112 24.406 21.6679C24.406 20.9245 24.6164 20.3223 24.875 20.3258C25.1336 20.3292 25.3405 20.928 25.337 21.6713Z" fill="#F4CC00"/>
<path d="M25.3025 21.6713C25.3025 22.3596 25.1059 22.9205 24.868 22.9205C24.6301 22.9205 24.437 22.3596 24.437 21.6713C24.437 20.983 24.6336 20.4221 24.8715 20.4221C25.1094 20.4221 25.3025 20.983 25.3025 21.6713Z" fill="#F5CD00"/>
<path d="M25.2714 21.6713C25.2714 22.308 25.0921 22.8242 24.8714 22.8242C24.6508 22.8242 24.4715 22.308 24.4749 21.6713C24.4749 21.0347 24.6542 20.5185 24.8749 20.5185C25.0956 20.5185 25.2749 21.0347 25.2714 21.6713Z" fill="#F6CE00"/>
<path d="M25.2369 21.6713C25.2369 22.2564 25.0714 22.7278 24.8679 22.7278C24.6645 22.7278 24.5024 22.2529 24.5024 21.6713C24.5024 21.0863 24.6679 20.6149 24.8714 20.6149C25.0748 20.6149 25.2369 21.0898 25.2369 21.6713Z" fill="#F7CF00"/>
<path d="M25.2026 21.6713C25.2026 22.2013 25.0509 22.6314 24.8681 22.6314C24.6854 22.6314 24.5371 22.2013 24.5371 21.6713C24.5371 21.1413 24.6888 20.7112 24.8716 20.7112C25.0543 20.7112 25.2026 21.1413 25.2026 21.6713Z" fill="#F8D100"/>
<path d="M25.1715 21.6713C25.1715 22.1497 25.037 22.5351 24.8715 22.5351C24.706 22.5351 24.5715 22.1462 24.5715 21.6713C24.5715 21.193 24.706 20.8076 24.8715 20.8076C25.037 20.8076 25.1715 21.1964 25.1715 21.6713Z" fill="#F8D200"/>
<path d="M25.137 21.6713C25.137 22.0946 25.0163 22.4387 24.868 22.4387C24.7198 22.4387 24.6025 22.0946 24.6025 21.6713C24.6025 21.2481 24.7232 20.9039 24.8715 20.9039C25.0198 20.9039 25.137 21.2481 25.137 21.6713Z" fill="#F9D300"/>
<path d="M25.1024 21.6713C25.1024 22.043 24.9956 22.3423 24.868 22.3423C24.7404 22.3423 24.637 22.0395 24.637 21.6713C24.637 21.2996 24.7439 21.0002 24.8714 21.0002C24.999 21.0002 25.1024 21.3031 25.1024 21.6713Z" fill="#FAD400"/>
<path d="M25.0716 21.6713C25.0716 21.9879 24.982 22.246 24.8716 22.246C24.7613 22.246 24.6716 21.9879 24.6716 21.6679C24.6716 21.3513 24.7613 21.0932 24.8716 21.0932C24.982 21.0932 25.0716 21.3513 25.0716 21.6713Z" fill="#FBD600"/>
<path d="M25.0371 21.6713C25.0371 21.9363 24.9612 22.1496 24.8716 22.1496C24.7785 22.1496 24.7061 21.9328 24.7061 21.6679C24.7061 21.4029 24.7819 21.1895 24.8716 21.1895C24.9647 21.1895 25.0371 21.4063 25.0371 21.6713Z" fill="#FCD700"/>
<path d="M25.0026 21.6713C25.0026 21.8847 24.9439 22.0567 24.8681 22.0567C24.7957 22.0567 24.7371 21.8847 24.7371 21.6713C24.7371 21.458 24.7957 21.2859 24.8715 21.2859C24.9439 21.2859 25.0026 21.458 25.0026 21.6713Z" fill="#FDD800"/>
<path d="M24.9715 21.6713C24.9715 21.8296 24.9266 21.9604 24.8715 21.9604C24.8163 21.9604 24.7715 21.8296 24.7715 21.6713C24.7715 21.513 24.8163 21.3823 24.8715 21.3823C24.9266 21.3823 24.9715 21.513 24.9715 21.6713Z" fill="#FDD900"/>
<path d="M24.9369 21.6713C24.9369 21.778 24.9059 21.8641 24.8714 21.8641C24.8335 21.8641 24.8059 21.778 24.8059 21.6713C24.8059 21.5647 24.8369 21.4786 24.8714 21.4786C24.9094 21.4786 24.9369 21.5647 24.9369 21.6713Z" fill="#FEDB00"/>
<path d="M24.9025 21.6713C24.9025 21.7229 24.8887 21.7677 24.868 21.7677C24.8507 21.7677 24.8335 21.7229 24.8335 21.6713C24.8335 21.6197 24.8473 21.575 24.868 21.575C24.8852 21.575 24.9025 21.6197 24.9025 21.6713Z" fill="#FFDC00"/>
</g>
<path d="M24.9542 26.4444C24.368 26.9124 23.9611 25.3087 23.7404 24.8166C23.6404 24.593 23.5474 24.3624 23.4646 24.1318C23.9301 25.8421 24.468 27.1602 24.9266 27.1464C25.6127 27.1257 26.5989 24.2041 26.9713 21.365C27.2954 18.8976 27.3368 16.7881 25.7265 16.296C25.7576 16.3236 25.7851 16.3545 25.8162 16.3821C27.1506 17.4798 26.8437 20.9693 26.5885 22.1978C26.1541 24.2901 25.5438 25.9798 24.9576 26.4409L24.9542 26.4444Z" fill="#A56A02"/>
<path d="M20.2649 15.7971C19.2167 15.4185 18.7236 15.8212 18.565 16.6471C18.4305 17.3422 18.7684 20.5564 19.6166 22.9894C20.4649 25.4223 23.1474 27.174 23.5543 26.9159C23.9612 26.6612 23.4026 25.9248 22.5958 24.0699C21.7889 22.2151 21.6096 19.1592 21.6268 18.0098C21.6406 16.8639 21.3131 16.1756 20.2649 15.7936V15.7971Z" fill="#FFFDAE"/>
<mask id="mask1_476_18426" style="mask-type:luminance" maskUnits="userSpaceOnUse" x="18" y="15" width="6" height="13">
<path d="M20.513 15.9038C19.4648 15.5252 18.9718 15.9279 18.8166 16.7538C18.6856 17.4489 19.02 20.6631 19.8682 23.0961C20.713 25.529 23.3956 27.2807 23.8025 27.0226C24.2093 26.7679 23.6542 26.0315 22.8474 24.1766C22.0405 22.3218 21.8612 19.2659 21.875 18.12C21.8888 16.974 21.5578 16.2823 20.513 15.9038Z" fill="white"/>
</mask>
<g mask="url(#mask1_476_18426)">
<path d="M24.2094 15.5252H18.6821V27.2772H24.2094V15.5252Z" fill="#F4C513"/>
<path d="M23.1128 20.8833C24.061 23.8669 23.8611 26.5924 22.6611 26.9709C21.4647 27.3495 19.7234 25.24 18.7752 22.2564C17.827 19.2728 18.0269 16.5473 19.2269 16.1687C20.4233 15.7902 22.1646 17.8997 23.1128 20.8833Z" fill="#F4C513"/>
<path d="M23.0577 20.9005C23.9818 23.8084 23.7852 26.465 22.6198 26.8333C21.4544 27.2015 19.7579 25.147 18.8338 22.2391C17.9098 19.3313 18.1063 16.6746 19.2717 16.3064C20.4372 15.9381 22.1336 17.9926 23.0577 20.9005Z" fill="#F4C513"/>
<path d="M23.0024 20.9177C23.9024 23.7499 23.7127 26.3343 22.5749 26.6956C21.4405 27.057 19.7888 25.0541 18.8889 22.222C17.989 19.3898 18.1786 16.8054 19.3165 16.444C20.4509 16.0827 22.1025 18.0855 23.0024 20.9177Z" fill="#F4C613"/>
<path d="M22.9439 20.9349C23.8197 23.6879 23.6335 26.2035 22.5267 26.5545C21.4199 26.9055 19.8165 24.9543 18.9407 22.2013C18.0649 19.4483 18.2511 16.9327 19.3579 16.5817C20.4647 16.2307 22.0681 18.1819 22.9439 20.9349Z" fill="#F4C713"/>
<path d="M22.8888 20.9521C23.7404 23.6294 23.5577 26.0762 22.4853 26.4169C21.4096 26.7576 19.8476 24.8614 18.9994 22.1841C18.1477 19.5068 18.3304 17.06 19.4028 16.7193C20.4786 16.3786 22.0405 18.2748 22.8888 20.9521Z" fill="#F5C713"/>
<path d="M22.8335 20.9728C23.6611 23.5744 23.4852 25.9489 22.4405 26.2792C21.3957 26.6096 19.8785 24.7685 19.051 22.1669C18.2235 19.5653 18.3993 17.1908 19.4441 16.8604C20.4889 16.5301 22.006 18.3711 22.8335 20.9728Z" fill="#F5C813"/>
<path d="M22.7784 20.99C23.5818 23.5159 23.4094 25.8215 22.3957 26.1416C21.3819 26.4616 19.9096 24.6756 19.1062 22.1531C18.3028 19.6272 18.4752 17.3216 19.489 17.0015C20.5027 16.6815 21.975 18.4675 22.7784 20.99Z" fill="#F5C913"/>
<path d="M22.7231 21.0071C23.5024 23.4539 23.3369 25.6907 22.3542 26.0039C21.3715 26.3136 19.944 24.5826 19.1647 22.1359C18.3855 19.6891 18.551 17.4523 19.5337 17.1391C20.5164 16.826 21.9439 18.5604 22.7231 21.0071Z" fill="#F5C913"/>
<path d="M22.668 21.0244C23.4231 23.3954 23.2611 25.5634 22.3094 25.8628C21.3578 26.1657 19.9751 24.4863 19.22 22.1153C18.4648 19.7442 18.6269 17.5762 19.5786 17.2768C20.5302 16.974 21.9129 18.6533 22.668 21.0244Z" fill="#F5CA13"/>
<path d="M22.6127 21.0416C23.3437 23.3369 23.1886 25.4327 22.2645 25.7252C21.3439 26.0177 20.006 24.3934 19.275 22.0981C18.544 19.8027 18.6992 17.707 19.6233 17.4145C20.5439 17.122 21.8818 18.7463 22.6127 21.0416Z" fill="#F6CB13"/>
<path d="M22.5576 21.0588C23.2645 23.2784 23.1128 25.3053 22.2232 25.5875C21.3336 25.8697 20.0405 24.3005 19.3337 22.0808C18.6268 19.8612 18.7786 17.8343 19.6682 17.5521C20.5578 17.2699 21.8508 18.8391 22.5576 21.0588Z" fill="#F6CC13"/>
<path d="M22.4992 21.076C23.1819 23.2165 23.0371 25.1746 22.1751 25.4464C21.3165 25.7183 20.0649 24.2041 19.3856 22.0602C18.7029 19.9197 18.8477 17.9616 19.7097 17.6898C20.5683 17.4179 21.8199 18.9321 22.4992 21.076Z" fill="#F6CD13"/>
<path d="M22.4438 21.0932C23.1024 23.158 22.961 25.0473 22.1335 25.3088C21.3025 25.5703 20.0991 24.1112 19.444 22.043C18.7854 19.9782 18.9268 18.089 19.7543 17.8274C20.5853 17.5659 21.7887 19.025 22.4438 21.0932Z" fill="#F7CE13"/>
<path d="M22.3887 21.1138C23.0197 23.1029 22.8852 24.9199 22.0887 25.1746C21.2888 25.4258 20.1302 24.0217 19.4992 22.0327C18.8682 20.0436 19.0027 18.2266 19.7992 17.972C20.5992 17.7207 21.7577 19.1248 22.3887 21.1138Z" fill="#F7CF13"/>
<path d="M22.3337 21.1311C22.9405 23.0444 22.813 24.7926 22.044 25.0335C21.2751 25.2778 20.1614 23.922 19.5545 22.012C18.9477 20.0987 19.0753 18.3505 19.8442 18.1096C20.6131 17.8687 21.7268 19.2212 22.3337 21.1311Z" fill="#F7D013"/>
<path d="M22.2783 21.1483C22.8611 22.9825 22.7369 24.6618 22.0025 24.8958C21.2646 25.1298 20.1957 23.829 19.6095 21.9948C19.0268 20.1606 19.151 18.4813 19.8854 18.2473C20.6233 18.0132 21.6922 19.3141 22.2783 21.1483Z" fill="#F7D113"/>
<path d="M22.2233 21.1655C22.7819 22.924 22.6647 24.5311 21.9578 24.7547C21.251 24.9784 20.2269 23.7327 19.6649 21.9742C19.1063 20.2157 19.2235 18.6086 19.9304 18.3849C20.6372 18.1612 21.6613 19.407 22.2233 21.1655Z" fill="#F8D213"/>
<path d="M22.168 21.1827C22.7024 22.8655 22.5886 24.4038 21.9128 24.6171C21.237 24.8305 20.2543 23.6398 19.7198 21.957C19.1854 20.2742 19.2992 18.736 19.975 18.5226C20.6508 18.3092 21.6335 19.4999 22.168 21.1827Z" fill="#F8D313"/>
<path d="M22.1129 21.1999C22.6232 22.807 22.5163 24.2729 21.8716 24.4794C21.2268 24.6825 20.2889 23.5468 19.7786 21.9398C19.2683 20.3327 19.3752 18.8667 20.02 18.6602C20.6647 18.4572 21.6026 19.5928 22.1129 21.1999Z" fill="#F8D413"/>
<path d="M22.0544 21.2171C22.5406 22.7485 22.4371 24.1457 21.8234 24.3384C21.2096 24.5345 20.3166 23.4505 19.8304 21.9191C19.3442 20.3878 19.4477 18.9906 20.0614 18.7979C20.6752 18.6017 21.5682 19.6857 22.0544 21.2171Z" fill="#F9D513"/>
<path d="M21.9991 21.2343C22.4612 22.6865 22.3646 24.0148 21.7784 24.2007C21.1957 24.3865 20.3475 23.3576 19.8855 21.9019C19.4234 20.4497 19.52 19.1213 20.1061 18.9355C20.6889 18.7497 21.5371 19.7786 21.9991 21.2343Z" fill="#F9D613"/>
<path d="M21.944 21.2515C22.3819 22.628 22.2888 23.8875 21.7371 24.063C21.1854 24.2385 20.382 23.2646 19.9441 21.8881C19.5062 20.5116 19.5993 19.2521 20.151 19.0766C20.7027 18.9011 21.5061 19.875 21.944 21.2515Z" fill="#F9D713"/>
<path d="M21.8889 21.2721C22.3026 22.5729 22.213 23.7602 21.6923 23.9254C21.1717 24.0905 20.4131 23.1717 19.9993 21.8709C19.5856 20.5701 19.6752 19.3829 20.1959 19.2177C20.7165 19.0525 21.4751 19.9713 21.8889 21.2721Z" fill="#F9D813"/>
<path d="M21.8336 21.2894C22.2232 22.5145 22.1405 23.6329 21.6474 23.7877C21.1578 23.9426 20.4406 23.0788 20.0544 21.8537C19.6648 20.6286 19.7475 19.5102 20.2406 19.3554C20.7302 19.2005 21.4474 20.0643 21.8336 21.2894Z" fill="#FADA12"/>
<path d="M21.7785 21.3066C22.144 22.4525 22.0647 23.5021 21.6061 23.6501C21.144 23.7946 20.4751 22.9825 20.1131 21.8366C19.7476 20.6906 19.8269 19.641 20.2855 19.493C20.7475 19.3485 21.4164 20.1606 21.7785 21.3066Z" fill="#FADB12"/>
<path d="M21.7232 21.3238C22.0646 22.394 21.9922 23.3748 21.5612 23.509C21.1302 23.6466 20.5061 22.8861 20.1647 21.8159C19.8234 20.7456 19.8958 19.7649 20.3268 19.6307C20.7578 19.493 21.3819 20.2535 21.7232 21.3238Z" fill="#FADC12"/>
<path d="M21.6681 21.341C21.9853 22.3355 21.9164 23.244 21.5164 23.3714C21.1164 23.4987 20.5372 22.7932 20.2199 21.7987C19.9027 20.8042 19.9717 19.8957 20.3717 19.7683C20.7716 19.641 21.3509 20.3465 21.6681 21.341Z" fill="#FBDD12"/>
<path d="M21.6094 21.3582C21.9025 22.277 21.8404 23.1132 21.4715 23.2302C21.1026 23.3472 20.5681 22.6968 20.275 21.778C19.9819 20.8592 20.044 20.0229 20.413 19.9059C20.7819 19.7889 21.3163 20.4393 21.6094 21.3582Z" fill="#FBDE12"/>
<path d="M21.5543 21.3754C21.8233 22.2185 21.7646 22.9859 21.4267 23.0926C21.0888 23.1993 20.5992 22.6039 20.3302 21.7642C20.0613 20.9211 20.1199 20.1537 20.4578 20.047C20.7957 19.9404 21.2854 20.5357 21.5543 21.3754Z" fill="#FBDF12"/>
<path d="M21.499 21.3926C21.7438 22.1566 21.6921 22.8552 21.3852 22.955C21.0784 23.0513 20.6336 22.511 20.3888 21.7471C20.1439 20.9831 20.1957 20.2845 20.5025 20.1847C20.8094 20.0849 21.2542 20.6287 21.499 21.3926Z" fill="#FCE112"/>
<path d="M21.4439 21.4132C21.6612 22.1015 21.6163 22.7313 21.3405 22.8173C21.0646 22.9033 20.6612 22.4181 20.444 21.7298C20.2268 21.0416 20.2716 20.4118 20.5474 20.3258C20.8233 20.2398 21.2267 20.725 21.4439 21.4132Z" fill="#FCE212"/>
<path d="M21.3888 21.4304C21.5819 22.043 21.5405 22.6005 21.2957 22.6796C21.0509 22.7588 20.6923 22.3252 20.4992 21.7126C20.3061 21.1001 20.3475 20.5426 20.5923 20.4634C20.8371 20.3843 21.1957 20.8179 21.3888 21.4304Z" fill="#FCE312"/>
<path d="M21.3335 21.4477C21.5025 21.9845 21.468 22.4732 21.2542 22.542C21.0404 22.6108 20.7267 22.2323 20.5577 21.6954C20.3888 21.1586 20.4232 20.6699 20.637 20.6011C20.8508 20.5323 21.1646 20.9108 21.3335 21.4477Z" fill="#FDE412"/>
<path d="M21.2784 21.4649C21.4232 21.9226 21.3922 22.3424 21.2094 22.4009C21.0267 22.4594 20.7578 22.1359 20.6129 21.6748C20.4681 21.2171 20.4991 20.7973 20.6819 20.7388C20.8646 20.6803 21.1336 21.0037 21.2784 21.4649Z" fill="#FDE612"/>
<path d="M21.2232 21.482C21.3439 21.864 21.3197 22.215 21.1646 22.2632C21.0094 22.3114 20.7887 22.0395 20.6646 21.6576C20.5439 21.2756 20.568 20.9246 20.7232 20.8764C20.8784 20.8282 21.099 21.1001 21.2232 21.482Z" fill="#FEE712"/>
<path d="M21.1646 21.4993C21.2612 21.8056 21.2405 22.0843 21.1198 22.1222C20.9957 22.16 20.8198 21.9432 20.7198 21.6369C20.6233 21.3307 20.644 21.0519 20.7647 21.0141C20.8888 20.9762 21.0646 21.193 21.1646 21.4993Z" fill="#FEE812"/>
<path d="M21.1096 21.5165C21.182 21.7471 21.1682 21.957 21.0751 21.9845C20.982 22.0155 20.8476 21.8503 20.7751 21.6232C20.7027 21.3926 20.7165 21.1827 20.8096 21.1552C20.9027 21.1242 21.0372 21.2894 21.1096 21.5165Z" fill="#FEE912"/>
<path d="M21.0542 21.5337C21.1025 21.6851 21.0922 21.8262 21.0301 21.8468C20.968 21.8675 20.8784 21.7573 20.8301 21.6059C20.7818 21.4545 20.7922 21.3134 20.8543 21.2928C20.9163 21.2721 21.006 21.3822 21.0542 21.5337Z" fill="#FFEB12"/>
<path d="M20.9992 21.5509C21.0234 21.6266 21.0199 21.6989 20.9889 21.7057C20.9578 21.7161 20.913 21.661 20.8889 21.5853C20.8647 21.5096 20.8682 21.4373 20.8992 21.4304C20.9303 21.4201 20.9751 21.4752 20.9992 21.5509Z" fill="#FFEC12"/>
</g>
<path d="M22.0854 26.1416C22.8785 26.8023 23.6026 27.1464 23.7991 27.0225C24.206 26.7679 23.6508 26.0314 22.844 24.1766C22.0372 22.3217 21.8579 19.2659 21.8716 18.1199C21.8854 17.1357 21.6441 16.4888 20.9131 16.0861C21.7923 17.1564 21.5682 18.7841 21.6475 20.1124C21.7544 21.9225 22.0751 23.3989 23.0302 25.412C23.1681 25.6976 23.5164 26.4478 23.2784 26.5407C23.0543 26.6302 22.3095 26.176 22.0854 26.1416Z" fill="#BA7D02"/>
<path d="M25.8025 27.081C26.2093 27.3357 28.8919 25.5875 29.7367 23.1545C30.5849 20.7215 30.9228 17.5074 30.7883 16.8122C30.6297 15.9863 30.1367 15.5837 29.0919 15.9622C28.0437 16.3408 27.7161 17.0325 27.7334 18.1784C27.7472 19.3244 27.5679 22.3837 26.761 24.2385C25.9542 26.0934 25.399 26.8298 25.8059 27.0845L25.8025 27.081Z" fill="#FFD400"/>
<mask id="mask2_476_18426" style="mask-type:luminance" maskUnits="userSpaceOnUse" x="25" y="15" width="7" height="13">
<path d="M25.9957 27.081C26.4025 27.3357 29.0851 25.5875 29.9333 23.1545C30.7815 20.7215 31.116 17.5074 30.985 16.8122C30.8264 15.9863 30.3333 15.5837 29.2851 15.9622C28.2403 16.3408 27.9093 17.0325 27.9231 18.1784C27.9404 19.3244 27.7611 22.3837 26.9508 24.2385C26.1439 26.0934 25.5853 26.8298 25.9922 27.0845L25.9957 27.081Z" fill="white"/>
</mask>
<g mask="url(#mask2_476_18426)">
<path d="M31.1161 15.5837H25.5889V27.3357H31.1161V15.5837Z" fill="#B16E01"/>
<path d="M30.2436 21.9604C29.3747 25.1126 27.8576 27.4458 26.8611 27.1705C25.8646 26.8952 25.7577 24.1181 26.6301 20.9659C27.499 17.8137 29.0161 15.4805 30.0126 15.7558C31.0091 16.0311 31.116 18.8082 30.2436 21.9604Z" fill="#B16E01"/>
<path d="M30.2059 21.9501C29.3542 25.0404 27.8681 27.3254 26.8923 27.0569C25.913 26.7885 25.8131 24.0665 26.6647 20.9762C27.5164 17.8859 29.0025 15.6009 29.9783 15.8693C30.9575 16.1377 31.0575 18.8598 30.2059 21.9501Z" fill="#B16E01"/>
<path d="M30.1713 21.9398C29.3369 24.9646 27.8818 27.2049 26.9232 26.9399C25.9647 26.675 25.8647 24.0114 26.6991 20.9831C27.5335 17.9582 28.9886 15.7179 29.9472 15.9829C30.9057 16.2479 31.0057 18.9114 30.1713 21.9398Z" fill="#B26F01"/>
<path d="M30.1335 21.9294C29.3163 24.8923 27.8923 27.0844 26.9544 26.8264C26.0165 26.5683 25.92 23.9563 26.7372 20.9968C27.5543 18.0339 28.9784 15.8418 29.9163 16.0999C30.8541 16.358 30.9507 18.9699 30.1335 21.9294Z" fill="#B26F01"/>
<path d="M30.0989 21.9191C29.2989 24.8201 27.9059 26.964 26.9887 26.7128C26.0715 26.4616 25.975 23.9047 26.775 21.0072C27.5749 18.1096 28.9679 15.9622 29.8851 16.2135C30.8023 16.4647 30.8988 19.0215 30.0989 21.9191Z" fill="#B37001"/>
<path d="M30.0611 21.9088C29.2784 24.7444 27.9164 26.8436 27.0165 26.5958C26.12 26.348 26.0269 23.8496 26.8096 21.014C27.5923 18.1784 28.9543 16.0792 29.8542 16.327C30.7507 16.5748 30.8438 19.0731 30.0611 21.9088Z" fill="#B47101"/>
<path d="M30.0264 21.8984C29.261 24.6721 27.9266 26.7231 27.0508 26.4822C26.1715 26.2413 26.0819 23.798 26.8473 21.0243C27.6128 18.2507 28.9472 16.1997 29.823 16.4405C30.7023 16.6814 30.7919 19.1248 30.0264 21.8984Z" fill="#B47101"/>
<path d="M29.9887 21.8881C29.2405 24.5998 27.9371 26.6027 27.0785 26.3687C26.22 26.1312 26.1303 23.743 26.8785 21.0347C27.6268 18.3229 28.9301 16.3201 29.7887 16.5541C30.6473 16.7916 30.7369 19.1798 29.9887 21.8881Z" fill="#B57201"/>
<path d="M29.9541 21.8778C29.2231 24.5242 27.9507 26.4857 27.1129 26.2551C26.275 26.0246 26.1888 23.6914 26.9198 21.045C27.6508 18.3987 28.9231 16.4371 29.761 16.6677C30.5988 16.8983 30.685 19.2315 29.9541 21.8778Z" fill="#B67301"/>
<path d="M29.9163 21.8709C29.2025 24.4553 27.9612 26.3686 27.144 26.1415C26.3268 25.9178 26.2406 23.6397 26.9544 21.0553C27.6681 18.4709 28.9094 16.5575 29.7266 16.7847C30.5438 17.0083 30.63 19.2865 29.9163 21.8709Z" fill="#B67401"/>
<path d="M29.8816 21.8606C29.1851 24.3831 27.9749 26.2482 27.1749 26.028C26.375 25.8078 26.2922 23.5881 26.9887 21.0657C27.6852 18.5432 28.8955 16.678 29.6954 16.8983C30.4954 17.1185 30.5781 19.3381 29.8816 21.8606Z" fill="#B77501"/>
<path d="M29.8438 21.8503C29.1646 24.3073 27.9853 26.1278 27.2061 25.9144C26.4268 25.7011 26.3475 23.533 27.0268 21.076C27.706 18.6189 28.8853 16.7984 29.6645 17.0118C30.4438 17.2252 30.5231 19.3932 29.8438 21.8503Z" fill="#B87501"/>
<path d="M29.8092 21.84C29.1472 24.2351 27.9956 26.0074 27.237 25.7974C26.4784 25.5875 26.3991 23.478 27.0611 21.0829C27.7232 18.6877 28.8748 16.9155 29.6334 17.1254C30.392 17.3353 30.4713 19.4448 29.8092 21.84Z" fill="#B97601"/>
<path d="M29.7713 21.8296C29.1265 24.1628 28.0059 25.8869 27.268 25.6839C26.5301 25.4808 26.4543 23.4264 27.0956 21.0932C27.7404 18.76 28.861 17.0359 29.5989 17.239C30.3368 17.442 30.4126 19.4964 29.7713 21.8296Z" fill="#BA7701"/>
<path d="M29.7368 21.8193C29.1093 24.0871 28.0197 25.7664 27.3025 25.5703C26.5853 25.3741 26.5095 23.3747 27.137 21.1035C27.7646 18.8357 28.8541 17.1563 29.5713 17.3525C30.2885 17.5486 30.3644 19.548 29.7368 21.8193Z" fill="#BA7801"/>
<path d="M29.7024 21.809C29.0921 24.0148 28.0336 25.646 27.3336 25.4567C26.6337 25.264 26.5613 23.3197 27.1716 21.1138C27.7819 18.9079 28.8404 17.2768 29.5404 17.466C30.2403 17.6588 30.3127 19.6031 29.7024 21.809Z" fill="#BB7901"/>
<path d="M29.6645 21.7987C29.0714 23.9426 28.0439 25.529 27.3646 25.3397C26.6854 25.1539 26.6164 23.2647 27.206 21.1207C27.7991 18.9768 28.8266 17.3904 29.5059 17.5797C30.1851 17.7655 30.2541 19.6547 29.6645 21.7987Z" fill="#BC7A01"/>
<path d="M29.63 21.7883C29.0577 23.8668 28.0577 25.4085 27.3991 25.2262C26.7406 25.0438 26.6716 23.213 27.2474 21.131C27.8233 19.0525 28.8197 17.5108 29.4783 17.6932C30.1369 17.8756 30.2059 19.7063 29.63 21.7883Z" fill="#BD7B01"/>
<path d="M29.5921 21.7815C29.0335 23.7981 28.0646 25.2916 27.4267 25.1161C26.7888 24.9406 26.7233 23.1614 27.2784 21.1448C27.837 19.1282 28.8059 17.6347 29.4438 17.8102C30.0817 17.9857 30.1507 19.7649 29.5921 21.7815Z" fill="#BE7C01"/>
<path d="M29.5575 21.7711C29.0196 23.7258 28.0783 25.1711 27.4611 25.0025C26.8439 24.8339 26.7783 23.1098 27.3162 21.1551C27.8541 19.2005 28.7955 17.7552 29.4127 17.9238C30.0299 18.0924 30.0954 19.8165 29.5575 21.7711Z" fill="#BF7D01"/>
<path d="M29.5196 21.7608C28.9989 23.6535 28.0887 25.0506 27.4887 24.8855C26.8887 24.7203 26.8267 23.0547 27.3508 21.162C27.8714 19.2693 28.7817 17.8721 29.3817 18.0373C29.9816 18.2025 30.0437 19.8681 29.5196 21.7608Z" fill="#C07E01"/>
<path d="M29.4853 21.7505C28.9819 23.5778 28.1026 24.9302 27.5233 24.7719C26.9441 24.6136 26.8855 23.0031 27.3889 21.1758C27.8923 19.3484 28.7715 17.996 29.3508 18.1543C29.9301 18.3126 29.9887 19.9231 29.4853 21.7539V21.7505Z" fill="#C17F01"/>
<path d="M29.4473 21.7401C28.9611 23.5055 28.1129 24.8098 27.5543 24.6583C26.9957 24.5035 26.9371 22.948 27.4232 21.1861C27.9094 19.4207 28.7576 18.1165 29.3162 18.2679C29.8748 18.4227 29.9334 19.9782 29.4473 21.7401Z" fill="#C28001"/>
<path d="M29.4128 21.7298C28.9439 23.4333 28.1267 24.6928 27.5854 24.5414C27.0475 24.3934 26.9889 22.893 27.4612 21.193C27.9336 19.493 28.7474 18.23 29.2887 18.3815C29.8266 18.5294 29.8852 20.0298 29.4128 21.7298Z" fill="#C38101"/>
<path d="M29.3749 21.7195C28.9232 23.3575 28.1336 24.5723 27.6164 24.4278C27.0992 24.2867 27.044 22.8414 27.4957 21.2033C27.9474 19.5652 28.737 18.3505 29.2542 18.495C29.7714 18.6361 29.8266 20.0814 29.3749 21.7195Z" fill="#C48201"/>
<path d="M29.3404 21.7092C28.906 23.2853 28.1474 24.4519 27.6509 24.3142C27.1509 24.1766 27.0992 22.7897 27.5337 21.2136C27.9681 19.6375 28.7267 18.4709 29.2232 18.6086C29.7232 18.7462 29.7749 20.1331 29.3404 21.7092Z" fill="#C58301"/>
<path d="M29.3024 21.6988C28.8852 23.213 28.1577 24.3314 27.6784 24.2006C27.1991 24.0699 27.1509 22.7347 27.5681 21.2239C27.9853 19.7098 28.7128 18.5914 29.1921 18.7221C29.6714 18.8529 29.7197 20.1881 29.3024 21.6988Z" fill="#C68401"/>
<path d="M29.2678 21.6919C28.8678 23.1407 28.1713 24.2144 27.7127 24.0871C27.2542 23.9597 27.2059 22.683 27.6059 21.2342C28.0058 19.7855 28.7023 18.7118 29.1609 18.8391C29.6195 18.9664 29.6678 20.2432 29.2678 21.6919Z" fill="#C78501"/>
<path d="M29.23 21.6817C28.8473 23.0685 28.1818 24.094 27.7404 23.9736C27.3025 23.8531 27.2543 22.6315 27.6404 21.2446C28.0232 19.8578 28.6886 18.8323 29.13 18.9527C29.5679 19.0732 29.6162 20.2948 29.23 21.6817Z" fill="#C88601"/>
<path d="M29.1956 21.6713C28.8301 22.9962 28.1957 23.9736 27.775 23.86C27.3544 23.7464 27.313 22.5798 27.6785 21.2549C28.044 19.93 28.6784 18.9527 29.0991 19.0663C29.5197 19.1833 29.5611 20.3464 29.1956 21.6713Z" fill="#C98800"/>
<path d="M29.1576 21.661C28.8093 22.9205 28.2025 23.8531 27.806 23.7464C27.406 23.6363 27.3646 22.5247 27.7129 21.2652C28.0611 20.0057 28.668 19.0731 29.0645 19.1798C29.4645 19.2899 29.5058 20.4015 29.1576 21.661Z" fill="#CA8900"/>
<path d="M29.123 21.6506C28.792 22.8482 28.2162 23.7361 27.8369 23.6294C27.4576 23.5227 27.4197 22.4697 27.7507 21.2721C28.0817 20.0745 28.6575 19.1867 29.0368 19.2934C29.4161 19.3966 29.454 20.4531 29.123 21.6506Z" fill="#CB8A00"/>
<path d="M29.0852 21.6404C28.7714 22.776 28.2266 23.6157 27.8681 23.5159C27.5095 23.4161 27.4715 22.4181 27.7853 21.2825C28.0991 20.1469 28.6439 19.3072 29.0025 19.407C29.3611 19.5068 29.399 20.5047 29.0852 21.6404Z" fill="#CC8B00"/>
<path d="M29.0506 21.63C28.7541 22.7003 28.2403 23.4952 27.899 23.4023C27.5611 23.3094 27.5231 22.363 27.8197 21.2928C28.1162 20.2225 28.63 19.4276 28.9713 19.5205C29.3092 19.6134 29.3472 20.5598 29.0506 21.63Z" fill="#CD8C00"/>
<path d="M29.0128 21.6197C28.7335 22.628 28.2508 23.3748 27.9301 23.2853C27.6094 23.1993 27.5784 22.308 27.8577 21.2997C28.137 20.2914 28.6197 19.5446 28.9404 19.6341C29.261 19.7201 29.2921 20.6114 29.0128 21.6197Z" fill="#CE8D00"/>
<path d="M28.9784 21.6094C28.7164 22.5557 28.2647 23.2543 27.9647 23.1717C27.6647 23.0891 27.6337 22.2564 27.8957 21.31C28.1578 20.3636 28.6095 19.6651 28.9094 19.7477C29.2094 19.8302 29.2405 20.663 28.9784 21.6094Z" fill="#D08F00"/>
<path d="M28.9405 21.6025C28.6957 22.4835 28.2715 23.1373 27.9923 23.0616C27.713 22.9859 27.6854 22.2082 27.9267 21.3238C28.1716 20.4428 28.5957 19.789 28.875 19.8647C29.1543 19.9404 29.1818 20.7181 28.9405 21.6025Z" fill="#D19000"/>
<path d="M28.9058 21.5922C28.6782 22.4112 28.2851 23.0169 28.0265 22.9481C27.7679 22.8758 27.7403 22.1531 27.9679 21.3341C28.1955 20.5151 28.5886 19.9094 28.8472 19.9782C29.1058 20.0505 29.1334 20.7732 28.9058 21.5922Z" fill="#D29100"/>
<path d="M28.868 21.5818C28.6577 22.3389 28.2956 22.8964 28.0577 22.831C27.8198 22.7656 27.7922 22.098 28.0025 21.3409C28.2129 20.5839 28.5749 20.0264 28.8128 20.0918C29.0507 20.1571 29.0783 20.8248 28.868 21.5818Z" fill="#D39200"/>
<path d="M28.8334 21.5715C28.6403 22.2632 28.3093 22.7794 28.0886 22.7174C27.868 22.6555 27.8473 22.0464 28.0369 21.3512C28.23 20.6595 28.561 20.1434 28.7817 20.2053C29.0024 20.2672 29.0231 20.8763 28.8334 21.5715Z" fill="#D49300"/>
<path d="M28.7956 21.5612C28.6232 22.191 28.3197 22.659 28.1197 22.6039C27.9198 22.5489 27.8991 21.9948 28.0749 21.3616C28.2473 20.7319 28.5508 20.2639 28.7507 20.3189C28.9507 20.374 28.9714 20.928 28.7956 21.5612Z" fill="#D59500"/>
<path d="M28.761 21.5509C28.6058 22.1187 28.33 22.5385 28.1507 22.4903C27.9714 22.4422 27.9507 21.9397 28.1093 21.3754C28.2645 20.8076 28.5403 20.3877 28.7196 20.4359C28.8989 20.4841 28.9196 20.9865 28.761 21.5509Z" fill="#D69600"/>
<path d="M28.7267 21.5405C28.5887 22.0464 28.3439 22.418 28.1853 22.3733C28.0267 22.3286 28.0095 21.8846 28.1474 21.3822C28.2853 20.8763 28.5301 20.5047 28.6887 20.5494C28.8473 20.5942 28.8646 21.0381 28.7267 21.5405Z" fill="#D89700"/>
<path d="M28.6888 21.5302C28.5681 21.9707 28.3543 22.2976 28.2164 22.2598C28.075 22.2219 28.0612 21.8331 28.1853 21.3926C28.306 20.9521 28.5198 20.6252 28.6577 20.663C28.7991 20.7009 28.8129 21.0897 28.6888 21.5302Z" fill="#D99800"/>
<path d="M28.6542 21.5199C28.5508 21.8984 28.368 22.1772 28.2474 22.1462C28.1267 22.1118 28.1163 21.7814 28.2198 21.4029C28.3232 21.0244 28.506 20.7456 28.6267 20.7766C28.7473 20.811 28.7577 21.1414 28.6542 21.5199Z" fill="#DA9A00"/>
<path d="M28.6162 21.513C28.53 21.8296 28.3783 22.0602 28.2783 22.0327C28.1783 22.0051 28.168 21.7264 28.2542 21.4132C28.3404 21.0966 28.4921 20.8661 28.5921 20.8936C28.6921 20.9211 28.7024 21.1999 28.6162 21.513Z" fill="#DB9B00"/>
<path d="M28.5818 21.5027C28.5128 21.7539 28.3921 21.9397 28.3128 21.9191C28.2335 21.8984 28.2232 21.6747 28.2956 21.4235C28.3645 21.1723 28.4852 20.9865 28.5645 21.0071C28.6438 21.0278 28.6542 21.2515 28.5818 21.5027Z" fill="#DC9C00"/>
<path d="M28.5438 21.4923C28.4921 21.6816 28.399 21.8227 28.3404 21.8055C28.2818 21.7883 28.2749 21.6231 28.3266 21.4338C28.3783 21.2446 28.468 21.1035 28.53 21.1207C28.5886 21.1379 28.5955 21.3031 28.5438 21.4923Z" fill="#DE9D00"/>
<path d="M28.5094 21.482C28.4749 21.6093 28.4128 21.7023 28.3749 21.6919C28.3335 21.6816 28.3301 21.5715 28.3646 21.4442C28.3991 21.3168 28.4611 21.2239 28.499 21.2342C28.5404 21.2446 28.5439 21.3547 28.5094 21.482Z" fill="#DF9F00"/>
<path d="M28.4714 21.4717C28.4542 21.5337 28.4231 21.5818 28.4025 21.5749C28.3818 21.5681 28.3818 21.513 28.399 21.4511C28.4162 21.3891 28.4473 21.3409 28.468 21.3478C28.4887 21.3547 28.4887 21.4098 28.4714 21.4717Z" fill="#E0A000"/>
</g>
<path d="M26.1507 26.5442C26.1231 26.4926 26.1335 26.121 26.0956 26.0797C25.8438 26.6406 25.7645 26.9365 25.9956 27.0811C26.4024 27.3357 29.085 25.5876 29.9332 23.1546C30.7815 20.7216 31.1159 17.5074 30.9849 16.8123C30.8849 16.2926 30.6539 15.9416 30.2367 15.8453C30.9642 16.6299 31.0125 17.504 30.0332 21.4752C28.9885 25.6977 26.4473 27.0673 26.1542 26.5442H26.1507Z" fill="#996202"/>
</g>
<defs>
<linearGradient id="paint0_linear_476_18426" x1="13.0896" y1="21.2378" x2="20.1616" y2="21.2378" gradientUnits="userSpaceOnUse">
<stop stop-color="#BC7902"/>
<stop offset="1" stop-color="#FFE000"/>
</linearGradient>
<linearGradient id="paint1_linear_476_18426" x1="12.5" y1="15.7351" x2="18.1134" y2="15.7351" gradientUnits="userSpaceOnUse">
<stop stop-color="#FFE000"/>
<stop offset="1" stop-color="#BC7902"/>
</linearGradient>
<linearGradient id="paint2_linear_476_18426" x1="15.0584" y1="17.7414" x2="14.4024" y2="13.5908" gradientUnits="userSpaceOnUse">
<stop stop-color="#BC7902"/>
<stop offset="1" stop-color="#FFE000"/>
</linearGradient>
<linearGradient id="paint3_linear_476_18426" x1="29.3886" y1="10.7143" x2="36.464" y2="10.7143" gradientUnits="userSpaceOnUse">
<stop stop-color="#BC7902"/>
<stop offset="1" stop-color="#FFE000"/>
</linearGradient>
<linearGradient id="paint4_linear_476_18426" x1="31.4369" y1="15.7351" x2="37.0537" y2="15.7351" gradientUnits="userSpaceOnUse">
<stop stop-color="#FFE000"/>
<stop offset="1" stop-color="#BC7902"/>
</linearGradient>
<linearGradient id="paint5_linear_476_18426" x1="35.1504" y1="18.3264" x2="34.3673" y2="13.3808" gradientUnits="userSpaceOnUse">
<stop stop-color="#BC7902"/>
<stop offset="1" stop-color="#FFE000"/>
</linearGradient>
<linearGradient id="paint6_linear_476_18426" x1="20.3892" y1="38.8399" x2="29.1024" y2="38.8399" gradientUnits="userSpaceOnUse">
<stop stop-color="#FFE000"/>
<stop offset="1" stop-color="#BC7902"/>
</linearGradient>
<linearGradient id="paint7_linear_476_18426" x1="20.3892" y1="38.8399" x2="29.1024" y2="38.8399" gradientUnits="userSpaceOnUse">
<stop stop-color="#F0BC00"/>
<stop offset="1" stop-color="#B56901"/>
</linearGradient>
<linearGradient id="paint8_linear_476_18426" x1="21.0271" y1="37.5803" x2="28.4645" y2="37.5803" gradientUnits="userSpaceOnUse">
<stop stop-color="#FFE000"/>
<stop offset="1" stop-color="#BC7902"/>
</linearGradient>
<linearGradient id="paint9_linear_476_18426" x1="21.0271" y1="37.5804" x2="28.4645" y2="37.5804" gradientUnits="userSpaceOnUse">
<stop stop-color="#F0BC00"/>
<stop offset="1" stop-color="#B56901"/>
</linearGradient>
<linearGradient id="paint10_linear_476_18426" x1="21.7754" y1="36.5721" x2="27.7164" y2="36.5721" gradientUnits="userSpaceOnUse">
<stop stop-color="#FFE000"/>
<stop offset="1" stop-color="#BC7902"/>
</linearGradient>
<linearGradient id="paint11_linear_476_18426" x1="21.7754" y1="36.5721" x2="27.7164" y2="36.5721" gradientUnits="userSpaceOnUse">
<stop stop-color="#F0BC00"/>
<stop offset="1" stop-color="#B56901"/>
</linearGradient>
<linearGradient id="paint12_linear_476_18426" x1="23.0649" y1="32.5596" x2="26.4268" y2="32.5596" gradientUnits="userSpaceOnUse">
<stop stop-color="#FFE000"/>
<stop offset="1" stop-color="#BC7902"/>
</linearGradient>
<linearGradient id="paint13_linear_476_18426" x1="21.9097" y1="27.7831" x2="27.5817" y2="27.7831" gradientUnits="userSpaceOnUse">
<stop stop-color="#FFEF00"/>
<stop offset="1" stop-color="#C28902"/>
</linearGradient>
<linearGradient id="paint14_linear_476_18426" x1="21.9097" y1="27.7831" x2="27.5817" y2="27.7831" gradientUnits="userSpaceOnUse">
<stop stop-color="#F0BC00"/>
<stop offset="1" stop-color="#B56901"/>
</linearGradient>
<linearGradient id="paint15_linear_476_18426" x1="17.7133" y1="20.3499" x2="31.7779" y2="20.3499" gradientUnits="userSpaceOnUse">
<stop stop-color="#FFE000"/>
<stop offset="1" stop-color="#BC7902"/>
</linearGradient>
<linearGradient id="paint16_linear_476_18426" x1="17.7133" y1="20.3499" x2="31.7779" y2="20.3499" gradientUnits="userSpaceOnUse">
<stop stop-color="#FFEF00"/>
<stop offset="1" stop-color="#C28902"/>
</linearGradient>
<linearGradient id="paint17_linear_476_18426" x1="17.396" y1="20.2329" x2="31.9916" y2="20.2329" gradientUnits="userSpaceOnUse">
<stop stop-color="#F0BC00"/>
<stop offset="1" stop-color="#B56901"/>
</linearGradient>
<linearGradient id="paint18_linear_476_18426" x1="18.5789" y1="12.9442" x2="30.916" y2="12.9442" gradientUnits="userSpaceOnUse">
<stop stop-color="#BC7902"/>
<stop offset="1" stop-color="#FFE000"/>
</linearGradient>
<clipPath id="clip0_476_18426">
<rect width="24.5536" height="29.4643" fill="white" transform="translate(12.5 10.7143)"/>
</clipPath>
</defs>
</svg>
