<svg width="56" height="56" viewBox="0 0 56 56" fill="none" xmlns="http://www.w3.org/2000/svg">
    <g clip-path="url(#clip0_1009_35322)">
        <rect width="56" height="56" rx="10" fill="white"/>
        <g opacity="0.468875" filter="url(#filter0_f_1009_35322)">
            <path d="M40.7072 10.0788H22.2792C19.4813 10.0788 17.2131 12.347 17.2131 15.1449V33.6742C17.2131 36.4722 19.4813 38.7404 22.2792 38.7404H40.7072C43.5051 38.7404 45.7733 36.4722 45.7733 33.6742V15.1449C45.7733 12.347 43.5051 10.0788 40.7072 10.0788Z" fill="#545454"/>
        </g>
        <path d="M19.3643 39.3148C17.2581 39.3148 15.5443 37.6011 15.5443 35.4949V20.746C15.5443 18.6399 17.2581 16.9261 19.3643 16.9261H34.1131C36.2194 16.9261 37.9331 18.6399 37.9331 20.746V35.4949C37.9331 37.6011 36.2194 39.3148 34.1131 39.3148H19.3643ZM48.5981 44.7551L41.9234 39.0323C42.415 37.9518 42.6951 36.7569 42.6951 35.4949V20.746C42.6951 16.006 38.8532 12.1641 34.1131 12.1641H19.3643C14.6243 12.1641 10.7823 16.006 10.7823 20.746V35.4949C10.7823 40.235 14.6243 44.078 19.3643 44.078H34.1131C35.529 44.078 36.8624 43.7271 38.0408 43.1172L40.6626 45.3641C43.0216 47.3878 46.5744 47.1153 48.5981 44.7551Z" fill="black"/>
        <path d="M31.9189 33.2689H25.0826L33.5304 23.0567V20.7405H20.5382V23.6514H28.8321L20.3623 33.8647V36.1808H31.9189H33.8624H34.0171V28.9433H31.9186L31.9189 33.2689Z" fill="black"/>
        <path d="M32.9682 25.5934C32.1878 25.5934 31.6634 26.1042 31.6634 26.7641C31.6634 27.4236 32.1876 27.9348 32.9682 27.9348C33.7476 27.9348 34.2731 27.4234 34.2731 26.7234C34.2731 26.0781 33.7477 25.5934 32.9682 25.5934Z" fill="black"/>
    </g>
    <defs>
        <filter id="filter0_f_1009_35322" x="-143.773" y="-150.908" width="350.533" height="350.634" filterUnits="userSpaceOnUse" color-interpolation-filters="sRGB">
            <feFlood flood-opacity="0" result="BackgroundImageFix"/>
            <feBlend mode="normal" in="SourceGraphic" in2="BackgroundImageFix" result="shape"/>
            <feGaussianBlur stdDeviation="80.4932" result="effect1_foregroundBlur_1009_35322"/>
        </filter>
        <clipPath id="clip0_1009_35322">
            <rect width="56" height="56" rx="10" fill="white"/>
        </clipPath>
    </defs>
</svg>
