<svg width="68" height="68" viewBox="0 0 68 68" fill="none" xmlns="http://www.w3.org/2000/svg">
<g clip-path="url(#clip0_1601_2755)">
<g opacity="0.468875" filter="url(#filter0_f_1601_2755)">
<path d="M49.4302 12.2385H27.0534C23.6558 12.2385 20.9016 14.9928 20.9016 18.3903V40.8902C20.9016 44.2877 23.6558 47.0419 27.0534 47.0419H49.4302C52.8277 47.0419 55.5819 44.2877 55.5819 40.8902V18.3903C55.5819 14.9928 52.8277 12.2385 49.4302 12.2385Z" fill="#545454"/>
</g>
<path d="M23.5137 47.7395C20.9562 47.7395 18.8753 45.6586 18.8753 43.1011V25.1917C18.8753 22.6342 20.9562 20.5532 23.5137 20.5532H41.4231C43.9807 20.5532 46.0616 22.6342 46.0616 25.1917V43.1011C46.0616 45.6586 43.9807 47.7395 41.4231 47.7395H23.5137ZM59.012 54.3456L50.907 47.3965C51.5039 46.0844 51.8441 44.6334 51.8441 43.1011V25.1917C51.8441 19.4359 47.1789 14.7708 41.4231 14.7708H23.5137C17.758 14.7708 13.0928 19.4359 13.0928 25.1917V43.1011C13.0928 48.8568 17.758 53.5234 23.5137 53.5234H41.4231C43.1423 53.5234 44.7615 53.0973 46.1924 52.3567L49.3759 55.0851C52.2405 57.5425 56.5546 57.2115 59.012 54.3456Z" fill="black"/>
<path d="M38.7587 40.398H30.4574L40.7154 27.9975V25.1851H24.9392V28.7197H35.0104L24.7256 41.1215V43.934H38.7587H41.1186H41.3064V35.1455H38.7583L38.7587 40.398Z" fill="black"/>
<path d="M40.0329 31.0776C39.0852 31.0776 38.4484 31.6979 38.4484 32.4992C38.4484 33.3001 39.085 33.9208 40.0329 33.9208C40.9793 33.9208 41.6173 33.2998 41.6173 32.4499C41.6173 31.6663 40.9793 31.0776 40.0329 31.0776Z" fill="black"/>
</g>
<defs>
<filter id="filter0_f_1601_2755" x="-140.085" y="-148.748" width="356.653" height="356.776" filterUnits="userSpaceOnUse" color-interpolation-filters="sRGB">
<feFlood flood-opacity="0" result="BackgroundImageFix"/>
<feBlend mode="normal" in="SourceGraphic" in2="BackgroundImageFix" result="shape"/>
<feGaussianBlur stdDeviation="80.4932" result="effect1_foregroundBlur_1601_2755"/>
</filter>
<clipPath id="clip0_1601_2755">
<rect width="68" height="68" fill="white"/>
</clipPath>
</defs>
</svg>
