<?xml version="1.0" encoding="UTF-8" standalone="no"?>
<!-- Created with Inkscape (http://www.inkscape.org/) -->

<svg
   width="300mm"
   height="300mm"
   viewBox="0 0 300 300"
   version="1.1"
   id="svg1015"
   inkscape:export-filename="/home/carel/Downloads/xero-ziqni-icon.png"
   inkscape:export-xdpi="30.290001"
   inkscape:export-ydpi="30.290001"
   inkscape:version="1.1.1 (26b7af14f2, 2022-01-19)"
   sodipodi:docname="ziqni-logo.svg"
   xmlns:inkscape="http://www.inkscape.org/namespaces/inkscape"
   xmlns:sodipodi="http://sodipodi.sourceforge.net/DTD/sodipodi-0.dtd"
   xmlns="http://www.w3.org/2000/svg"
   xmlns:svg="http://www.w3.org/2000/svg">
  <sodipodi:namedview
     id="namedview1017"
     pagecolor="#ffffff"
     bordercolor="#666666"
     borderopacity="1.0"
     inkscape:pageshadow="2"
     inkscape:pageopacity="0.0"
     inkscape:pagecheckerboard="0"
     inkscape:document-units="px"
     showgrid="false"
     inkscape:zoom="0.77771465"
     inkscape:cx="805.56538"
     inkscape:cy="662.83951"
     inkscape:window-width="2560"
     inkscape:window-height="1403"
     inkscape:window-x="0"
     inkscape:window-y="0"
     inkscape:window-maximized="1"
     inkscape:current-layer="layer1" />
  <defs
     id="defs1012">
    <filter
       inkscape:collect="always"
       style="color-interpolation-filters:sRGB"
       id="filter3603"
       x="-0.33407004"
       y="-0.33288881"
       width="1.6681401"
       height="1.6657776">
      <feGaussianBlur
         inkscape:collect="always"
         stdDeviation="33.120969"
         id="feGaussianBlur3605" />
    </filter>
  </defs>
  <g
     inkscape:label="Layer 1"
     inkscape:groupmode="layer"
     id="layer1">
    <rect
       style="fill:#000000;fill-opacity:1;stroke-width:0.371817"
       id="rect1494"
       width="251.60869"
       height="252.50151"
       x="21.752106"
       y="25.073921"
       ry="44.631496"
       inkscape:export-filename="/home/carel/Downloads/ziqni-icon.png"
       inkscape:export-xdpi="25.454205"
       inkscape:export-ydpi="25.454205" />
    <rect
       style="opacity:0.468875;mix-blend-mode:normal;fill:#545454;fill-opacity:1;stroke-width:0.351625;filter:url(#filter3603)"
       id="rect1494-6"
       width="237.94508"
       height="238.78941"
       x="21.752106"
       y="25.073921"
       ry="42.207783"
       inkscape:export-filename="/home/carel/Downloads/ziqni-icon.png"
       inkscape:export-xdpi="25.454205"
       inkscape:export-ydpi="25.454205"
       transform="matrix(0.6430114,0,0,0.6430114,78.226041,37.870555)" />
    <path
       d="m 103.73707,210.61506 c -11.283065,0 -20.463843,-9.18076 -20.463843,-20.46383 v -79.01186 c 0,-11.283083 9.180778,-20.463853 20.463843,-20.463853 h 79.01184 c 11.28339,0 20.46416,9.18077 20.46416,20.463853 v 79.01186 c 0,11.28307 -9.18077,20.46383 -20.46416,20.46383 z m 156.61006,29.14453 -35.75729,-30.65792 c 2.63334,-5.78869 4.13392,-12.19006 4.13392,-18.95044 v -79.01186 c 0,-25.393103 -20.58175,-45.974853 -45.97485,-45.974853 h -79.01184 c -25.392776,0 -45.974837,20.58175 -45.974837,45.974853 v 79.01186 c 0,25.39307 20.582061,45.98077 45.974837,45.98077 h 79.01184 c 7.5848,0 14.72833,-1.87961 21.04118,-5.14692 l 14.04497,12.0368 c 12.63789,10.84146 31.6706,9.38125 42.51207,-3.26229"
       style="fill:#ffffff;fill-opacity:1;fill-rule:nonzero;stroke:none;stroke-width:5.88891"
       id="path151993-9"
       inkscape:export-filename="/home/carel/Downloads/ziqni-icon.png"
       inkscape:export-xdpi="25.454205"
       inkscape:export-ydpi="25.454205" />
    <path
       d="M 170.99422,178.22608 H 134.3709 L 179.62705,123.518 V 111.10997 H 110.02617 V 126.704 h 44.43171 l -45.37403,54.71399 v 12.40773 h 61.91037 10.41143 0.82879 v -38.77254 h -11.2418 z"
       style="fill:#ffffff;fill-opacity:1;fill-rule:nonzero;stroke:none;stroke-width:5.88891"
       id="path151997-6"
       inkscape:export-filename="/home/carel/Downloads/ziqni-icon.png"
       inkscape:export-xdpi="25.454205"
       inkscape:export-ydpi="25.454205" />
    <path
       d="m 176.61558,137.10728 c -4.18114,0 -6.99027,2.73656 -6.99027,6.27159 0,3.53344 2.8085,6.27189 6.99027,6.27189 4.1752,0 6.99027,-2.7397 6.99027,-6.48956 0,-3.45682 -2.81475,-6.05392 -6.99027,-6.05392"
       style="fill:#ffffff;fill-opacity:1;fill-rule:nonzero;stroke:none;stroke-width:5.88891"
       id="path152001-4"
       inkscape:export-filename="/home/carel/Downloads/ziqni-icon.png"
       inkscape:export-xdpi="25.454205"
       inkscape:export-ydpi="25.454205" />
  </g>
</svg>
