<svg width="42" height="42" viewBox="0 0 42 42" fill="none" xmlns="http://www.w3.org/2000/svg">
<g filter="url(#filter0_d)">
<path d="M33.3241 7.67609C32.8314 7.22455 32.0679 7.18676 31.5836 7.67609L27.5968 11.6628C27.4031 11.4691 27.2142 11.2802 27.0221 11.0881L25.7627 9.8238C25.5132 9.57422 25.2455 9.24583 24.9171 9.09803C24.2932 8.8189 23.6364 8.95354 23.152 9.42971C22.9681 9.61361 22.7826 9.79916 22.5937 9.98797L21.4115 11.1702C17.6153 9.73345 13.2707 10.0241 9.67125 11.9091C6.01785 13.8171 3.29207 17.3475 2.36773 21.3618C1.48433 25.1958 2.20353 29.3387 4.40708 32.6095C6.65661 35.9509 10.2642 38.2875 14.2671 38.8491C16.2293 39.1249 18.221 39.0264 20.1373 38.5075C22.0879 37.9821 23.8941 37.0298 25.4656 35.7605C25.84 35.4567 26.1963 35.1333 26.5362 34.795C28.1371 33.1859 29.344 31.2237 30.0467 29.0678C30.7282 26.9825 30.8923 24.7626 30.5968 22.5953C30.4572 21.5691 30.1994 20.5592 29.8333 19.5905C30.0927 19.3311 30.3554 19.0683 30.6132 18.8105C30.8595 18.5642 31.1058 18.3179 31.357 18.0667C31.5409 17.8828 31.7511 17.6973 31.8743 17.4674C32.1945 16.8599 32.0828 16.1571 31.6148 15.6645C31.541 15.5857 31.4671 15.5167 31.3932 15.4428C31.0237 15.0734 30.6543 14.7089 30.2898 14.3394L29.3505 13.4002C30.4917 12.259 31.6296 11.1211 32.7691 9.98161C32.958 9.79278 33.1468 9.60395 33.3356 9.41511C33.7839 8.96193 33.8167 8.12452 33.3241 7.67626L33.3241 7.67609ZM18.4232 15.6841C18.2262 15.8811 17.8452 16.0782 17.553 16.0453C16.7681 15.955 15.9767 15.955 15.1918 16.0453C14.4397 16.1636 13.7058 16.3606 13.0047 16.6447C12.4924 16.8713 11.9998 17.1373 11.5351 17.4493C11.4005 17.5396 11.2642 17.6332 11.1328 17.7284C11.054 17.7941 11.0179 17.822 11.0097 17.8302C11.0179 17.822 11.0392 17.8056 11.0589 17.7842C11.0228 17.8138 10.985 17.8417 10.9522 17.8696C10.7059 18.0716 10.476 18.2834 10.2494 18.51C9.7601 18.9943 9.0015 18.9615 8.50894 18.51C8.01961 18.0633 8.05249 17.2259 8.50894 16.7695C9.059 16.2243 9.67145 15.7317 10.3184 15.3032C12.4201 13.919 15.0557 13.2917 17.5563 13.5824C17.9012 13.6234 18.1721 13.7104 18.4266 13.9436C18.6696 14.1653 18.7714 14.4986 18.7878 14.8138C18.7977 15.1192 18.6368 15.4706 18.4233 15.6841L18.4232 15.6841Z" fill="white"/>
<path d="M37.4833 5.25723C37.8741 4.86643 38.2682 4.47235 38.6574 4.0832C39.1138 3.62674 39.1467 2.78933 38.6574 2.34271C38.1647 1.89118 37.4012 1.85339 36.9169 2.34271C36.5261 2.7335 36.132 3.12758 35.7428 3.51674C35.2864 3.97319 35.2535 4.81061 35.7428 5.25723C36.2354 5.7104 36.9973 5.74655 37.4833 5.25723Z" fill="white"/>
<path d="M36.9975 9.50965C37.5886 9.49323 38.1797 9.4801 38.7675 9.46368C39.4111 9.44726 40.0285 8.90869 39.999 8.23219C39.9694 7.57868 39.4571 6.98426 38.7675 7.0007C38.1764 7.01712 37.5853 7.03025 36.9975 7.04668C36.3538 7.0631 35.7364 7.60166 35.766 8.27817C35.7955 8.93168 36.3078 9.52609 36.9975 9.50965Z" fill="white"/>
<path d="M33.9563 4.00242C33.9563 3.41133 33.9595 2.8202 33.9595 2.23239C33.9595 1.58875 33.393 0.971347 32.7281 1.0009C32.0581 1.03045 31.4966 1.54277 31.4966 2.23239C31.4966 2.82348 31.4933 3.41461 31.4933 4.00242C31.4933 4.64606 32.0598 5.26346 32.7248 5.23391C33.3898 5.20436 33.953 4.69204 33.9563 4.00242Z" fill="white"/>
<path d="M37.5558 11.8348C37.165 11.444 36.7709 11.05 36.3817 10.6608C35.9253 10.2044 35.0879 10.1715 34.6412 10.6608C34.1897 11.1534 34.1519 11.9169 34.6412 12.4013C35.032 12.7921 35.4261 13.1862 35.8153 13.5753C36.2717 14.0318 37.1091 14.0646 37.5558 13.5753C38.0089 13.0827 38.0418 12.3176 37.5558 11.8348Z" fill="white"/>
<path d="M30.3441 4.6217C29.9533 4.23091 29.5593 3.83683 29.1701 3.44767C28.7137 2.99122 27.8762 2.95834 27.4296 3.44767C26.9781 3.94027 26.9403 4.70379 27.4296 5.18816L28.6037 6.36218C29.0601 6.81864 29.8975 6.85151 30.3441 6.36218C30.7957 5.86958 30.8285 5.10606 30.3441 4.6217Z" fill="white"/>
</g>
<defs>
<filter id="filter0_d" x="0" y="-0.00012207" width="42" height="41.9994" filterUnits="userSpaceOnUse" color-interpolation-filters="sRGB">
<feFlood flood-opacity="0" result="BackgroundImageFix"/>
<feColorMatrix in="SourceAlpha" type="matrix" values="0 0 0 0 0 0 0 0 0 0 0 0 0 0 0 0 0 0 127 0"/>
<feOffset dy="1"/>
<feGaussianBlur stdDeviation="1"/>
<feColorMatrix type="matrix" values="0 0 0 0 0 0 0 0 0 0 0 0 0 0 0 0 0 0 0.25 0"/>
<feBlend mode="normal" in2="BackgroundImageFix" result="effect1_dropShadow"/>
<feBlend mode="normal" in="SourceGraphic" in2="effect1_dropShadow" result="shape"/>
</filter>
</defs>
</svg>
